# Blender v2.75 (sub 0) OBJ File: 'LowPolyShip.blend'
# www.blender.org
o LowPolySpaceship_Cube
v 0.709996 -0.196826 -0.529128
v 0.709996 -0.196826 0.529128
v -0.955670 -0.196826 0.529128
v -0.955670 -0.196826 -0.529128
v 0.709996 0.167967 -0.529127
v 0.709995 0.167967 0.529128
v -0.955671 0.167967 0.529128
v -0.955670 0.167967 -0.529128
v 1.044330 0.038478 0.248339
v 0.709996 0.038478 -0.529128
v 0.709995 0.038478 0.529128
v 1.044330 0.038478 -0.248339
v -0.955670 0.038478 0.529128
v -0.955670 0.038478 -0.529128
v -0.636443 0.038478 -0.248339
v -0.636444 0.038478 0.248339
v -0.636444 0.167967 -0.248339
v -0.636444 0.167967 0.248339
v 0.777776 0.167967 0.248339
v 0.777776 0.167967 -0.248338
v 0.411654 -0.196826 -0.822842
v 0.411654 -0.196826 0.822842
v 0.411654 0.167967 -0.529128
v 0.411653 0.167967 0.529128
v 0.411654 0.038478 -0.822842
v 0.411654 0.038478 0.822842
v -0.636443 -0.196826 -0.248339
v -0.636443 -0.196826 0.248339
v -0.455670 -0.196826 -0.822842
v -0.455670 -0.196826 0.822842
v -0.455670 0.167967 -0.529128
v -0.455671 0.167967 0.529128
v -0.455670 0.038478 -0.822842
v -0.455670 0.038478 0.822842
v 1.044330 -0.196826 0.248339
v 1.044330 -0.196826 -0.248339
v 0.411654 -0.196826 0.248339
v 0.411654 -0.196826 -0.248339
v 0.411654 0.167967 -0.248338
v 0.411654 0.167967 0.248339
v -0.455670 -0.196826 0.248339
v -0.455670 -0.196826 -0.248339
v -0.455670 0.167967 -0.248339
v -0.455670 0.167967 0.248339
vt 0.590103 0.486141
vt 0.670296 0.577376
vt 0.670279 0.629026
vt 0.590053 0.628998
vt 0.016040 0.614128
vt 0.088787 0.490289
vt 0.158332 0.569354
vt 0.158332 0.614128
vt 0.812101 0.876881
vt 0.892327 0.876909
vt 0.892297 0.962149
vt 0.812065 0.981488
vt 0.984124 0.629134
vt 0.892412 0.629102
vt 0.892461 0.486245
vt 0.710246 0.036384
vt 0.710246 0.102762
vt 0.587083 0.102762
vt 0.587083 0.036384
vt 0.680328 0.372181
vt 0.680328 0.251994
vt 0.976519 0.251994
vt 0.976519 0.372181
vt 0.976519 0.438321
vt 0.186320 0.126587
vt 0.186320 0.177882
vt 0.017906 0.177882
vt 0.017906 0.126587
vt 0.016040 0.828944
vt 0.158332 0.828944
vt 0.710065 0.130057
vt 0.710065 0.213653
vt 0.630417 0.230852
vt 0.281348 0.614128
vt 0.423639 0.614128
vt 0.423639 0.828944
vt 0.281348 0.828944
vt 0.670193 0.876832
vt 0.812187 0.629074
vt 0.589968 0.876805
vt 0.812204 0.577425
vt 0.281348 0.569354
vt 0.984038 0.876941
vt 0.023482 0.251991
vt 0.023481 0.372177
vt 0.237321 0.372179
vt 0.237322 0.251992
vt 0.023481 0.438321
vt 0.551486 0.033375
vt 0.551486 0.126587
vt 0.383071 0.126587
vt 0.383071 0.033375
vt 0.350893 0.490289
vt 0.186320 0.033375
vt 0.017905 0.033375
vt 0.350893 0.902837
vt 0.281348 0.985644
vt 0.158332 0.985644
vt 0.929824 0.230852
vt 0.850175 0.213653
vt 0.850176 0.130057
vt 0.551486 0.177882
vt 0.383072 0.177882
vt 0.973520 0.036384
vt 0.973520 0.102762
vt 0.850356 0.102762
vt 0.850356 0.036384
vt 0.670157 0.981439
vt 0.589938 0.962045
vt 0.498256 0.876773
vt 0.498341 0.628966
vt 0.950862 0.200990
vt 0.609379 0.200990
vt 0.088787 0.902837
vn 0.000000 1.000000 -0.000000
vn 0.000000 -1.000000 0.000000
vn -0.000000 0.915000 0.403400
vn 0.643100 0.000000 0.765800
vn -0.506500 0.000000 -0.862200
vn -0.660500 -0.000000 0.750900
vn -0.506500 -0.000000 0.862200
vn 0.434500 0.894500 0.104900
vn 0.701600 0.000000 0.712600
vn 0.701600 -0.000000 -0.712600
vn -0.660500 -0.000000 -0.750900
vn 0.000000 0.000000 -1.000000
vn -0.000000 -0.000000 1.000000
vn -1.000000 -0.000000 -0.000000
vn 0.434500 0.894500 -0.104900
vn 0.437000 0.899500 0.000000
vn 0.643100 0.000000 -0.765800
vn 1.000000 0.000000 0.000000
vn 0.000000 0.915000 -0.403400
s off
f 8/1/1 17/2/1 43/3/1 31/4/1
f 30/5/2 3/6/2 28/7/2 41/8/2
f 40/9/1 24/10/1 6/11/1 19/12/1
f 34/13/3 32/14/3 7/15/3
f 35/16/4 9/17/4 11/18/4 2/19/4
f 33/20/5 29/21/5 4/22/5 14/23/5
f 33/20/5 14/23/5 8/24/5
f 15/25/6 17/26/6 8/27/6 14/28/6
f 22/29/2 30/5/2 41/8/2 37/30/2
f 30/21/7 34/20/7 13/23/7 3/22/7
f 9/31/8 19/32/8 6/33/8
f 42/34/2 29/35/2 21/36/2 38/37/2
f 39/38/1 43/3/1 44/39/1 40/9/1
f 41/8/2 42/34/2 38/37/2 37/30/2
f 43/3/1 39/38/1 23/40/1 31/4/1
f 18/41/1 7/15/1 32/14/1 44/39/1
f 41/8/2 28/7/2 27/42/2 42/34/2
f 6/11/3 24/10/3 26/43/3
f 2/44/9 11/45/9 26/46/9 22/47/9
f 10/45/10 1/44/10 21/47/10 25/46/10
f 5/48/10 10/45/10 25/46/10
f 3/49/11 13/50/11 16/51/11 28/52/11
f 42/34/2 27/42/2 4/53/2 29/35/2
f 26/43/3 24/10/3 32/14/3 34/13/3
f 25/46/12 21/47/12 29/21/12 33/20/12
f 22/47/13 26/46/13 34/20/13 30/21/13
f 40/9/1 44/39/1 32/14/1 24/10/1
f 17/2/1 18/41/1 44/39/1 43/3/1
f 28/52/14 16/51/14 15/25/14 27/54/14
f 27/54/6 15/25/6 14/28/6 4/55/6
f 1/56/2 36/57/2 38/37/2 21/36/2
f 36/57/2 35/58/2 37/30/2 38/37/2
f 5/59/15 20/60/15 12/61/15
f 12/61/16 20/60/16 19/32/16 9/31/16
f 13/50/11 7/62/11 18/63/11 16/51/11
f 16/51/14 18/63/14 17/26/14 15/25/14
f 1/64/17 10/65/17 12/66/17 36/67/17
f 36/67/18 12/66/18 9/17/18 35/16/18
f 23/40/1 39/38/1 20/68/1 5/69/1
f 39/38/1 40/9/1 19/12/1 20/68/1
f 23/40/19 25/70/19 33/71/19 31/4/19
f 10/72/17 5/59/17 12/61/17
f 11/73/4 9/31/4 6/33/4
f 23/40/19 5/69/19 25/70/19
f 11/45/9 6/48/9 26/46/9
f 31/4/19 33/71/19 8/1/19
f 13/23/7 34/20/7 7/24/7
f 2/74/2 22/29/2 37/30/2 35/58/2
