# Blender v2.75 (sub 0) OBJ File: 'Laser bullet.blend'
# www.blender.org
o Laser_Bullet_Cube
v 0.156980 -0.040216 -0.000000
v -0.156980 -0.040216 -0.000000
v 0.156980 0.040216 0.000000
v -0.156980 0.040216 -0.000000
v 0.156980 -0.040216 -0.071151
v -0.156980 -0.040216 -0.071151
v 0.156980 0.040216 -0.071151
v -0.156980 0.040216 -0.071151
vt 0.975847 0.416381
vt 0.024153 0.416382
vt 0.024153 0.660193
vt 0.975847 0.660193
vn 0.000000 0.000000 -1.000000
vn -0.000000 -0.000000 1.000000
vn 1.000000 0.000000 0.000000
vn 0.000000 1.000000 0.000000
vn 0.000000 -1.000000 0.000000
vn -1.000000 -0.000000 0.000000
s off
f 1/1/1 2/2/1 4/3/1 3/4/1
f 5/1/2 7/4/2 8/3/2 6/2/2
f 4/3/3 2/2/3 6/2/3 8/3/3
f 2/2/4 1/1/4 5/1/4 6/2/4
f 3/4/5 4/3/5 8/3/5 7/4/5
f 1/1/6 3/4/6 7/4/6 5/1/6
