# 3ds Max Wavefront OBJ Exporter v0.97b - (c)2007 guruware
# File Created: 17.02.2016 16:00:37

mtllib L_LavaWorldPiece_Lava_a.mtl

#
# object L_LavaWorldPiece_Lava_a
#

v  -556.5098 -6.9090 2608.1899
v  -285.9682 -6.9090 2608.1899
v  -285.9682 -6.9090 1304.0950
v  -556.5098 -6.9090 1304.0950
v  -15.4267 -6.9090 2608.1899
v  -15.4267 -6.9090 1304.0950
v  255.1149 -6.9090 2608.1899
v  255.1149 -6.9090 1304.0950
v  525.6565 -6.9090 2608.1899
v  525.6565 -6.9090 1304.0950
v  -285.9682 -6.9090 -0.0000
v  -556.5098 -6.9090 -0.0000
v  -15.4267 -6.9090 -0.0000
v  255.1149 -6.9090 -0.0000
v  525.6565 -6.9090 -0.0000
v  -285.9682 -6.9090 -1304.0950
v  -556.5098 -6.9090 -1304.0950
v  -15.4267 -6.9090 -1304.0950
v  255.1149 -6.9090 -1304.0950
v  525.6565 -6.9090 -1304.0950
v  -285.9682 -6.9090 -2608.1899
v  -556.5098 -6.9090 -2608.1899
v  -15.4267 -6.9090 -2608.1899
v  255.1149 -6.9090 -2608.1899
v  525.6565 -6.9090 -2608.1899
# 25 vertices

vn 0.0000 1.0000 -0.0000
# 1 vertex normals

vt -0.0205 -0.7333 0.5000
vt 0.2398 -0.7333 0.5000
vt 0.2398 -0.1167 0.5000
vt -0.0205 -0.1167 0.5000
vt 0.5000 -0.7333 0.5000
vt 0.5000 -0.1167 0.5000
vt 0.7602 -0.7333 0.5000
vt 0.7602 -0.1167 0.5000
vt 1.0205 -0.7333 0.5000
vt 1.0205 -0.1167 0.5000
vt 0.2398 0.5000 0.5000
vt -0.0205 0.5000 0.5000
vt 0.5000 0.5000 0.5000
vt 0.7602 0.5000 0.5000
vt 1.0205 0.5000 0.5000
vt 0.2398 1.1167 0.5000
vt -0.0205 1.1167 0.5000
vt 0.5000 1.1167 0.5000
vt 0.7602 1.1167 0.5000
vt 1.0205 1.1167 0.5000
vt 0.2398 1.7333 0.5000
vt -0.0205 1.7333 0.5000
vt 0.5000 1.7333 0.5000
vt 0.7602 1.7333 0.5000
vt 1.0205 1.7333 0.5000
# 25 texture coords

g L_LavaWorldPiece_Lava_a
usemtl Material__5
s 1
f -25/-25/-1 -24/-24/-1 -23/-23/-1 -22/-22/-1 
f -24/-24/-1 -21/-21/-1 -20/-20/-1 -23/-23/-1 
f -21/-21/-1 -19/-19/-1 -18/-18/-1 -20/-20/-1 
f -19/-19/-1 -17/-17/-1 -16/-16/-1 -18/-18/-1 
f -22/-22/-1 -23/-23/-1 -15/-15/-1 -14/-14/-1 
f -23/-23/-1 -20/-20/-1 -13/-13/-1 -15/-15/-1 
f -20/-20/-1 -18/-18/-1 -12/-12/-1 -13/-13/-1 
f -18/-18/-1 -16/-16/-1 -11/-11/-1 -12/-12/-1 
f -14/-14/-1 -15/-15/-1 -10/-10/-1 -9/-9/-1 
f -15/-15/-1 -13/-13/-1 -8/-8/-1 -10/-10/-1 
f -13/-13/-1 -12/-12/-1 -7/-7/-1 -8/-8/-1 
f -12/-12/-1 -11/-11/-1 -6/-6/-1 -7/-7/-1 
f -9/-9/-1 -10/-10/-1 -5/-5/-1 -4/-4/-1 
f -10/-10/-1 -8/-8/-1 -3/-3/-1 -5/-5/-1 
f -8/-8/-1 -7/-7/-1 -2/-2/-1 -3/-3/-1 
f -7/-7/-1 -6/-6/-1 -1/-1/-1 -2/-2/-1 
# 16 polygons

