# 3ds Max Wavefront OBJ Exporter v0.97b - (c)2007 guruware
# File Created: 14.01.2016 19:58:49

mtllib Lava Rock.mtl

#
# object Sphere001
#

v  -7.0779 5.0201 10.7572
v  -8.2534 9.1904 6.3714
v  -9.4767 0.3779 6.4613
v  5.3604 -3.3471 -11.9514
v  4.4312 -7.0111 -10.1879
v  0.9534 -3.8353 -11.9515
v  8.5365 -6.4817 -1.9839
v  11.9850 -4.9145 -1.5464
v  11.7837 -4.8162 2.9294
v  -3.2000 -9.2981 9.0946
v  -5.9522 -4.1210 8.6127
v  -11.3900 -6.1715 4.1993
v  -3.5243 0.4255 -13.2042
v  -2.5743 7.0606 -10.8886
v  0.7865 3.5114 -12.8261
v  13.2608 -0.2741 3.4286
v  10.6495 2.0009 1.2570
v  9.0431 5.1512 8.8255
v  -2.7295 8.8131 -5.6356
v  -3.6111 4.8858 -10.9290
v  -9.1307 7.6173 -7.4955
v  -5.6860 -5.2103 -6.4776
v  -8.9627 -0.4931 -11.1500
v  -5.6111 -4.5238 -12.0566
v  -4.1089 -10.8353 5.3893
v  -1.4549 -10.9508 1.1679
v  -1.1070 -9.8753 2.7816
v  -6.0666 -9.8964 -4.9588
v  -5.5462 -6.2743 -8.7847
v  1.2969 -8.2744 -9.7076
v  -7.5426 7.1706 6.6020
v  -3.1808 1.9529 10.6832
v  -4.6374 6.6942 8.9139
v  5.9342 -5.9940 8.8788
v  9.7887 -1.3440 10.4735
v  1.4029 -5.1037 11.9659
v  6.8131 2.1679 -12.0475
v  3.4062 10.4104 -6.3109
v  4.8218 10.5574 -1.6618
v  -0.0763 8.5637 6.1537
v  5.3477 5.5320 7.0283
v  3.9286 7.3174 8.0513
v  5.0821 -10.5762 2.2885
v  7.3623 -10.0531 5.2501
v  3.6951 -10.0056 4.3326
v  11.1827 -4.8514 -5.5677
v  8.8867 -8.0541 -4.1385
v  5.5858 -10.9386 -6.1809
v  -10.5393 -6.5463 -3.5294
v  -10.6188 7.9322 3.9756
v  -10.9495 6.3520 -1.6635
v  -5.6617 11.3766 0.6092
v  2.5387 11.7014 3.8374
v  3.2054 9.5964 3.4445
v  -3.4670 -0.4582 13.2325
v  2.6086 -3.1861 12.8681
v  -4.5854 -4.3223 9.8265
v  0.6320 -8.0957 10.5291
v  10.0800 5.3725 0.7660
v  6.9866 6.8297 -3.6200
v  5.5527 9.8444 -0.2456
v  7.3753 -8.5760 -8.2890
v  1.0212 8.0437 -8.6587
v  0.5602 11.6482 -2.7034
v  1.1350 -11.4169 -3.9339
v  5.3962 -9.5946 -2.4147
v  0.3716 -12.0279 0.3619
v  -3.6692 -11.8028 -2.9173
v  0.9305 -13.1533 -4.3654
v  6.3459 2.2578 8.6013
v  2.8731 -0.8007 10.9909
v  -11.9454 -3.6892 -0.0873
v  -12.5622 0.0299 -3.4398
v  -11.9643 -0.4304 -6.5810
v  -6.4339 -2.5024 9.7451
v  -12.1082 -4.2964 5.9947
v  -11.2409 -7.0154 -0.8434
v  -8.2568 -11.6206 2.4394
v  -6.9014 -10.6155 5.0105
v  -4.9421 -10.7596 2.7774
v  -13.2938 0.9852 -0.8960
v  -12.0892 6.7652 -6.0482
v  -12.1146 4.3297 -7.3717
v  -1.4178 5.4070 10.1162
v  -5.1794 8.8465 6.3333
v  -8.5351 8.3851 3.9418
v  -2.0155 11.7089 3.0974
v  -2.7701 -11.6508 -6.9329
v  5.3113 9.4330 1.0297
v  6.5490 8.9207 6.2042
v  -3.2125 10.7848 -2.6271
v  -7.6844 10.3257 -5.0924
v  -2.6375 12.5488 -0.0259
v  4.5264 1.3000 11.5418
v  0.9729 -10.2900 4.3857
v  2.5046 -8.3161 9.2889
v  -2.8649 -11.7126 6.8381
v  5.0546 -8.3786 9.4723
v  9.1426 -7.6675 5.5674
v  2.9855 -12.7966 0.3760
v  9.3025 -8.7080 0.7317
v  1.2271 0.9482 -12.5808
v  -1.3891 -1.9645 -11.1229
v  -6.6299 0.8723 11.9876
v  -3.0729 -3.9615 11.7699
v  4.2903 3.3968 -12.0228
v  8.8312 1.7897 -8.3964
v  11.0616 3.6743 -1.2820
v  -1.2955 -10.3677 -0.6861
v  -4.4485 -9.9533 0.0095
v  -5.9887 -9.7500 0.1572
v  0.2363 13.2042 -0.1956
v  -1.9054 14.2258 1.8487
v  10.3112 -3.0103 7.1783
v  10.4998 -2.4645 5.5815
v  10.5804 -9.4028 2.4334
v  0.8359 -10.9726 -1.3201
v  -8.3906 1.7186 -8.1900
v  -10.9408 -0.1577 2.9220
v  -11.0947 -1.3031 1.4048
v  -10.5271 6.7889 -5.0892
v  -12.3065 2.9976 3.2812
v  7.0811 3.0770 -9.1147
v  11.5496 1.6162 -5.1830
v  6.9612 4.3176 -5.9444
v  9.1504 -9.7695 -0.9923
v  -1.3585 12.5270 -4.3595
v  0.6340 10.7192 -6.6302
v  3.6587 9.0512 -0.8287
v  3.2516 3.6709 7.9508
v  5.9702 -9.9146 -10.5133
v  2.3797 -12.0824 -5.4422
v  2.4029 -11.5952 -1.4050
v  -1.0015 11.9320 -0.9754
v  6.3405 0.9264 10.2360
v  -0.3728 12.0299 3.4340
v  3.0856 -5.9798 9.3707
v  -5.1261 8.4196 3.5904
v  -4.4162 13.1319 -1.8799
v  -0.6994 -11.2547 4.8704
v  -6.9579 12.1828 -2.0103
v  7.7395 7.8251 7.1079
v  2.4690 12.3596 1.2713
v  -0.7871 -12.4470 -4.5906
# 144 vertices

vn -0.2304 0.3764 0.8974
vn 0.1239 0.9298 0.3466
vn -0.7236 0.0927 0.6840
vn 0.3971 -0.0903 -0.9133
vn 0.1751 -0.1790 -0.9682
vn -0.0059 -0.1542 -0.9880
vn 0.9404 -0.3391 -0.0267
vn 0.8933 -0.4382 -0.0999
vn 0.9247 -0.2670 0.2715
vn -0.3786 -0.3609 0.8523
vn -0.5479 -0.3108 0.7766
vn -0.8592 -0.3391 0.3832
vn -0.2600 -0.0529 -0.9642
vn -0.6202 0.7521 -0.2227
vn 0.1039 0.1799 -0.9782
vn 0.9600 0.0834 0.2671
vn 0.7621 0.5257 0.3778
vn 0.5677 0.3221 0.7576
vn -0.3076 0.5356 -0.7864
vn -0.5856 0.2905 -0.7568
vn -0.3126 0.4597 -0.8312
vn -0.7822 -0.3971 -0.4800
vn -0.6054 0.0809 -0.7918
vn -0.5280 -0.2877 -0.7990
vn -0.3179 -0.9402 0.1227
vn -0.3188 -0.9406 0.1168
vn 0.0548 -0.9805 0.1885
vn -0.8840 -0.3186 -0.3421
vn -0.8390 -0.3371 -0.4272
vn -0.2061 -0.3612 -0.9094
vn 0.5311 0.8434 0.0808
vn -0.3865 0.3784 0.8411
vn -0.2946 0.3624 0.8843
vn 0.4424 -0.3455 0.8276
vn 0.8017 0.3131 0.5092
vn 0.1190 -0.3675 0.9224
vn 0.6222 -0.2022 -0.7563
vn 0.5364 0.6377 -0.5528
vn 0.5393 0.7583 0.3662
vn 0.1047 0.5026 0.8582
vn -0.0775 0.2206 0.9723
vn -0.2043 -0.0138 0.9788
vn -0.4348 -0.5125 0.7404
vn 0.3213 -0.7293 0.6040
vn 0.1030 -0.8175 0.5666
vn 0.9072 -0.2238 -0.3562
vn 0.9151 -0.3897 -0.1033
vn 0.6598 -0.7476 0.0757
vn -0.6575 -0.4585 -0.5978
vn -0.8872 0.3858 0.2529
vn -0.9554 0.2950 -0.0102
vn -0.6202 0.6089 0.4945
vn 0.2191 0.7478 0.6268
vn 0.5170 0.6421 0.5660
vn -0.2227 -0.0355 0.9742
vn 0.7678 -0.1897 0.6119
vn -0.6089 -0.3370 0.7181
vn 0.2876 -0.0575 0.9560
vn 0.9414 0.3354 0.0346
vn 0.8389 0.3648 -0.4041
vn 0.3795 0.8525 0.3595
vn 0.8496 -0.2606 -0.4586
vn -0.1183 0.5170 -0.8478
vn 0.5248 0.8202 -0.2279
vn 0.7268 -0.5520 0.4087
vn 0.6241 -0.6310 -0.4609
vn -0.2839 -0.8823 0.3754
vn -0.5867 -0.7743 0.2370
vn 0.2863 -0.9383 -0.1940
vn 0.7834 -0.1608 0.6004
vn 0.2348 0.1339 0.9628
vn -0.9857 -0.1421 -0.0910
vn -0.9735 -0.2188 -0.0671
vn -0.9033 0.1126 -0.4139
vn -0.5974 -0.1512 0.7876
vn -0.8200 -0.2045 0.5346
vn -0.9415 -0.3085 -0.1356
vn -0.4394 -0.8983 0.0005
vn -0.4705 -0.6859 0.5551
vn 0.0785 -0.9891 -0.1246
vn -0.9922 -0.1205 0.0308
vn -0.8833 0.4662 -0.0504
vn -0.7683 -0.0570 -0.6376
vn 0.0968 0.3564 0.9293
vn -0.5337 0.6794 0.5036
vn -0.0160 0.8769 0.4804
vn -0.5145 0.5512 0.6568
vn -0.3096 -0.6376 -0.7054
vn 0.6597 0.7389 0.1374
vn 0.4761 0.7633 0.4366
vn -0.2798 0.5623 -0.7782
vn -0.3000 0.5956 -0.7451
vn -0.3015 0.9534 0.0091
vn 0.2595 0.0725 0.9630
vn 0.2648 -0.9028 0.3389
vn 0.2277 -0.5040 0.8331
vn -0.2348 -0.9323 0.2750
vn 0.5764 -0.4756 0.6645
vn 0.6737 -0.2919 0.6789
vn 0.0938 -0.9938 0.0602
vn 0.8508 -0.4099 -0.3290
vn 0.2015 -0.0252 -0.9792
vn -0.4795 -0.2858 -0.8297
vn -0.9648 0.1285 0.2293
vn -0.3953 -0.3121 0.8639
vn 0.2292 0.2771 -0.9331
vn 0.7535 0.2193 -0.6198
vn 0.9362 0.3417 -0.0826
vn -0.5755 -0.7572 0.3089
vn -0.1216 -0.9899 0.0730
vn -0.4290 -0.6779 -0.5970
vn 0.2941 0.8551 -0.4269
vn -0.2529 0.9446 0.2093
vn 0.9724 0.0420 0.2295
vn 0.8605 0.0281 0.5087
vn 0.6987 -0.6956 -0.1670
vn 0.3433 -0.9184 -0.1966
vn -0.6600 0.1676 -0.7323
vn -0.9788 -0.1624 -0.1245
vn -0.9348 0.1950 0.2968
vn -0.7655 0.3941 0.5086
vn -0.6518 0.4381 0.6190
vn 0.8650 0.4097 -0.2897
vn 0.9281 0.2039 -0.3115
vn 0.9270 0.2807 -0.2488
vn 0.7505 -0.6607 -0.0160
vn -0.1984 0.9206 -0.3364
vn -0.0149 0.6176 -0.7863
vn 0.3206 0.9346 0.1541
vn 0.1792 0.4814 0.8580
vn 0.4021 -0.4370 -0.8046
vn 0.0264 -0.6145 -0.7885
vn 0.0609 -0.8590 -0.5083
vn -0.1630 0.8177 -0.5521
vn 0.6428 0.2620 0.7198
vn 0.2062 0.5248 0.8259
vn 0.3876 -0.4076 0.8268
vn -0.4993 0.5850 0.6391
vn -0.0906 0.9389 -0.3321
vn 0.3985 -0.8921 -0.2133
vn -0.6590 0.7358 -0.1556
vn 0.6982 0.4665 0.5431
vn 0.6924 0.7176 0.0756
vn -0.2861 -0.7711 -0.5687
# 144 vertex normals

vt 0.6082 0.3768 0.0000
vt 0.6114 0.4516 0.0000
vt 0.5361 0.3351 0.0000
vt 0.1761 0.6338 0.0000
vt 0.2098 0.5647 0.0000
vt 0.2725 0.6263 0.0000
vt 0.9396 0.0973 0.0000
vt 0.9712 0.1755 0.0000
vt 0.9388 0.1644 0.0000
vt 0.5983 0.1224 0.0000
vt 0.5698 0.2210 0.0000
vt 0.4769 0.2020 0.0000
vt 0.3472 0.7208 0.0000
vt 0.3381 0.8387 0.0000
vt 0.2724 0.7960 0.0000
vt 0.9588 0.2602 0.0000
vt 0.9616 0.3388 0.0000
vt 0.8964 0.3529 0.0000
vt 0.3511 0.8954 0.0000
vt 0.3649 0.8088 0.0000
vt 0.4604 0.8629 0.0000
vt 0.4142 0.5574 0.0000
vt 0.4579 0.6648 0.0000
vt 0.3939 0.5858 0.0000
vt 0.5972 0.0760 0.0000
vt 0.6404 0.0315 0.0000
vt 0.6563 0.0491 0.0000
vt 0.3962 0.4691 0.0000
vt 0.3970 0.5453 0.0000
vt 0.2693 0.5279 0.0000
vt 0.6435 0.4447 0.0000
vt 0.6861 0.3455 0.0000
vt 0.6877 0.4242 0.0000
vt 0.7822 0.1508 0.0000
vt 0.8634 0.2186 0.0000
vt 0.7187 0.1977 0.0000
vt 0.1440 0.7740 0.0000
vt 0.2163 0.9062 0.0000
vt 0.1644 0.9165 0.0000
vt 0.7754 0.4520 0.0000
vt 0.8421 0.3767 0.0000
vt 0.8347 0.4186 0.0000
vt 0.7689 0.0763 0.0000
vt 0.8159 0.0888 0.0000
vt 0.7400 0.0882 0.0000
vt 0.0619 0.5895 0.0000
vt 0.0825 0.4977 0.0000
vt 0.1702 0.4792 0.0000
vt 0.5143 0.5484 0.0000
vt 0.5751 0.4538 0.0000
vt 0.5429 0.4461 0.0000
vt 0.6406 0.5341 0.0000
vt 0.8163 0.5035 0.0000
vt 0.8376 0.4751 0.0000
vt 0.6798 0.3065 0.0000
vt 0.7484 0.2281 0.0000
vt 0.5999 0.2129 0.0000
vt 0.6697 0.1373 0.0000
vt 0.9743 0.4124 0.0000
vt 0.9687 0.4877 0.0000
vt 0.9043 0.5011 0.0000
vt 0.1517 0.5362 0.0000
vt 0.2810 0.8783 0.0000
vt 0.2584 0.9619 0.0000
vt 0.2189 0.4019 0.0000
vt 0.1503 0.4620 0.0000
vt 0.2680 0.3743 0.0000
vt 0.3493 0.4205 0.0000
vt 0.2553 0.4150 0.0000
vt 0.8491 0.2996 0.0000
vt 0.7693 0.2683 0.0000
vt 0.5734 0.5992 0.0000
vt 0.5754 0.6866 0.0000
vt 0.5378 0.6755 0.0000
vt 0.5728 0.2574 0.0000
vt 0.4720 0.2626 0.0000
vt 0.4609 0.1697 0.0000
vt 0.5126 0.0728 0.0000
vt 0.5396 0.0996 0.0000
vt 0.5767 0.0606 0.0000
vt 0.5613 0.7285 0.0000
vt 0.5144 0.8359 0.0000
vt 0.5101 0.7890 0.0000
vt 0.7357 0.3919 0.0000
vt 0.6899 0.4603 0.0000
vt 0.6197 0.4627 0.0000
vt 0.7136 0.5303 0.0000
vt 0.3325 0.4444 0.0000
vt 0.8798 0.4881 0.0000
vt 0.8854 0.4466 0.0000
vt 0.3652 0.9447 0.0000
vt 0.4534 0.9195 0.0000
vt 0.7101 0.5569 0.0000
vt 0.8115 0.3052 0.0000
vt 0.6913 0.0705 0.0000
vt 0.7067 0.1276 0.0000
vt 0.6195 0.0834 0.0000
vt 0.7501 0.1201 0.0000
vt 0.8431 0.1306 0.0000
vt 0.7596 0.0294 0.0000
vt 0.8796 0.0830 0.0000
vt 0.2441 0.7169 0.0000
vt 0.3262 0.6544 0.0000
vt 0.6289 0.3199 0.0000
vt 0.6320 0.2218 0.0000
vt 0.2075 0.7821 0.0000
vt 0.1070 0.7336 0.0000
vt 0.9955 0.3417 0.0000
vt 0.3328 0.3613 0.0000
vt 0.3979 0.4023 0.0000
vt 0.4144 0.4584 0.0000
vt 0.8182 0.5674 0.0000
vt 0.7853 0.5464 0.0000
vt 0.7416 0.5527 0.0000
vt 0.8902 0.2043 0.0000
vt 0.9100 0.2111 0.0000
vt 0.8745 0.1084 0.0000
vt 0.7017 0.0226 0.0000
vt 0.2349 0.3887 0.0000
vt 0.4559 0.7191 0.0000
vt 0.4666 0.3357 0.0000
vt 0.4552 0.3186 0.0000
vt 0.5280 0.4710 0.0000
vt 0.4432 0.3714 0.0000
vt 0.4942 0.3888 0.0000
vt 0.1147 0.7892 0.0000
vt 0.0438 0.7192 0.0000
vt 0.0015 0.7399 0.0000
vt 0.0870 0.7980 0.0000
vt 0.0184 0.7927 0.0000
vt 0.0807 0.4437 0.0000
vt 0.3087 0.9568 0.0000
vt 0.2638 0.9348 0.0000
vt 0.8741 0.5202 0.0000
vt 0.9042 0.5367 0.0000
vt 0.8056 0.3481 0.0000
vt 0.1801 0.5105 0.0000
vt 0.2359 0.4552 0.0000
vt 0.7689 0.0049 0.0000
vt 0.7598 0.5812 0.0000
vt 0.8340 0.2796 0.0000
vt 0.7605 0.5190 0.0000
vt 0.7317 0.1634 0.0000
vt 0.6804 0.4655 0.0000
vt 0.4831 0.4376 0.0000
vt 0.5804 0.0246 0.0000
vt 0.4239 0.3257 0.0000
vt 0.4419 0.2442 0.0000
vt 0.3104 0.9813 0.0000
vt 0.3867 0.9977 0.0000
vt 0.6557 0.0719 0.0000
vt 0.6769 0.5796 0.0000
vt 0.6170 0.5642 0.0000
vt 0.8895 0.4092 0.0000
vt 0.8128 0.5143 0.0000
vt 0.2094 0.3679 0.0000
vt 0.6446 0.0046 0.0000
vt 0.2913 0.4380 0.0000
vt 0.0417 0.5080 0.0000
vt 0.0157 0.5806 0.0000
vt 0.0768 0.8534 0.0000
vt 0.4437 0.9648 0.0000
vt 0.5312 0.8700 0.0000
vt 0.5530 0.5286 0.0000
vt 0.8947 0.0481 0.0000
# 165 texture coords

g Sphere001
usemtl Material__77
s 1
f 1/1/1 2/2/2 3/3/3 
f 4/4/4 5/5/5 6/6/6 
f 7/7/7 8/8/8 9/9/9 
f 10/10/10 11/11/11 12/12/12 
f 13/13/13 14/14/14 15/15/15 
f 16/16/16 17/17/17 18/18/18 
f 19/19/19 20/20/20 21/21/21 
f 22/22/22 23/23/23 24/24/24 
f 25/25/25 26/26/26 27/27/27 
f 28/28/28 29/29/29 30/30/30 
f 31/31/31 32/32/32 33/33/33 
f 34/34/34 35/35/35 36/36/36 
f 37/37/37 38/38/38 39/39/39 
f 40/40/40 41/41/41 42/42/42 
f 43/43/43 44/44/44 45/45/45 
f 46/46/46 47/47/47 48/48/48 
f 23/23/23 22/22/22 49/49/49 
f 3/3/3 50/50/50 51/51/51 
f 52/52/52 51/51/51 50/50/50 
f 53/53/53 40/40/40 54/54/54 
f 55/55/55 36/36/36 56/56/56 
f 57/57/57 10/10/10 58/58/58 
f 59/59/59 60/60/60 61/61/61 
f 62/62/62 4/4/4 46/46/46 
f 20/20/20 19/19/19 63/63/63 
f 64/64/64 39/39/39 38/38/38 
f 65/65/65 48/48/48 66/66/66 
f 67/67/67 68/68/68 69/69/69 
f 18/18/18 70/70/70 16/16/16 
f 71/71/71 36/36/36 35/35/35 
f 72/72/72 73/73/73 74/74/74 
f 75/75/75 3/3/3 76/76/76 
f 77/77/77 78/78/78 79/79/79 
f 26/26/26 25/25/25 80/80/80 
f 81/81/81 82/82/82 83/83/83 
f 83/83/83 21/21/21 20/20/20 
f 84/84/84 40/40/40 85/85/85 
f 86/86/86 87/87/87 52/52/52 
f 46/46/46 48/48/48 62/62/62 
f 30/30/30 88/88/88 28/28/28 
f 89/89/89 90/90/90 59/59/59 
f 90/90/90 54/54/54 40/40/40 
f 91/91/91 21/21/21 92/92/92 
f 93/93/93 52/52/52 87/87/87 
f 41/41/41 94/94/94 18/18/18 
f 84/84/84 55/55/55 71/71/71 
f 95/95/95 96/96/96 97/97/97 
f 45/45/45 34/34/34 98/98/98 
f 35/35/35 34/34/34 99/99/99 
f 100/100/100 101/101/101 44/44/44 
f 6/6/6 13/13/13 102/102/102 
f 13/13/13 103/103/103 23/23/23 
f 75/75/75 1/1/1 3/3/3 
f 104/104/104 105/105/105 36/36/36 
f 106/106/106 102/102/102 13/13/13 
f 37/37/37 107/107/107 102/102/102 
f 8/8/8 108/108/108 16/16/16 
f 107/107/107 46/46/46 4/4/4 
f 109/109/109 110/110/110 68/68/68 
f 111/111/111 49/49/49 22/22/22 
f 79/79/79 12/12/12 77/77/77 
f 49/49/49 72/72/72 74/74/74 
f 89/89/89 64/112/64 112/113/112 
f 87/87/87 113/114/113 93/93/93 
f 70/70/70 114/115/114 115/116/115 
f 115/116/115 114/115/114 116/117/116 
f 67/118/67 43/43/43 45/45/45 
f 69/69/69 117/119/117 67/67/67 
f 23/23/23 118/120/118 13/13/13 
f 74/74/74 81/81/81 118/120/118 
f 76/76/76 119/121/119 120/122/120 
f 121/123/121 81/124/81 122/125/122 
f 107/107/107 37/37/37 123/126/123 
f 39/39/39 123/126/123 37/37/37 
f 124/127/124 108/128/108 46/46/46 
f 124/127/124 125/129/125 59/130/59 
f 65/65/65 66/66/66 126/131/126 
f 9/9/9 101/101/101 7/7/7 
f 15/15/15 63/63/63 38/38/38 
f 127/132/127 128/133/128 63/63/63 
f 59/59/59 61/61/61 89/89/89 
f 64/112/64 129/134/129 39/135/39 
f 94/94/94 130/136/130 84/84/84 
f 40/40/40 84/84/84 41/41/41 
f 4/4/4 62/62/62 5/5/5 
f 131/137/131 132/138/132 30/30/30 
f 67/118/67 133/139/133 100/100/100 
f 101/101/101 100/100/100 133/139/133 
f 127/132/127 63/63/63 19/19/19 
f 134/140/134 112/113/112 64/112/64 
f 70/70/70 18/18/18 94/94/94 
f 35/35/35 135/141/135 71/71/71 
f 83/83/83 82/82/82 21/21/21 
f 92/92/92 21/21/21 82/82/82 
f 44/44/44 99/99/99 34/34/34 
f 34/34/34 45/45/45 44/44/44 
f 22/22/22 28/28/28 111/111/111 
f 28/28/28 22/22/22 29/29/29 
f 113/114/113 87/87/87 136/142/136 
f 85/85/85 136/142/136 87/87/87 
f 36/36/36 96/96/96 137/143/137 
f 96/96/96 36/36/36 105/105/105 
f 131/137/131 48/48/48 132/138/132 
f 48/48/48 65/65/65 69/69/69 
f 96/96/96 95/95/95 45/45/45 
f 45/45/45 95/95/95 67/118/67 
f 138/144/138 86/86/86 31/31/31 
f 50/50/50 3/3/3 2/2/2 
f 49/49/49 111/111/111 78/145/78 
f 26/26/26 80/80/80 110/146/110 
f 136/142/136 112/113/112 113/114/113 
f 134/140/134 113/114/113 112/113/112 
f 16/16/16 9/9/9 8/8/8 
f 115/116/115 16/16/16 70/70/70 
f 55/55/55 84/84/84 32/32/32 
f 105/105/105 104/104/104 1/1/1 
f 73/147/73 72/148/72 76/76/76 
f 76/76/76 12/12/12 11/11/11 
f 20/20/20 118/120/118 83/83/83 
f 83/83/83 118/120/118 81/81/81 
f 24/24/24 23/23/23 103/103/103 
f 30/30/30 24/24/24 6/6/6 
f 13/13/13 20/20/20 14/14/14 
f 20/20/20 13/13/13 118/120/118 
f 134/149/134 127/132/127 91/91/91 
f 134/149/134 91/91/91 139/150/139 
f 38/38/38 37/37/37 106/106/106 
f 102/102/102 106/106/106 37/37/37 
f 12/12/12 79/79/79 10/10/10 
f 27/27/27 140/151/140 25/25/25 
f 46/46/46 107/107/107 124/127/124 
f 125/129/125 124/127/124 107/107/107 
f 76/76/76 11/11/11 75/75/75 
f 10/10/10 57/57/57 11/11/11 
f 52/52/52 93/93/93 139/152/139 
f 52/52/52 141/153/141 121/123/121 
f 9/9/9 116/117/116 101/101/101 
f 116/117/116 44/44/44 101/101/101 
f 49/49/49 74/74/74 23/23/23 
f 118/120/118 23/23/23 74/74/74 
f 18/18/18 142/154/142 41/41/41 
f 142/154/142 18/18/18 17/17/17 
f 90/90/90 89/89/89 54/54/54 
f 143/155/143 54/54/54 89/89/89 
f 126/131/126 133/156/133 65/65/65 
f 117/119/117 69/69/69 65/65/65 
f 51/51/51 52/52/52 121/123/121 
f 122/125/122 51/51/51 121/123/121 
f 67/67/67 109/109/109 68/68/68 
f 110/146/110 109/157/109 26/26/26 
f 51/51/51 122/125/122 3/3/3 
f 76/76/76 3/3/3 122/125/122 
f 132/138/132 144/158/144 30/30/30 
f 144/158/144 69/69/69 68/68/68 
f 71/71/71 94/94/94 84/84/84 
f 94/94/94 71/71/71 135/141/135 
f 31/31/31 2/2/2 32/32/32 
f 86/86/86 2/2/2 31/31/31 
f 46/46/46 7/159/7 47/47/47 
f 7/159/7 126/131/126 47/47/47 
f 17/17/17 59/59/59 90/90/90 
f 16/16/16 108/108/108 17/17/17 
f 38/38/38 128/133/128 64/64/64 
f 38/38/38 63/63/63 128/133/128 
f 102/102/102 4/4/4 6/6/6 
f 4/4/4 102/102/102 107/107/107 
f 112/113/112 143/155/143 89/89/89 
f 112/113/112 136/142/136 143/155/143 
f 27/27/27 95/95/95 140/151/140 
f 67/118/67 95/95/95 27/27/27 
f 72/148/72 77/77/77 12/12/12 
f 76/76/76 72/148/72 12/12/12 
f 63/63/63 14/14/14 20/20/20 
f 63/63/63 15/15/15 14/14/14 
f 135/141/135 35/35/35 114/115/114 
f 99/99/99 114/115/114 35/35/35 
f 2/2/2 1/1/1 32/32/32 
f 104/104/104 32/32/32 1/1/1 
f 128/133/128 127/132/127 64/64/64 
f 134/149/134 64/64/64 127/132/127 
f 10/10/10 25/25/25 97/97/97 
f 97/97/97 58/58/58 10/10/10 
f 40/40/40 143/155/143 136/142/136 
f 136/142/136 85/85/85 40/40/40 
f 81/124/81 120/122/120 119/121/119 
f 76/76/76 120/122/120 73/147/73 
f 7/159/7 46/46/46 8/160/8 
f 108/128/108 8/160/8 46/46/46 
f 75/75/75 11/11/11 57/57/57 
f 1/1/1 75/75/75 105/105/105 
f 78/145/78 111/111/111 110/110/110 
f 110/110/110 111/111/111 68/68/68 
f 125/129/125 60/161/60 59/130/59 
f 39/39/39 60/161/60 123/126/123 
f 5/5/5 131/137/131 30/30/30 
f 30/30/30 6/6/6 5/5/5 
f 141/162/141 139/150/139 91/91/91 
f 139/152/139 141/153/141 52/52/52 
f 92/92/92 82/82/82 121/163/121 
f 121/163/121 82/82/82 81/81/81 
f 98/98/98 137/143/137 96/96/96 
f 98/98/98 96/96/96 45/45/45 
f 72/72/72 49/49/49 77/164/77 
f 78/145/78 77/164/77 49/49/49 
f 68/68/68 28/28/28 88/88/88 
f 28/28/28 68/68/68 111/111/111 
f 87/87/87 86/86/86 138/144/138 
f 87/87/87 138/144/138 85/85/85 
f 33/33/33 85/85/85 31/31/31 
f 31/31/31 85/85/85 138/144/138 
f 78/78/78 110/146/110 80/80/80 
f 80/80/80 79/79/79 78/78/78 
f 90/90/90 142/154/142 17/17/17 
f 40/40/40 42/42/42 90/90/90 
f 65/65/65 133/156/133 117/119/117 
f 67/67/67 117/119/117 133/156/133 
f 44/44/44 43/43/43 100/100/100 
f 43/43/43 67/118/67 100/100/100 
f 47/47/47 126/131/126 66/66/66 
f 66/66/66 48/48/48 47/47/47 
f 24/24/24 29/29/29 22/22/22 
f 24/24/24 30/30/30 29/29/29 
f 69/69/69 132/138/132 48/48/48 
f 69/69/69 144/158/144 132/138/132 
f 133/139/133 126/165/126 101/101/101 
f 126/165/126 7/7/7 101/101/101 
f 48/48/48 131/137/131 62/62/62 
f 131/137/131 5/5/5 62/62/62 
f 103/103/103 6/6/6 24/24/24 
f 13/13/13 6/6/6 103/103/103 
f 119/121/119 122/125/122 81/124/81 
f 122/125/122 119/121/119 76/76/76 
f 114/115/114 99/99/99 116/117/116 
f 44/44/44 116/117/116 99/99/99 
f 116/117/116 9/9/9 115/116/115 
f 9/9/9 16/16/16 115/116/115 
f 140/151/140 97/97/97 25/25/25 
f 97/97/97 140/151/140 95/95/95 
f 33/33/33 32/32/32 84/84/84 
f 85/85/85 33/33/33 84/84/84 
f 32/32/32 104/104/104 55/55/55 
f 36/36/36 55/55/55 104/104/104 
f 81/81/81 74/74/74 73/73/73 
f 81/124/81 73/147/73 120/122/120 
f 36/36/36 71/71/71 56/56/56 
f 56/56/56 71/71/71 55/55/55 
f 70/70/70 135/141/135 114/115/114 
f 94/94/94 135/141/135 70/70/70 
f 67/118/67 27/27/27 26/26/26 
f 67/118/67 26/26/26 109/157/109 
f 13/13/13 15/15/15 106/106/106 
f 38/38/38 106/106/106 15/15/15 
f 60/60/60 39/135/39 61/61/61 
f 61/61/61 39/135/39 129/134/129 
f 2/2/2 86/86/86 50/50/50 
f 50/50/50 86/86/86 52/52/52 
f 59/130/59 108/128/108 124/127/124 
f 108/108/108 59/59/59 17/17/17 
f 19/19/19 91/91/91 127/132/127 
f 91/91/91 19/19/19 21/21/21 
f 25/25/25 10/10/10 79/79/79 
f 79/79/79 80/80/80 25/25/25 
f 137/143/137 98/98/98 34/34/34 
f 36/36/36 137/143/137 34/34/34 
f 57/57/57 105/105/105 75/75/75 
f 105/105/105 57/57/57 96/96/96 
f 92/92/92 141/162/141 91/91/91 
f 121/163/121 141/162/141 92/92/92 
f 94/94/94 41/41/41 130/136/130 
f 130/136/130 41/41/41 84/84/84 
f 134/140/134 93/93/93 113/114/113 
f 134/140/134 139/152/139 93/93/93 
f 143/155/143 53/53/53 54/54/54 
f 143/155/143 40/40/40 53/53/53 
f 129/134/129 89/89/89 61/61/61 
f 64/112/64 89/89/89 129/134/129 
f 58/58/58 97/97/97 96/96/96 
f 57/57/57 58/58/58 96/96/96 
f 30/30/30 144/158/144 88/88/88 
f 88/88/88 144/158/144 68/68/68 
f 60/161/60 125/129/125 123/126/123 
f 107/107/107 123/126/123 125/129/125 
f 42/42/42 41/41/41 142/154/142 
f 142/154/142 90/90/90 42/42/42 
# 0 polygons - 284 triangles

