# Blender v2.75 (sub 0) OBJ File: 'Rocky gem.blend'
# www.blender.org
o Rocky_Gem_Long_SpaceGem_Same_Cylinder
v -0.218076 0.134261 -0.085345
v -0.218076 1.017812 -0.085345
v -0.057839 1.063842 -0.236040
v -0.057838 0.134261 -0.236040
v 0.152787 0.935326 -0.172618
v -0.007451 1.137685 -0.021922
v -0.167689 0.134261 0.128773
v -0.167689 0.841129 0.128773
v 0.152787 0.134261 -0.172618
v 0.042936 0.134261 0.192195
v 0.042936 0.841129 0.192195
v 0.203173 0.935326 0.041500
v 0.203173 0.134261 0.041500
v -0.269145 -0.027720 0.238511
v -0.438135 0.377705 0.376728
v -0.260480 0.720235 0.357670
v -0.203694 0.037835 0.086980
v -0.085264 0.742295 0.338815
v -0.203028 0.760131 0.582564
v -0.159380 -0.071214 0.371187
v -0.218224 0.426212 0.648711
v -0.028478 0.059895 0.068125
v 0.015836 -0.049154 0.352331
v -0.040950 0.510210 0.623021
v 0.024501 0.575765 0.471490
v 0.081287 0.016401 0.200800
v 0.145368 0.052312 0.312768
v 0.166089 0.407930 0.349001
v 0.278956 0.513633 0.230475
v 0.148702 0.045111 0.217260
v -0.277618 0.080053 -0.046409
v -0.324146 0.348870 -0.013310
v -0.261098 0.348817 0.052143
v -0.214569 0.080000 0.019044
v -0.285260 0.334051 0.138499
v -0.359552 0.416231 0.083943
v -0.364830 0.065341 -0.025506
v -0.411358 0.334158 0.007593
v -0.238732 0.065234 0.105400
v -0.388992 0.050576 0.060850
v -0.435521 0.319393 0.093950
v -0.372472 0.319339 0.159403
v -0.325944 0.050522 0.126303
v -0.203834 0.069504 -0.204281
v -0.341869 0.305378 -0.233138
v -0.272171 0.347757 -0.193069
v -0.134136 0.111882 -0.164211
v -0.271675 0.359134 -0.102905
v -0.380705 0.389979 -0.151998
v -0.273036 0.038505 -0.154186
v -0.411071 0.274381 -0.183044
v -0.133640 0.123260 -0.074047
v -0.272540 0.049884 -0.064023
v -0.410575 0.285758 -0.092880
v -0.340876 0.328135 -0.052810
v -0.202842 0.092261 -0.023953
v -0.165557 0.459006 -0.233467
v -0.121341 0.454882 -0.260888
v -0.159956 0.510547 -0.281856
v -0.167699 0.467269 -0.337500
v -0.211914 0.471392 -0.310079
v -0.122412 0.459014 -0.312905
v -0.210843 0.467261 -0.258062
v -0.181780 0.302493 -0.245650
v -0.227066 0.310748 -0.270245
v -0.137564 0.298370 -0.273071
v -0.228137 0.314880 -0.322261
v -0.138635 0.302501 -0.325087
v -0.183921 0.310756 -0.349682
v 0.374767 0.484403 0.163890
v 0.422861 0.552532 0.310333
v 0.272491 0.003278 0.352122
v 0.330625 0.378729 0.390759
v 0.279158 -0.011124 0.161107
v 0.402948 -0.052957 0.295969
v 0.470326 0.361417 0.319462
v 0.473660 0.354216 0.223955
v 0.406282 -0.060158 0.200461
v 0.760590 0.064311 -0.175687
v 0.438829 0.293098 -0.181173
v 0.614788 0.083894 0.123093
v 0.646502 -0.245899 -0.340141
v 0.826410 -0.101007 -0.390121
v 0.755866 -0.196365 0.129336
v 0.765684 -0.016087 0.146050
v 0.529001 -0.329788 0.043391
v 0.303389 0.147410 0.254931
v -0.216736 0.149068 0.184239
v 0.111870 0.053282 0.456420
v 0.649526 -0.048317 0.308724
v 0.574035 0.049583 0.218661
v 0.441810 -0.054176 0.464144
v 0.306680 -0.330690 0.132587
v 0.443800 -0.186549 0.346013
v 0.098070 -0.247950 0.418759
v -0.103144 -0.109476 0.492660
v -0.556415 -0.072235 0.318402
v -0.392369 -0.196540 0.336967
v -0.291188 -0.329581 0.221993
v 0.150556 0.199678 -0.059236
v 0.132324 -0.382389 -0.063397
v 0.560274 -0.326800 -0.500498
v 0.665040 -0.130987 -0.631054
v 0.603305 0.052294 -0.580402
v 0.222624 0.223033 -0.089720
v 0.294692 0.246388 -0.120204
v 0.366760 0.269742 -0.150689
v 0.360549 0.018663 -0.806173
v 0.176055 -0.191563 -0.819662
v -0.134770 0.042640 -0.893490
v 0.011195 -0.330981 -0.540941
v 0.185380 0.326133 -0.529085
v -0.573644 -0.109951 -0.636905
v -0.353393 -0.247395 -0.672569
v -0.677738 -0.197417 -0.315523
v -0.079407 0.394040 -0.349111
v -0.141016 0.467211 -0.419160
v -0.184988 0.408674 -0.342019
v -0.326807 -0.331006 -0.237531
v -0.710925 0.049505 -0.393755
v -0.021916 0.342243 -0.276642
v -0.499575 -0.246665 0.116293
v -0.639602 0.062331 0.005790
v -0.649630 -0.114199 0.185963
v -0.501732 0.262932 -0.320741
v 0.309270 0.421561 -0.223157
v 0.057575 0.307870 -0.554140
v -0.325841 0.253083 -0.629304
v 0.119183 0.354709 -0.484092
v 0.248742 0.317874 -0.442107
v 0.052987 0.456448 -0.439098
v -0.074818 0.372681 -0.464153
v -0.013210 0.375592 -0.394105
v -0.008622 0.331517 -0.509146
v -0.070230 0.289608 -0.579194
v -0.198036 0.271345 -0.604249
v -0.136428 0.347054 -0.534201
v 0.312105 0.309615 -0.355129
v 0.245908 0.485398 -0.310136
v 0.375467 0.301356 -0.268151
v 0.182546 0.344222 -0.397114
v 0.116349 0.389456 -0.352120
v 0.165133 0.270727 -0.162189
v 0.237201 0.499623 -0.192673
v 0.179711 0.466371 -0.265142
v 0.050152 0.429414 -0.307127
v 0.107643 0.356107 -0.234658
v 0.035575 0.390541 -0.204174
v -0.070007 0.261150 -0.197081
v 0.093066 0.241069 -0.131704
v -0.127497 0.356877 -0.269550
v -0.290569 0.423307 -0.334926
v -0.396151 0.347662 -0.327833
v -0.233079 0.327580 -0.262457
v -0.352178 0.355862 -0.404974
v -0.246597 0.405762 -0.412067
v -0.202624 0.388217 -0.489208
v -0.264233 0.362500 -0.559256
v -0.308205 0.326764 -0.482115
v -0.369814 0.255545 -0.552163
v -0.413787 0.258007 -0.475023
v -0.457759 0.260469 -0.397882
v -0.338660 0.251934 -0.255365
v -0.175588 0.231853 -0.189989
v -0.012516 0.211772 -0.124612
vt 0.879623 0.767807
vt 0.879623 0.897602
vt 0.841344 0.897602
vt 0.841344 0.767807
vt 0.828988 0.985964
vt 0.783228 0.985964
vt 0.806108 0.946334
vt 0.917901 0.767807
vt 0.917901 0.897602
vt 0.803066 0.897602
vt 0.803066 0.767807
vt 0.956179 0.767807
vt 0.956179 0.897602
vt 0.764788 0.897602
vt 0.764788 0.767807
vt 0.994457 0.767807
vt 0.994457 0.897602
vt 0.783228 0.906705
vt 0.828988 0.906705
vt 0.851868 0.946334
vt 0.760347 0.946334
vt 0.139364 0.767807
vt 0.139364 0.897602
vt 0.101086 0.897602
vt 0.101086 0.767807
vt 0.088730 0.985964
vt 0.042969 0.985964
vt 0.065849 0.946334
vt 0.177642 0.767807
vt 0.177642 0.897602
vt 0.062808 0.897602
vt 0.062808 0.767807
vt 0.215921 0.767807
vt 0.215921 0.897602
vt 0.024530 0.897602
vt 0.024530 0.767807
vt 0.254199 0.767807
vt 0.254199 0.897602
vt 0.042969 0.906705
vt 0.088730 0.906705
vt 0.111610 0.946334
vt 0.020089 0.946334
vt 0.633419 0.767807
vt 0.633419 0.897602
vt 0.595141 0.897602
vt 0.595141 0.767807
vt 0.389635 0.767807
vt 0.389635 0.897602
vt 0.351356 0.897602
vt 0.351356 0.767807
vt 0.339000 0.985964
vt 0.293240 0.985964
vt 0.316120 0.946334
vt 0.427913 0.767807
vt 0.427913 0.897602
vt 0.313078 0.897602
vt 0.313078 0.767807
vt 0.466191 0.767807
vt 0.466191 0.897602
vt 0.274800 0.897602
vt 0.274800 0.767807
vt 0.504469 0.767807
vt 0.504469 0.897602
vt 0.293240 0.906705
vt 0.339000 0.906705
vt 0.361880 0.946334
vt 0.270359 0.946334
vt 0.582784 0.985964
vt 0.537024 0.985964
vt 0.559904 0.946334
vt 0.671697 0.767807
vt 0.671697 0.897602
vt 0.556863 0.897602
vt 0.556863 0.767807
vt 0.709975 0.767807
vt 0.709975 0.897602
vt 0.518584 0.897602
vt 0.518584 0.767807
vt 0.748253 0.767807
vt 0.748253 0.897602
vt 0.537024 0.906705
vt 0.582784 0.906705
vt 0.605664 0.946334
vt 0.514144 0.946334
vt 0.093257 0.382302
vt 0.071831 0.469217
vt 0.135920 0.414161
vt 0.105281 0.304776
vt 0.078269 0.340248
vt 0.150166 0.367327
vt 0.139517 0.388685
vt 0.175376 0.336035
vt 0.173577 0.452401
vt 0.246530 0.544679
vt 0.219812 0.451668
vt 0.163521 0.395748
vt 0.152867 0.414327
vt 0.191237 0.409515
vt 0.219124 0.343326
vt 0.195457 0.386181
vt 0.248193 0.402792
vt 0.265846 0.443973
vt 0.369382 0.519488
vt 0.349505 0.458055
vt 0.350359 0.398634
vt 0.125024 0.519929
vt 0.255106 0.290266
vt 0.092200 0.256918
vt 0.026624 0.295324
vt 0.001346 0.352139
vt 0.111741 0.507783
vt 0.098395 0.495342
vt 0.085052 0.482509
vt 0.375906 0.156814
vt 0.327077 0.176835
vt 0.298417 0.119660
vt 0.275631 0.209034
vt 0.379125 0.278095
vt 0.400129 0.048260
vt 0.453428 0.179155
vt 0.431012 0.231555
vt 0.219277 0.305760
vt 0.225685 0.123934
vt 0.246970 0.153178
vt 0.184218 0.141507
vt 0.658237 0.482784
vt 0.591392 0.469935
vt 0.616388 0.421285
vt 0.195071 0.198746
vt 0.187491 0.105276
vt 0.728355 0.479163
vt 0.121170 0.181829
vt 0.102303 0.237257
vt 0.064249 0.197223
vt 0.128024 0.110523
vt 0.107435 0.145959
vt 0.073629 0.146694
vt 0.056428 0.056168
vt 0.184013 0.049872
vt 0.948090 0.705596
vt 0.849492 0.638768
vt 0.961287 0.651099
vt 0.366431 0.044312
vt 0.263866 0.045491
vt 0.637571 0.730318
vt 0.637232 0.667544
vt 0.719182 0.733328
vt 0.560988 0.667649
vt 0.648612 0.598997
vt 0.581641 0.542010
vt 0.651470 0.541640
vt 0.565108 0.608031
vt 0.490637 0.599339
vt 0.422315 0.526378
vt 0.511665 0.528355
vt 0.797904 0.732628
vt 0.799488 0.633290
vt 0.874767 0.725858
vt 0.716751 0.672421
vt 0.716191 0.604789
vt 0.971161 0.581734
vt 0.887280 0.507079
vt 0.970403 0.511491
vt 0.833470 0.601686
vt 0.797691 0.598896
vt 0.729048 0.548594
vt 0.798619 0.517735
vt 0.779589 0.472099
vt 0.777402 0.381764
vt 0.883607 0.443446
vt 0.690922 0.418091
vt 0.582173 0.372669
vt 0.552041 0.304180
vt 0.654216 0.348246
vt 0.520192 0.353384
vt 0.557291 0.416614
vt 0.524843 0.467307
vt 0.464393 0.456969
vt 0.480048 0.398674
vt 0.397846 0.380688
vt 0.431208 0.322537
vt 0.369026 0.442741
vt 0.469694 0.267292
vt 0.514319 0.216274
vt 0.629640 0.265810
vt 0.739847 0.316642
vt 0.848928 0.372998
vt 0.963030 0.442916
vt 0.332652 0.041791
vt 0.298393 0.041790
vt 0.430406 0.050617
vt 0.460682 0.052974
vt 0.490959 0.055331
vt 0.521236 0.057689
vt 0.203883 0.047311
vt 0.223789 0.046003
vt 0.243757 0.045493
vt 0.925698 0.111798
vn -0.685100 -0.000000 -0.728500
vn 0.562400 0.731900 -0.384800
vn -0.973400 -0.000000 0.229100
vn 0.288300 0.000000 -0.957500
vn -0.288300 -0.000000 0.957500
vn 0.973400 0.000000 -0.229100
vn 0.685100 -0.000000 0.728500
vn -0.242600 0.540500 0.805600
vn 0.343700 0.587400 0.732700
vn -0.438800 0.876300 -0.198900
vn -0.522200 0.593400 0.612500
vn 0.708800 0.685400 -0.166800
vn -0.697800 0.120600 -0.706000
vn -0.138400 0.980600 -0.138600
vn -0.694200 -0.438100 0.571000
vn -0.144100 0.354500 -0.923900
vn 0.238600 -0.426500 0.872500
vn 0.308400 -0.643800 0.700300
vn 0.836800 0.281300 -0.469700
vn 0.927400 -0.082400 0.364900
vn 0.051100 0.191800 0.980100
vn -0.182300 0.010000 0.983200
vn 0.676700 0.522800 0.518400
vn -0.875500 0.462000 0.141700
vn -0.781500 0.155300 0.604200
vn 0.683200 0.674000 0.280800
vn -0.896900 0.188300 -0.400200
vn 0.704900 0.205600 -0.678800
vn 0.602900 0.741100 0.295400
vn -0.244600 0.076700 -0.966600
vn 0.949000 0.128900 0.287600
vn -0.949100 -0.128900 -0.287600
vn 0.244600 -0.076700 0.966600
vn -0.704900 -0.205600 0.678800
vn -0.787200 0.605500 -0.116700
vn -0.607400 0.537000 0.585500
vn 0.423000 0.809700 -0.406800
vn -0.272000 0.741900 -0.612900
vn 0.087700 0.604800 0.791600
vn 0.427600 0.141000 -0.892900
vn 0.320000 0.939700 -0.120300
vn -0.437500 -0.357000 -0.825300
vn 0.864700 0.497800 -0.067600
vn -0.864700 -0.497800 0.067600
vn 0.437500 0.357000 0.825300
vn -0.427600 -0.141000 0.892900
vn -0.965000 0.260900 -0.027600
vn -0.640300 0.509600 0.574800
vn -0.004700 0.691100 -0.722800
vn -0.647200 0.351700 -0.676400
vn 0.002200 0.849000 0.528400
vn 0.468600 0.577000 0.668900
vn -0.278200 0.776600 -0.565300
vn 0.442800 0.676900 -0.588100
vn -0.252300 0.676800 0.691600
vn -0.625700 0.776500 0.074500
vn -0.479800 -0.018500 0.877200
vn 0.515200 -0.119500 0.848700
vn -0.994500 0.100900 0.028500
vn 0.994500 -0.100900 -0.028500
vn -0.515200 0.119500 -0.848700
vn 0.816200 0.577100 0.029000
vn 0.479800 0.018500 -0.877200
vn -0.013500 0.908300 -0.418100
vn -0.284000 -0.067300 0.956400
vn -0.438800 0.117600 -0.890800
vn 0.392700 -0.134000 0.909800
vn 0.299800 -0.036000 0.953300
vn 0.375200 -0.040500 -0.926000
vn 0.985500 -0.162900 0.046700
vn 0.464300 0.157000 0.871700
vn 0.510200 0.281200 0.812800
vn 0.970200 0.241700 0.015600
vn -0.419700 0.838300 0.348000
vn -0.136400 0.474700 0.869500
vn 0.799200 0.400100 -0.448600
vn 0.769200 0.638900 -0.009600
vn 0.562500 0.796400 0.222300
vn 0.401700 0.850500 0.339600
vn 0.647500 -0.757900 -0.079300
vn 0.950500 -0.115500 -0.288300
vn 0.761100 -0.551100 0.342200
vn 0.837300 0.396200 0.376700
vn 0.307000 -0.930800 0.198400
vn 0.196700 0.905300 0.376400
vn -0.175700 0.899400 0.400300
vn -0.002700 0.634800 0.772700
vn 0.632100 0.172500 0.755400
vn 0.376000 0.788200 0.487200
vn 0.407900 0.123500 0.904600
vn 0.123200 -0.939800 0.318900
vn 0.337800 -0.722200 0.603500
vn 0.065000 -0.731700 0.678500
vn -0.209100 -0.083300 0.974300
vn -0.622400 0.152100 0.767800
vn -0.391600 -0.613500 0.685700
vn -0.245200 -0.907500 0.341100
vn -0.014500 0.930600 0.365800
vn 0.011300 -0.998700 0.050200
vn 0.438200 -0.848400 -0.296900
vn 0.705300 -0.207400 -0.677800
vn 0.604700 0.625000 -0.493700
vn 0.426600 0.880100 0.208600
vn -0.033600 0.822400 0.567900
vn -0.000000 0.652400 0.757900
vn 0.141700 0.647700 0.748600
vn 0.374700 0.297900 -0.878000
vn 0.114300 -0.568000 -0.815000
vn -0.170000 0.202300 -0.964500
vn -0.041300 -0.960500 -0.275200
vn 0.258100 0.858600 -0.443000
vn -0.705000 -0.204100 -0.679200
vn -0.307600 -0.762500 -0.569200
vn -0.783100 -0.613100 -0.104200
vn 0.146300 0.892300 0.427100
vn 0.418000 0.861200 0.289200
vn 0.028500 0.902300 0.430100
vn -0.234300 -0.970300 -0.059700
vn -0.918700 0.311300 -0.243200
vn -0.105400 0.984700 0.139000
vn -0.488200 -0.846800 0.211200
vn -0.727800 0.613300 0.306700
vn -0.879600 -0.237700 0.412100
vn -0.559400 0.827000 0.056500
vn 0.745700 0.658000 0.105000
vn -0.013400 0.820600 -0.571300
vn -0.414500 0.628800 -0.657800
vn 0.271000 0.805000 -0.527800
vn 0.404400 0.890900 -0.206600
vn -0.391200 0.670900 0.630000
vn 0.265900 0.924800 -0.272300
vn -0.080200 0.995600 0.047700
vn -0.021900 0.497100 -0.867400
vn 0.013300 0.751000 -0.660100
vn 0.095400 0.731700 -0.674900
vn 0.059600 0.768800 -0.636700
vn 0.072300 0.682500 -0.727300
vn 0.178800 0.762400 -0.621900
vn 0.558800 0.696400 -0.450300
vn 0.753900 0.414400 -0.509800
vn 0.634600 0.678800 -0.369500
vn 0.364300 0.812800 -0.454500
vn 0.373200 0.359500 -0.855300
vn -0.132400 0.930300 -0.342200
vn -0.109900 0.570800 0.813700
vn -0.278300 0.277400 0.919600
vn -0.402900 0.913700 0.053200
vn -0.240300 0.961800 0.130900
vn -0.158600 0.743200 0.650000
vn -0.259400 0.378200 0.888600
vn -0.233300 0.575100 0.784200
vn -0.103000 0.680700 0.725300
vn -0.043300 0.753600 0.655800
vn -0.277800 0.922000 0.269800
vn -0.570100 0.748500 0.338700
vn -0.190600 0.517200 0.834400
vn -0.528600 0.748500 -0.400500
vn -0.363100 0.885000 -0.291400
vn -0.143100 0.859700 -0.490300
vn -0.269300 0.838900 -0.473000
vn -0.550500 0.776800 -0.305900
vn -0.614400 0.714300 -0.335100
vn -0.583500 0.716100 -0.383100
vn -0.611300 0.704400 -0.360700
vn -0.165100 0.788600 0.592300
vn -0.068700 0.834000 0.547400
vn -0.080300 0.898100 0.432400
vn 0.232500 0.880900 -0.412200
vn 0.289900 0.911700 -0.291100
vn -0.476300 0.801400 -0.361800
vn -0.159700 0.568800 -0.806800
vn 0.360500 0.867800 -0.342100
vn 0.676400 0.715500 -0.174700
vn 0.821500 0.530600 -0.209000
vn 0.118700 0.839800 0.529800
vn 0.224600 0.542600 -0.809400
vn -0.504100 0.863300 -0.024200
s 1
f 1/1/1 2/2/1 3/3/1 4/4/1
f 5/5/2 3/6/2 6/7/2
f 7/8/3 8/9/3 2/2/3 1/1/3
f 4/4/4 3/3/4 5/10/4 9/11/4
f 10/12/5 11/13/5 8/9/5 7/8/5
f 9/11/6 5/10/6 12/14/6 13/15/6
f 13/16/7 12/17/7 11/13/7 10/12/7
f 8/18/8 11/19/8 6/7/8
f 11/19/9 12/20/9 6/7/9
f 3/6/10 2/21/10 6/7/10
f 2/21/11 8/18/11 6/7/11
f 12/20/12 5/5/12 6/7/12
f 14/22/13 15/23/13 16/24/13 17/25/13
f 18/26/14 16/27/14 19/28/14
f 20/29/15 21/30/15 15/23/15 14/22/15
f 17/25/16 16/24/16 18/31/16 22/32/16
f 23/33/17 24/34/18 21/30/17 20/29/17
f 22/32/19 18/31/19 25/35/19 26/36/19
f 26/37/20 25/38/20 24/34/20 23/33/20
f 21/39/21 24/40/22 19/28/21
f 24/40/23 25/41/23 19/28/23
f 16/27/24 15/42/24 19/28/24
f 15/42/25 21/39/25 19/28/25
f 25/41/26 18/26/26 19/28/26
f 27/43/27 28/44/27 29/45/27 30/46/27
f 31/47/28 32/48/28 33/49/28 34/50/28
f 35/51/29 33/52/29 36/53/29
f 37/54/30 38/55/30 32/48/30 31/47/30
f 34/50/31 33/49/31 35/56/31 39/57/31
f 40/58/32 41/59/32 38/55/32 37/54/32
f 39/57/33 35/56/33 42/60/33 43/61/33
f 43/62/34 42/63/34 41/59/34 40/58/34
f 38/64/35 41/65/35 36/53/35
f 41/65/36 42/66/36 36/53/36
f 33/52/37 32/67/37 36/53/37
f 32/67/38 38/64/38 36/53/38
f 42/66/39 35/51/39 36/53/39
f 44/1/40 45/2/40 46/3/40 47/4/40
f 48/5/41 46/6/41 49/7/41
f 50/8/42 51/9/42 45/2/42 44/1/42
f 47/4/43 46/3/43 48/10/43 52/11/43
f 53/12/44 54/13/44 51/9/44 50/8/44
f 52/11/45 48/10/45 55/14/45 56/15/45
f 56/16/46 55/17/46 54/13/46 53/12/46
f 51/18/47 54/19/47 49/7/47
f 54/19/48 55/20/48 49/7/48
f 46/6/49 45/21/49 49/7/49
f 45/21/50 51/18/50 49/7/50
f 55/20/51 48/5/51 49/7/51
f 57/20/52 58/5/52 59/7/52
f 60/21/53 61/18/53 59/7/53
f 62/6/54 60/21/54 59/7/54
f 63/19/55 57/20/55 59/7/55
f 61/18/56 63/19/56 59/7/56
f 64/16/57 57/17/57 63/13/57 65/12/57
f 66/11/58 58/10/58 57/14/58 64/15/58
f 65/12/59 63/13/59 61/9/59 67/8/59
f 68/4/60 62/3/60 58/10/60 66/11/60
f 67/8/61 61/9/61 60/2/61 69/1/61
f 58/5/62 62/6/62 59/7/62
f 69/1/63 60/2/63 62/3/63 68/4/63
f 70/68/64 29/69/64 71/70/64
f 72/71/65 73/72/65 28/44/65 27/43/65
f 30/46/66 29/45/66 70/73/66 74/74/66
f 75/75/67 76/76/68 73/72/67 72/71/67
f 74/74/69 70/73/69 77/77/69 78/78/69
f 78/79/70 77/80/70 76/76/70 75/75/70
f 73/81/71 76/82/72 71/70/71
f 76/82/73 77/83/73 71/70/73
f 29/69/74 28/84/74 71/70/74
f 28/84/75 73/81/75 71/70/75
f 77/83/76 70/68/76 71/70/76
f 79/85/77 80/86/78 81/87/79
f 82/88/80 83/89/81 84/90/82
f 79/85/77 81/87/79 85/91/83
f 82/88/80 84/90/82 86/92/84
f 87/93/85 88/94/86 89/95/87
f 90/96/88 91/97/89 92/98/90
f 93/99/91 94/100/92 95/101/93
f 95/101/93 92/98/90 96/102/94
f 95/101/93 94/100/92 92/98/90
f 94/100/92 90/96/88 92/98/90
f 92/98/90 89/95/87 96/102/94
f 92/98/90 91/97/89 89/95/87
f 91/97/89 87/93/85 89/95/87
f 89/95/87 97/103/95 96/102/94
f 89/95/87 88/94/86 97/103/95
f 97/103/95 98/104/96 96/102/94
f 98/104/96 95/101/93 96/102/94
f 98/104/96 99/105/97 95/101/93
f 99/105/97 93/99/91 95/101/93
f 86/92/84 94/100/92 93/99/91
f 86/92/84 84/90/82 94/100/92
f 84/90/82 90/96/88 94/100/92
f 85/91/83 91/97/89 90/96/88
f 85/91/83 81/87/79 91/97/89
f 81/87/79 87/93/85 91/97/89
f 100/106/98 88/94/86 87/93/85
f 101/107/99 93/99/91 99/105/97
f 84/90/82 85/91/83 90/96/88
f 84/90/82 83/89/81 85/91/83
f 83/89/81 79/85/77 85/91/83
f 81/87/79 100/106/98 87/93/85
f 101/107/99 86/92/84 93/99/91
f 101/107/99 102/108/100 86/92/84
f 102/108/100 82/88/80 86/92/84
f 103/109/101 83/89/81 82/88/80
f 103/109/101 104/110/102 83/89/81
f 104/110/102 79/85/77 83/89/81
f 104/110/102 80/86/103 79/85/77
f 102/108/100 103/109/101 82/88/80
f 105/111/104 100/106/98 81/87/79
f 106/112/105 105/111/104 81/87/79
f 80/86/103 107/113/106 81/87/79
f 107/113/106 106/112/105 81/87/79
f 108/114/107 109/115/108 110/116/109
f 111/117/110 109/115/108 102/118/100
f 108/114/107 110/116/109 112/119/111
f 108/114/107 112/119/111 104/120/102
f 108/114/107 104/120/102 103/121/101
f 111/117/110 102/118/100 101/122/99
f 113/123/112 114/124/113 115/125/114
f 116/126/115 117/127/116 118/128/117
f 111/117/110 101/122/99 119/129/118
f 113/123/112 115/125/114 120/130/119
f 116/126/115 118/128/117 121/131/120
f 122/132/121 99/133/97 98/134/96
f 123/135/122 124/136/123 97/137/95
f 88/138/86 123/135/122 97/137/95
f 97/137/95 124/136/123 98/134/96
f 124/136/123 122/132/121 98/134/96
f 125/139/124 123/135/122 88/138/86
f 120/130/119 124/136/123 123/135/122
f 120/130/119 115/125/114 124/136/123
f 115/125/114 122/132/121 124/136/123
f 119/129/118 99/133/97 122/132/121
f 119/129/118 101/122/99 99/133/97
f 80/140/103 126/141/125 107/142/106
f 125/139/124 120/130/119 123/135/122
f 127/143/126 112/119/111 110/116/109
f 128/144/127 113/123/112 120/130/119
f 115/125/114 119/129/118 122/132/121
f 115/125/114 114/124/113 119/129/118
f 114/124/113 111/117/110 119/129/118
f 112/145/111 129/146/128 130/147/129
f 112/145/111 127/148/126 129/146/128
f 110/116/109 113/123/112 128/144/127
f 102/118/100 109/115/108 103/121/101
f 109/115/108 108/114/107 103/121/101
f 110/116/109 114/124/113 113/123/112
f 110/116/109 109/115/108 114/124/113
f 109/115/108 111/117/110 114/124/113
f 131/149/130 132/150/131 133/151/132
f 131/149/133 134/152/134 132/150/135
f 135/153/136 136/154/137 137/155/138
f 138/156/139 139/157/140 140/158/141
f 138/156/139 141/159/142 139/157/143
f 131/149/130 133/151/132 142/160/144
f 106/161/105 143/162/145 105/163/104
f 106/161/105 144/164/146 143/162/145
f 145/165/147 146/166/148 147/167/149
f 148/168/150 149/169/151 150/170/152
f 148/168/150 151/171/153 149/169/151
f 152/172/154 153/173/155 154/174/156
f 152/172/154 155/175/157 153/173/155
f 152/172/154 156/176/158 155/175/157
f 157/177/159 158/178/160 159/179/161
f 159/179/161 160/180/162 161/181/163
f 159/179/161 158/178/160 160/180/162
f 158/178/160 128/182/127 160/180/162
f 155/175/157 159/179/161 161/181/163
f 155/175/157 156/176/158 159/179/161
f 156/176/158 157/177/159 159/179/161
f 153/173/155 162/183/164 125/184/124
f 153/173/155 155/175/157 162/183/164
f 155/175/157 161/181/163 162/183/164
f 154/174/156 163/185/165 164/186/166
f 154/174/156 153/173/155 163/185/165
f 153/173/155 125/184/124 163/185/165
f 149/169/151 154/174/156 164/186/166
f 149/169/151 151/171/153 154/174/156
f 151/171/153 152/172/154 154/174/156
f 150/170/152 165/187/167 100/188/98
f 150/170/152 149/169/151 165/187/167
f 149/169/151 164/186/166 165/187/167
f 147/167/149 121/131/120 148/168/168
f 147/167/149 146/166/148 121/131/120
f 146/166/148 116/126/115 121/131/120
f 143/162/145 147/167/149 148/168/168
f 143/162/145 144/164/146 147/167/149
f 144/164/169 145/165/147 147/167/149
f 105/163/104 150/170/152 100/188/98
f 105/163/104 143/162/145 150/170/152
f 143/162/145 148/168/150 150/170/152
f 142/160/144 146/166/148 145/165/147
f 142/160/144 133/151/132 146/166/148
f 133/151/132 116/126/115 146/166/148
f 139/157/170 142/160/144 145/165/147
f 139/157/171 141/159/142 142/160/172
f 141/159/142 131/149/173 142/160/172
f 140/158/141 126/141/125 80/140/103
f 140/158/141 139/157/174 126/141/125
f 139/157/175 145/165/147 126/141/125
f 137/155/138 158/178/160 157/177/159
f 137/155/138 136/154/137 158/178/160
f 136/154/137 128/182/127 158/178/160
f 132/150/135 137/155/138 157/177/159
f 132/150/135 134/152/134 137/155/138
f 134/152/134 135/153/136 137/155/138
f 133/151/132 117/127/116 116/126/115
f 133/151/132 132/150/131 117/127/116
f 132/150/135 157/177/159 117/127/176
f 129/146/128 134/152/134 131/149/133
f 129/146/128 127/148/126 134/152/134
f 127/148/126 135/153/136 134/152/134
f 130/147/129 141/159/142 138/156/139
f 130/147/129 129/146/128 141/159/142
f 129/146/128 131/149/173 141/159/142
f 107/142/106 144/164/146 106/161/105
f 107/142/106 126/141/125 144/164/169
f 126/141/125 145/165/147 144/164/169
f 121/131/120 151/171/153 148/168/168
f 121/131/120 118/128/117 151/171/153
f 118/128/117 152/172/154 151/171/153
f 118/128/117 156/176/158 152/172/154
f 118/128/117 117/127/177 156/176/158
f 117/127/177 157/177/159 156/176/158
f 135/189/136 127/143/126 110/116/109
f 136/190/137 135/189/136 110/116/109
f 128/144/127 136/190/137 110/116/109
f 130/191/129 138/192/139 104/120/102
f 138/192/139 140/193/141 104/120/102
f 140/193/141 80/194/103 104/120/102
f 112/119/111 130/191/129 104/120/102
f 125/139/124 162/195/164 120/130/119
f 162/195/164 161/196/163 120/130/119
f 161/196/163 160/197/162 120/130/119
f 160/197/162 128/144/127 120/130/119
f 165/187/167 164/186/166 88/198/86
f 100/188/98 165/187/167 88/198/86
f 164/186/166 163/185/165 88/198/86
f 163/185/165 125/184/124 88/198/86
