# 3ds Max Wavefront OBJ Exporter v0.97b - (c)2007 guruware
# File Created: 18.12.2015 21:31:58

mtllib lava.mtl

#
# object Plane002
#

v  -96.1649 -4.2721 309.7227
v  -75.9800 -4.2721 309.7227
v  -75.9800 -5.6598 249.4849
v  -96.1649 -10.6332 249.4849
v  -55.7950 -4.2721 309.7227
v  -55.7950 -0.4579 249.4849
v  -35.6101 -4.2721 309.7227
v  -35.6101 -1.0867 249.4849
v  -15.4252 -4.2721 309.7227
v  -15.4252 -3.4568 249.4849
v  4.7598 -4.2721 309.7227
v  4.7598 -4.2721 249.4849
v  24.9447 -4.2721 309.7227
v  24.9447 -4.2721 249.4849
v  45.1297 -4.2721 309.7227
v  45.1297 -4.2721 249.4849
v  65.3146 -4.2721 309.7227
v  65.3146 -4.2721 249.4849
v  85.4995 -4.2721 309.7227
v  85.4995 -4.2721 249.4849
v  105.6845 -4.2721 309.7227
v  105.6845 -4.2721 249.4849
v  -75.9800 -4.2721 189.2471
v  -96.1649 -4.2721 189.2471
v  -55.7950 -4.2721 189.2471
v  -35.6101 -1.8001 189.2471
v  -15.4252 -0.5538 189.2471
v  4.7598 -1.8001 189.2471
v  24.9447 -0.2312 189.2471
v  45.1297 5.3829 189.2471
v  65.3146 -0.2312 189.2471
v  85.4995 -4.2721 189.2471
v  105.6845 -4.2721 189.2471
v  -75.9800 -4.2721 129.0094
v  -96.1649 -4.2721 129.0094
v  -55.7950 -4.2721 129.0094
v  -35.6101 -4.2721 129.0094
v  -15.4252 -4.2721 129.0094
v  4.7598 -4.2721 129.0094
v  24.9447 -4.2721 129.0094
v  45.1297 -4.2721 129.0094
v  65.3146 -4.2721 129.0094
v  85.4995 -4.2721 129.0094
v  105.6845 -4.2721 129.0094
v  -75.9800 -4.2721 68.7716
v  -96.1649 -4.2721 68.7716
v  -55.7950 -4.2721 68.7716
v  -35.6101 -4.2721 68.7716
v  -15.4252 -4.2721 68.7716
v  4.7598 -4.2721 68.7716
v  24.9447 -4.2721 68.7716
v  45.1297 -4.2721 68.7716
v  65.3146 -4.2721 68.7716
v  85.4995 -4.2721 68.7716
v  105.6845 -4.2721 68.7716
v  -75.9800 -4.2721 8.5338
v  -96.1649 -4.2721 8.5338
v  -55.7950 -4.2721 8.5338
v  -35.6101 -4.2721 8.5338
v  -15.4252 -4.2721 8.5338
v  4.7598 -4.2721 8.5338
v  24.9447 -4.2721 8.5338
v  45.1297 -4.2721 8.5338
v  65.3146 -4.2721 8.5338
v  85.4995 -4.2721 8.5338
v  105.6845 -4.2721 8.5338
v  -75.9800 -4.2721 -51.7040
v  -96.1649 -4.2721 -51.7040
v  -55.7950 -4.2721 -51.7040
v  -35.6101 -4.2721 -51.7040
v  -15.4252 -4.2721 -51.7040
v  4.7598 0.1300 -51.7040
v  24.9447 6.2460 -51.7040
v  45.1297 3.4076 -51.7040
v  65.3146 3.9368 -51.7040
v  85.4995 -0.8365 -51.7040
v  105.6845 -4.2721 -51.7040
v  -75.9800 -8.6717 -111.9417
v  -96.1649 -6.1135 -111.9417
v  -55.7950 -6.1135 -111.9417
v  -35.6101 -4.2721 -111.9417
v  -15.4252 -4.2721 -111.9417
v  4.7598 -4.2721 -111.9417
v  24.9447 -4.2721 -111.9417
v  45.1297 -4.2721 -111.9417
v  65.3146 -4.2721 -111.9417
v  85.4995 -4.2721 -111.9417
v  105.6845 -4.2721 -111.9417
v  -75.9800 -4.2721 -172.1795
v  -96.1649 -4.2721 -172.1795
v  -55.7950 -4.2721 -172.1795
v  -35.6101 -4.2721 -172.1795
v  -15.4252 -4.2721 -172.1795
v  4.7598 -4.2721 -172.1795
v  24.9447 -2.2219 -172.1795
v  45.1297 0.6265 -172.1795
v  65.3146 -2.2219 -172.1795
v  85.4995 -4.2721 -172.1795
v  105.6845 -4.2721 -172.1795
v  -75.9800 -9.3526 -232.4173
v  -96.1649 -6.3984 -232.4173
v  -55.7950 -2.1870 -232.4173
v  -35.6101 5.9008 -232.4173
v  -15.4252 -0.0145 -232.4173
v  4.7598 -4.2721 -232.4173
v  24.9447 9.8247 -232.4173
v  45.1297 29.4098 -232.4173
v  65.3146 9.8247 -232.4173
v  85.4995 -2.0009 -232.4173
v  105.6845 1.1546 -232.4173
v  -75.9800 -4.2721 -292.6551
v  -96.1649 -4.2721 -292.6551
v  -55.7950 -4.2721 -292.6551
v  -35.6101 -4.2721 -292.6551
v  -15.4252 -4.2721 -292.6551
v  4.7598 -4.2721 -292.6551
v  24.9447 -4.2721 -292.6551
v  45.1297 -4.2721 -292.6551
v  65.3146 -4.2721 -292.6551
v  85.4995 -4.2721 -292.6551
v  105.6845 -4.2721 -292.6551
# 121 vertices

vn -0.0504 0.9979 -0.0399
vn -0.0265 0.9996 0.0112
vn -0.2198 0.9750 -0.0327
vn -0.2150 0.9761 -0.0312
vn 0.0032 0.9982 0.0591
vn -0.1048 0.9945 -0.0062
vn 0.0121 0.9992 0.0372
vn 0.0631 0.9974 0.0343
vn 0.0042 1.0000 0.0082
vn 0.0736 0.9966 0.0371
vn 0.0000 1.0000 -0.0000
vn 0.0141 0.9995 0.0283
vn -0.0142 0.9986 0.0517
vn 0.0142 0.9980 0.0611
vn 0.0103 0.9997 0.0202
vn -0.0126 0.9995 0.0278
vn 0.0000 0.9986 0.0526
vn -0.0678 0.9974 -0.0224
vn -0.0806 0.9959 -0.0406
vn 0.0060 0.9999 -0.0146
vn -0.0051 1.0000 -0.0038
vn -0.1566 0.9874 -0.0233
vn 0.0000 1.0000 0.0000
vn 0.2092 0.9774 0.0311
vn 0.0885 0.9960 0.0132
vn -0.0063 0.9999 -0.0124
vn -0.0032 0.9996 -0.0267
vn 0.0032 0.9997 -0.0246
vn -0.0040 0.9996 -0.0283
vn -0.0142 0.9980 -0.0611
vn 0.0142 0.9986 -0.0517
vn 0.0103 0.9999 -0.0133
vn -0.0112 0.9998 0.0145
vn -0.0154 0.9983 0.0563
vn 0.0071 0.9970 0.0772
vn -0.0013 0.9979 0.0651
vn 0.0121 0.9986 0.0521
vn 0.0088 0.9998 0.0172
vn -0.0065 0.9996 -0.0280
vn 0.0130 0.9994 -0.0321
vn -0.0047 0.9999 -0.0092
vn -0.0962 0.9953 -0.0143
vn -0.2269 0.9733 -0.0337
vn -0.0679 0.9976 -0.0095
vn 0.0513 0.9987 0.0076
vn 0.0914 0.9957 0.0131
vn 0.1791 0.9835 0.0266
vn 0.1507 0.9883 0.0224
vn -0.0000 1.0000 -0.0000
vn 0.1129 0.9935 0.0168
vn -0.0972 0.9952 -0.0144
vn -0.0408 0.9991 -0.0061
vn -0.0164 0.9997 -0.0152
vn -0.0227 0.9989 -0.0402
vn 0.0144 0.9990 -0.0413
vn 0.0039 0.9984 -0.0557
vn 0.0121 0.9990 -0.0441
vn 0.0175 0.9996 -0.0226
vn -0.0118 0.9999 0.0096
vn 0.0150 0.9997 -0.0218
vn -0.0269 0.9974 0.0673
vn 0.0102 0.9975 0.0704
vn 0.0108 0.9997 0.0213
vn -0.0805 0.9960 0.0385
vn -0.1510 0.9765 0.1538
vn 0.0477 0.9775 0.2055
vn 0.1369 0.9863 0.0918
vn 0.0373 0.9987 0.0359
vn 0.0000 0.9990 0.0449
vn -0.0868 0.9961 -0.0126
vn 0.1301 0.9913 0.0193
vn -0.3188 0.9466 -0.0475
vn -0.0418 0.9991 -0.0058
vn 0.2199 0.9750 0.0326
vn -0.1799 0.9833 -0.0273
vn -0.5917 0.8004 -0.0964
vn -0.0020 0.9997 -0.0224
vn 0.5665 0.8217 0.0620
vn 0.1739 0.9846 0.0193
vn -0.1386 0.9901 -0.0203
vn 0.0150 0.9978 0.0647
vn 0.0000 0.9994 0.0353
vn -0.0365 0.9993 0.0126
vn -0.0408 0.9926 -0.1143
vn 0.0298 0.9936 -0.1088
vn 0.0217 0.9994 -0.0280
vn -0.0708 0.9879 -0.1380
vn -0.0865 0.9183 -0.3864
vn 0.0871 0.9378 -0.3362
vn 0.0592 0.9917 -0.1139
vn -0.0320 0.9983 -0.0484
# 91 vertex normals

vt 0.0000 0.0000 0.0000
vt 0.1000 0.0000 0.0000
vt 0.1000 0.1000 0.0000
vt 0.0000 0.1000 0.0000
vt 0.2000 0.0000 0.0000
vt 0.2000 0.1000 0.0000
vt 0.3000 0.0000 0.0000
vt 0.3000 0.1000 0.0000
vt 0.4000 0.0000 0.0000
vt 0.4000 0.1000 0.0000
vt 0.5000 0.0000 0.0000
vt 0.5000 0.1000 0.0000
vt 0.6000 0.0000 0.0000
vt 0.6000 0.1000 0.0000
vt 0.7000 0.0000 0.0000
vt 0.7000 0.1000 0.0000
vt 0.8000 0.0000 0.0000
vt 0.8000 0.1000 0.0000
vt 0.9000 0.0000 0.0000
vt 0.9000 0.1000 0.0000
vt 1.0000 0.0000 0.0000
vt 1.0000 0.1000 0.0000
vt 0.1000 0.2000 0.0000
vt 0.0000 0.2000 0.0000
vt 0.2000 0.2000 0.0000
vt 0.3000 0.2000 0.0000
vt 0.4000 0.2000 0.0000
vt 0.5000 0.2000 0.0000
vt 0.6000 0.2000 0.0000
vt 0.7000 0.2000 0.0000
vt 0.8000 0.2000 0.0000
vt 0.9000 0.2000 0.0000
vt 1.0000 0.2000 0.0000
vt 0.1000 0.3000 0.0000
vt 0.0000 0.3000 0.0000
vt 0.2000 0.3000 0.0000
vt 0.3000 0.3000 0.0000
vt 0.4000 0.3000 0.0000
vt 0.5000 0.3000 0.0000
vt 0.6000 0.3000 0.0000
vt 0.7000 0.3000 0.0000
vt 0.8000 0.3000 0.0000
vt 0.9000 0.3000 0.0000
vt 1.0000 0.3000 0.0000
vt 0.1000 0.4000 0.0000
vt 0.0000 0.4000 0.0000
vt 0.2000 0.4000 0.0000
vt 0.3000 0.4000 0.0000
vt 0.4000 0.4000 0.0000
vt 0.5000 0.4000 0.0000
vt 0.6000 0.4000 0.0000
vt 0.7000 0.4000 0.0000
vt 0.8000 0.4000 0.0000
vt 0.9000 0.4000 0.0000
vt 1.0000 0.4000 0.0000
vt 0.1000 0.5000 0.0000
vt 0.0000 0.5000 0.0000
vt 0.2000 0.5000 0.0000
vt 0.3000 0.5000 0.0000
vt 0.4000 0.5000 0.0000
vt 0.5000 0.5000 0.0000
vt 0.6000 0.5000 0.0000
vt 0.7000 0.5000 0.0000
vt 0.8000 0.5000 0.0000
vt 0.9000 0.5000 0.0000
vt 1.0000 0.5000 0.0000
vt 0.1000 0.6000 0.0000
vt 0.0000 0.6000 0.0000
vt 0.2000 0.6000 0.0000
vt 0.3000 0.6000 0.0000
vt 0.4000 0.6000 0.0000
vt 0.5000 0.6000 0.0000
vt 0.6000 0.6000 0.0000
vt 0.7000 0.6000 0.0000
vt 0.8000 0.6000 0.0000
vt 0.9000 0.6000 0.0000
vt 1.0000 0.6000 0.0000
vt 0.1000 0.7000 0.0000
vt 0.0000 0.7000 0.0000
vt 0.2000 0.7000 0.0000
vt 0.3000 0.7000 0.0000
vt 0.4000 0.7000 0.0000
vt 0.5000 0.7000 0.0000
vt 0.6000 0.7000 0.0000
vt 0.7000 0.7000 0.0000
vt 0.8000 0.7000 0.0000
vt 0.9000 0.7000 0.0000
vt 1.0000 0.7000 0.0000
vt 0.1000 0.8000 0.0000
vt 0.0000 0.8000 0.0000
vt 0.2000 0.8000 0.0000
vt 0.3000 0.8000 0.0000
vt 0.4000 0.8000 0.0000
vt 0.5000 0.8000 0.0000
vt 0.6000 0.8000 0.0000
vt 0.7000 0.8000 0.0000
vt 0.8000 0.8000 0.0000
vt 0.9000 0.8000 0.0000
vt 1.0000 0.8000 0.0000
vt 0.1000 0.9000 0.0000
vt 0.0000 0.9000 0.0000
vt 0.2000 0.9000 0.0000
vt 0.3000 0.9000 0.0000
vt 0.4000 0.9000 0.0000
vt 0.5000 0.9000 0.0000
vt 0.6000 0.9000 0.0000
vt 0.7000 0.9000 0.0000
vt 0.8000 0.9000 0.0000
vt 0.9000 0.9000 0.0000
vt 1.0000 0.9000 0.0000
vt 0.1000 1.0000 0.0000
vt 0.0000 1.0000 0.0000
vt 0.2000 1.0000 0.0000
vt 0.3000 1.0000 0.0000
vt 0.4000 1.0000 0.0000
vt 0.5000 1.0000 0.0000
vt 0.6000 1.0000 0.0000
vt 0.7000 1.0000 0.0000
vt 0.8000 1.0000 0.0000
vt 0.9000 1.0000 0.0000
vt 1.0000 1.0000 0.0000
# 121 texture coords

g Plane002
usemtl Material__32
s 1
f 1/1/1 2/2/2 3/3/3 4/4/4 
f 2/2/2 5/5/5 6/6/6 3/3/3 
f 5/5/5 7/7/7 8/8/8 6/6/6 
f 7/7/7 9/9/9 10/10/10 8/8/8 
f 9/9/9 11/11/11 12/12/12 10/10/10 
f 11/11/11 13/13/11 14/14/13 12/12/12 
f 13/13/11 15/15/11 16/16/14 14/14/13 
f 15/15/11 17/17/11 18/18/15 16/16/14 
f 17/17/11 19/19/11 20/20/11 18/18/15 
f 19/19/11 21/21/11 22/22/11 20/20/11 
f 4/4/4 3/3/3 23/23/16 24/24/17 
f 3/3/3 6/6/6 25/25/18 23/23/16 
f 6/6/6 8/8/8 26/26/19 25/25/18 
f 8/8/8 10/10/10 27/27/20 26/26/19 
f 10/10/10 12/12/12 28/28/21 27/27/20 
f 12/12/12 14/14/13 29/29/22 28/28/21 
f 14/14/13 16/16/14 30/30/23 29/29/22 
f 16/16/14 18/18/15 31/31/24 30/30/23 
f 18/18/15 20/20/11 32/32/25 31/31/24 
f 20/20/11 22/22/11 33/33/11 32/32/25 
f 24/24/17 23/23/16 34/34/11 35/35/11 
f 23/23/16 25/25/18 36/36/11 34/34/11 
f 25/25/18 26/26/19 37/37/26 36/36/11 
f 26/26/19 27/27/20 38/38/27 37/37/26 
f 27/27/20 28/28/21 39/39/28 38/38/27 
f 28/28/21 29/29/22 40/40/29 39/39/28 
f 29/29/22 30/30/23 41/41/30 40/40/29 
f 30/30/23 31/31/24 42/42/31 41/41/30 
f 31/31/24 32/32/25 43/43/32 42/42/31 
f 32/32/25 33/33/11 44/44/11 43/43/32 
f 35/35/11 34/34/11 45/45/11 46/46/11 
f 34/34/11 36/36/11 47/47/11 45/45/11 
f 36/36/11 37/37/26 48/48/11 47/47/11 
f 37/37/26 38/38/27 49/49/11 48/48/11 
f 38/38/27 39/39/28 50/50/11 49/49/11 
f 39/39/28 40/40/29 51/51/11 50/50/11 
f 40/40/29 41/41/30 52/52/11 51/51/11 
f 41/41/30 42/42/31 53/53/11 52/52/11 
f 42/42/31 43/43/32 54/54/11 53/53/11 
f 43/43/32 44/44/11 55/55/11 54/54/11 
f 46/46/11 45/45/11 56/56/11 57/57/11 
f 45/45/11 47/47/11 58/58/11 56/56/11 
f 47/47/11 48/48/11 59/59/11 58/58/11 
f 48/48/11 49/49/11 60/60/33 59/59/11 
f 49/49/11 50/50/11 61/61/34 60/60/33 
f 50/50/11 51/51/11 62/62/35 61/61/34 
f 51/51/11 52/52/11 63/63/36 62/62/35 
f 52/52/11 53/53/11 64/64/37 63/63/36 
f 53/53/11 54/54/11 65/65/38 64/64/37 
f 54/54/11 55/55/11 66/66/11 65/65/38 
f 57/57/11 56/56/11 67/67/39 68/68/40 
f 56/56/11 58/58/11 69/69/41 67/67/39 
f 58/58/11 59/59/11 70/70/11 69/69/41 
f 59/59/11 60/60/33 71/71/42 70/70/11 
f 60/60/33 61/61/34 72/72/43 71/71/42 
f 61/61/34 62/62/35 73/73/44 72/72/43 
f 62/62/35 63/63/36 74/74/45 73/73/44 
f 63/63/36 64/64/37 75/75/46 74/74/45 
f 64/64/37 65/65/38 76/76/47 75/75/46 
f 65/65/38 66/66/11 77/77/48 76/76/47 
f 68/68/40 67/67/39 78/78/49 79/79/50 
f 67/67/39 69/69/41 80/80/51 78/78/49 
f 69/69/41 70/70/11 81/81/52 80/80/51 
f 70/70/11 71/71/42 82/82/11 81/81/52 
f 71/71/42 72/72/43 83/83/53 82/82/11 
f 72/72/43 73/73/44 84/84/54 83/83/53 
f 73/73/44 74/74/45 85/85/55 84/84/54 
f 74/74/45 75/75/46 86/86/56 85/85/55 
f 75/75/46 76/76/47 87/87/57 86/86/56 
f 76/76/47 77/77/48 88/88/58 87/87/57 
f 79/79/50 78/78/49 89/89/59 90/90/60 
f 78/78/49 80/80/51 91/91/61 89/89/59 
f 80/80/51 81/81/52 92/92/62 91/91/61 
f 81/81/52 82/82/11 93/93/63 92/92/62 
f 82/82/11 83/83/53 94/94/64 93/93/63 
f 83/83/53 84/84/54 95/95/65 94/94/64 
f 84/84/54 85/85/55 96/96/66 95/95/65 
f 85/85/55 86/86/56 97/97/67 96/96/66 
f 86/86/56 87/87/57 98/98/68 97/97/67 
f 87/87/57 88/88/58 99/99/69 98/98/68 
f 90/90/60 89/89/59 100/100/70 101/101/71 
f 89/89/59 91/91/61 102/102/72 100/100/70 
f 91/91/61 92/92/62 103/103/73 102/102/72 
f 92/92/62 93/93/63 104/104/74 103/103/73 
f 93/93/63 94/94/64 105/105/75 104/104/74 
f 94/94/64 95/95/65 106/106/76 105/105/75 
f 95/95/65 96/96/66 107/107/77 106/106/76 
f 96/96/66 97/97/67 108/108/78 107/107/77 
f 97/97/67 98/98/68 109/109/79 108/108/78 
f 98/98/68 99/99/69 110/110/80 109/109/79 
f 101/101/71 100/100/70 111/111/81 112/112/82 
f 100/100/70 102/102/72 113/113/83 111/111/81 
f 102/102/72 103/103/73 114/114/84 113/113/83 
f 103/103/73 104/104/74 115/115/85 114/114/84 
f 104/104/74 105/105/75 116/116/86 115/115/85 
f 105/105/75 106/106/76 117/117/87 116/116/86 
f 106/106/76 107/107/77 118/118/88 117/117/87 
f 107/107/77 108/108/78 119/119/89 118/118/88 
f 108/108/78 109/109/79 120/120/90 119/119/89 
f 109/109/79 110/110/80 121/121/91 120/120/90 
# 100 polygons

