# Blender v2.75 (sub 0) OBJ File: 'Floating island.blend'
# www.blender.org
o Floating_Island_3_Asteroid_Asteroid_highpoly_Icosphere.003
v -6.223135 -2.775580 -0.143623
v -5.519609 -2.504514 0.082151
v -6.089132 -2.415030 0.591627
v -4.459940 -1.355806 0.398812
v -4.437175 -1.355806 -0.651591
v -6.924182 -2.436983 0.085012
v -6.707681 -2.379792 -0.737573
v -5.738839 -2.352256 -0.739334
v -5.566791 -1.355805 1.622856
v -4.722134 -1.407297 1.175986
v -7.694152 -1.355806 0.405684
v -6.909845 -1.355806 1.179915
v -7.247095 -1.375200 -1.200958
v -7.759190 -1.375200 -0.446935
v -4.725191 -1.355805 -1.246423
v -6.131559 -1.375200 -1.526403
v -6.879515 2.159250 -0.164735
v -5.141700 2.021578 0.218710
v -6.108953 1.869604 1.083982
v -4.046843 1.061244 0.506176
v -4.018686 1.061244 -0.793017
v -7.527167 1.906888 0.223568
v -7.159470 1.809756 -1.173474
v -5.514030 1.762989 -1.176465
v -3.752140 0.068029 -0.169593
v -5.415855 1.061244 2.020139
v -4.371138 1.290648 1.467427
v -4.740113 0.068028 2.092724
v -8.047089 1.061244 0.514676
v -7.077014 1.061244 1.472286
v -7.959245 0.068028 1.184487
v -7.494142 1.147649 -1.472503
v -8.127529 1.147650 -0.539887
v -8.040520 0.068029 -1.311635
v -4.374919 1.061244 -1.528736
v -6.114390 1.147649 -1.529900
v -4.747633 0.068030 -1.890511
v -4.015331 0.068028 1.227452
v -6.705960 0.068028 2.095712
v -8.299870 0.068029 -0.159876
v -6.713480 0.068029 -2.045927
v -4.019961 0.068029 -1.410865
vt 0.423889 0.179082
vt 0.443376 0.192611
vt 0.419494 0.204503
vt 0.496983 0.228592
vt 0.512001 0.179084
vt 0.399670 0.178988
vt 0.414570 0.154920
vt 0.445885 0.163373
vt 0.447804 0.109465
vt 0.504818 0.147951
vt 0.391147 0.111613
vt 0.357095 0.139715
vt 0.345014 0.179792
vt 0.365301 0.230647
vt 0.424421 0.268241
vt 0.469264 0.257423
vt 0.839442 0.164803
vt 0.830210 0.225438
vt 0.778271 0.202621
vt 0.719851 0.241815
vt 0.698717 0.175785
vt 0.871579 0.169843
vt 0.840229 0.120606
vt 0.771452 0.139737
vt 0.639139 0.227049
vt 0.816834 0.290684
vt 0.777116 0.359900
vt 0.761932 0.272782
vt 0.919913 0.173042
vt 0.982851 0.222072
vt 0.894151 0.241497
vt 0.855739 0.087117
vt 0.919295 0.038209
vt 0.900319 0.121831
vt 0.707006 0.134479
vt 0.675819 0.070315
vt 0.785191 0.094808
vt 0.696910 0.320239
vt 0.915587 0.320633
vt 0.975437 0.113619
vt 0.806233 0.009313
vt 0.639285 0.129154
vt 0.601717 0.227232
vt 0.471454 0.363971
vt 0.253139 0.229708
vt 0.313060 0.043131
vt 0.566501 0.071692
vt 0.546283 0.320595
vt 0.322966 0.331549
vt 0.261505 0.120060
vt 0.428112 0.007273
vt 0.601717 0.129154
vn -0.029100 -0.998900 -0.037400
vn 0.495000 -0.861300 0.115100
vn -0.026200 -0.797900 0.602200
vn 0.822200 -0.553700 0.132000
vn 0.793500 -0.580000 -0.184300
vn -0.574700 -0.787400 0.222800
vn -0.365700 -0.750500 -0.550500
vn 0.299100 -0.771700 -0.561300
vn -0.020300 -0.476500 -0.878900
vn 0.513000 -0.571300 -0.640600
vn -0.514900 -0.487100 -0.705400
vn -0.841000 -0.502900 -0.199700
vn -0.794000 -0.498600 0.347900
vn -0.442200 -0.537200 0.718200
vn 0.069000 -0.568500 0.819800
vn 0.613500 -0.601400 0.511700
vn -0.152000 0.987600 -0.038500
vn -0.077100 0.857500 0.508700
vn 0.342800 0.938500 0.041700
vn 0.869000 0.482600 0.109000
vn 0.817400 0.539700 -0.201500
vn -0.552800 0.801900 0.226500
vn -0.302100 0.754500 -0.582600
vn 0.180900 0.800400 -0.571500
vn 0.994900 -0.101100 -0.005700
vn 0.053800 0.483300 0.873800
vn 0.429200 -0.106500 0.896900
vn 0.627000 0.583700 0.515800
vn -0.844600 0.388400 0.368500
vn -0.801000 -0.061900 0.595500
vn -0.450700 0.508900 0.733400
vn -0.474500 0.413200 -0.777300
vn -0.794200 -0.088800 -0.601200
vn -0.881600 0.426500 -0.202300
vn 0.498800 0.533300 -0.683300
vn 0.285500 -0.042600 -0.957400
vn 0.013800 0.439900 -0.898000
vn 0.904100 -0.116600 0.411200
vn -0.336600 -0.049800 0.940300
vn -0.994600 -0.102700 0.014400
vn -0.176200 -0.000600 -0.984300
vn 0.825300 -0.114200 -0.553100
s 1
f 1/1/1 2/2/2 3/3/3
f 4/4/4 2/2/2 5/5/5
f 1/1/1 3/3/3 6/6/6
f 1/1/1 6/6/6 7/7/7
f 1/1/1 7/7/7 8/8/8
f 8/8/8 16/9/9 15/10/10
f 8/8/8 7/7/7 16/9/9
f 7/7/7 13/11/11 16/9/9
f 7/7/7 14/12/12 13/11/11
f 7/7/7 6/6/6 14/12/12
f 6/6/6 11/13/13 14/12/12
f 6/6/6 12/14/14 11/13/13
f 6/6/6 3/3/3 12/14/14
f 3/3/3 9/15/15 12/14/14
f 5/5/5 8/8/8 15/10/10
f 5/5/5 2/2/2 8/8/8
f 2/2/2 1/1/1 8/8/8
f 3/3/3 10/16/16 9/15/15
f 3/3/3 2/2/2 10/16/16
f 2/2/2 4/4/4 10/16/16
f 17/17/17 19/18/18 18/19/19
f 20/20/20 21/21/21 18/19/19
f 17/17/17 22/22/22 19/18/18
f 17/17/17 23/23/23 22/22/22
f 17/17/17 24/24/24 23/23/23
f 20/20/20 25/25/25 21/21/21
f 26/26/26 28/27/27 27/28/28
f 29/29/29 31/30/30 30/31/31
f 32/32/32 34/33/33 33/34/34
f 35/35/35 37/36/36 36/37/37
f 20/20/20 38/38/38 25/25/25
f 26/26/26 39/39/39 28/27/27
f 29/29/29 40/40/40 31/30/30
f 32/32/32 41/41/41 34/33/33
f 35/35/35 42/42/42 37/36/36
f 37/36/36 41/41/41 36/37/37
f 36/37/37 41/41/41 32/32/32
f 34/33/33 40/40/40 33/34/34
f 33/34/34 40/40/40 29/29/29
f 31/30/30 39/39/39 30/31/31
f 30/31/31 39/39/39 26/26/26
f 28/27/27 38/38/38 27/28/28
f 27/28/28 38/38/38 20/20/20
f 25/25/25 42/42/42 21/21/21
f 21/21/21 42/42/42 35/35/35
f 24/24/24 35/35/35 36/37/37
f 24/24/24 36/37/37 23/23/23
f 23/23/23 36/37/37 32/32/32
f 23/23/23 32/32/32 33/34/34
f 23/23/23 33/34/34 22/22/22
f 22/22/22 33/34/34 29/29/29
f 22/22/22 29/29/29 30/31/31
f 22/22/22 30/31/31 19/18/18
f 19/18/18 30/31/31 26/26/26
f 21/21/21 35/35/35 24/24/24
f 21/21/21 24/24/24 18/19/19
f 18/19/19 24/24/24 17/17/17
f 19/18/18 26/26/26 27/28/28
f 19/18/18 27/28/28 18/19/19
f 18/19/19 27/28/28 20/20/20
f 4/4/4 5/5/5 25/43/25
f 9/15/15 10/16/16 28/44/27
f 11/13/13 12/14/14 31/45/30
f 13/11/11 14/12/12 34/46/33
f 15/10/10 16/9/9 37/47/36
f 4/4/4 25/43/25 38/48/38
f 9/15/15 28/44/27 39/49/39
f 11/13/13 31/45/30 40/50/40
f 13/11/11 34/46/33 41/51/41
f 15/10/10 37/47/36 42/52/42
f 37/47/36 16/9/9 41/51/41
f 16/9/9 13/11/11 41/51/41
f 34/46/33 14/12/12 40/50/40
f 14/12/12 11/13/13 40/50/40
f 31/45/30 12/14/14 39/49/39
f 12/14/14 9/15/15 39/49/39
f 28/44/27 10/16/16 38/48/38
f 10/16/16 4/4/4 38/48/38
f 25/43/25 5/5/5 42/52/42
f 5/5/5 15/10/10 42/52/42
