# 3ds Max Wavefront OBJ Exporter v0.97b - (c)2007 guruware
# File Created: 25.02.2016 18:45:16

mtllib CGB_SpaceGem.mtl

#
# object Long_SpaceGem_Same
#

v  -0.0000 5.2475 3.2227
v  -2.7492 5.2475 1.6355
v  -2.7492 -8.1679 1.6355
v  -0.0000 -8.1679 3.2227
v  -2.7492 5.2475 -1.5390
v  -0.0000 8.1679 0.0483
v  2.7492 5.2475 1.6355
v  2.7492 -8.1679 1.6355
v  -2.7492 -8.1679 -1.5390
v  2.7492 5.2475 -1.5390
v  2.7492 -8.1679 -1.5390
v  -0.0000 5.2475 -3.1264
v  -0.0000 -8.1679 -3.1264
v  8.2994 1.1710 2.6112
v  6.7298 2.7406 1.3297
v  -0.7841 -4.7732 1.3297
v  0.7854 -6.3428 2.6112
v  6.7298 2.7406 -1.2334
v  9.9666 2.8384 0.0483
v  9.8690 -0.3985 1.3297
v  2.3550 -7.9124 1.3297
v  -0.7841 -4.7732 -1.2334
v  9.8690 -0.3985 -1.2334
v  2.3550 -7.9124 -1.2334
v  8.2994 1.1710 -2.5149
v  0.7854 -6.3428 -2.5149
v  -8.2994 1.1710 2.6112
v  -6.7298 2.7406 1.3297
v  0.7841 -4.7732 1.3297
v  -0.7854 -6.3428 2.6112
v  -6.7298 2.7406 -1.2334
v  -9.9666 2.8384 0.0483
v  -9.8690 -0.3985 1.3297
v  -2.3550 -7.9124 1.3297
v  0.7841 -4.7732 -1.2334
v  -9.8690 -0.3985 -1.2334
v  -2.3550 -7.9124 -1.2334
v  -8.2994 1.1710 -2.5149
v  -0.7854 -6.3428 -2.5149
v  -2.5631 1.1710 8.0639
v  -1.2815 2.7406 6.4944
v  -1.2815 -4.7732 -1.0196
v  -2.5631 -6.3428 0.5500
v  1.2815 2.7406 6.4944
v  -0.0000 2.8384 9.7312
v  -1.2815 -0.3986 9.6335
v  -1.2815 -7.9124 2.1195
v  1.2815 -4.7732 -1.0196
v  1.2815 -0.3986 9.6335
v  1.2815 -7.9124 2.1195
v  2.5631 1.1710 8.0639
v  2.5631 -6.3428 0.5500
v  -2.5631 1.1710 -8.0639
v  -1.2815 2.7406 -6.4944
v  -1.2815 -4.7732 1.0196
v  -2.5631 -6.3428 -0.5500
v  1.2815 2.7406 -6.4944
v  -0.0000 2.8384 -9.7312
v  -1.2815 -0.3985 -9.6335
v  -1.2815 -7.9124 -2.1195
v  1.2815 -4.7732 1.0196
v  1.2815 -0.3985 -9.6335
v  1.2815 -7.9124 -2.1195
v  2.5631 1.1710 -8.0639
v  2.5631 -6.3428 -0.5500
# 65 vertices

vn -0.5000 -0.0000 0.8660
vn -0.6559 0.7549 0.0000
vn 0.5000 -0.0000 0.8660
vn -1.0000 0.0000 -0.0000
vn 1.0000 0.0000 -0.0000
vn -0.5000 0.0000 -0.8660
vn 0.5000 0.0000 -0.8660
vn 0.6559 0.7549 0.0000
vn 0.0000 -1.0000 -0.0000
vn 0.3279 0.7549 -0.5680
vn -0.3279 0.7549 0.5680
vn 0.3279 0.7549 0.5680
vn -0.3279 0.7549 -0.5680
vn -0.3431 0.4195 0.8404
vn -0.0247 0.9997 0.0000
vn 0.3431 -0.4195 0.8404
vn -0.6331 0.7741 0.0000
vn 0.6331 -0.7741 -0.0000
vn -0.3431 0.4195 -0.8404
vn 0.3431 -0.4195 -0.8404
vn 0.9993 -0.0369 -0.0000
vn 0.7328 0.2744 -0.6227
vn 0.2014 0.8043 0.5590
vn 0.7328 0.2744 0.6227
vn 0.2014 0.8043 -0.5590
vn -0.3431 -0.4195 -0.8404
vn -0.0247 -0.9997 -0.0000
vn 0.3431 0.4195 -0.8404
vn -0.6331 -0.7741 -0.0000
vn 0.6331 0.7741 0.0000
vn -0.3431 -0.4195 0.8404
vn 0.3431 0.4195 0.8404
vn 0.9993 0.0369 0.0000
vn 0.7328 -0.2744 0.6227
vn 0.2014 -0.8043 -0.5590
vn 0.7328 -0.2744 -0.6227
vn 0.2014 -0.8043 0.5590
vn -0.8404 0.4195 -0.3431
vn 0.0000 0.9997 -0.0247
vn -0.8404 -0.4195 0.3431
vn 0.0000 0.7741 -0.6331
vn 0.0000 -0.7741 0.6331
vn 0.8404 0.4195 -0.3431
vn 0.8404 -0.4195 0.3431
vn 0.0000 -0.0369 0.9993
vn 0.6227 0.2744 0.7328
vn -0.5590 0.8043 0.2014
vn -0.6227 0.2744 0.7328
vn 0.5590 0.8043 0.2014
vn 0.8404 -0.4195 -0.3431
vn 0.0000 -0.9997 -0.0247
vn 0.8404 0.4195 0.3431
vn 0.0000 -0.7741 -0.6331
vn 0.0000 0.7741 0.6331
vn -0.8404 -0.4195 -0.3431
vn -0.8404 0.4195 0.3431
vn 0.0000 0.0369 0.9993
vn -0.6227 -0.2744 0.7328
vn 0.5590 -0.8043 0.2014
vn 0.6227 -0.2744 0.7328
vn -0.5590 -0.8043 0.2014
# 61 vertex normals

vt 0.5000 0.5546 0.0000
vt 0.3396 0.5546 0.0000
vt 0.3396 0.0107 0.0000
vt 0.5000 0.0107 0.0000
vt 0.2878 0.9249 0.0000
vt 0.0960 0.9249 0.0000
vt 0.1919 0.7588 0.0000
vt 0.6604 0.5546 0.0000
vt 0.6604 0.0107 0.0000
vt 0.1792 0.5546 0.0000
vt 0.1792 0.0107 0.0000
vt 0.8208 0.5546 0.0000
vt 0.8208 0.0107 0.0000
vt 0.0188 0.5546 0.0000
vt 0.0188 0.0107 0.0000
vt 0.9812 0.5546 0.0000
vt 0.9812 0.0107 0.0000
vt 0.0960 0.5928 0.0000
vt 0.2878 0.5928 0.0000
vt 0.7036 0.8813 0.0000
vt 0.6203 0.7370 0.0000
vt 0.9535 0.7370 0.0000
vt 0.8702 0.8813 0.0000
vt 0.3837 0.7588 0.0000
vt 0.0001 0.7588 0.0000
vt 0.7036 0.5928 0.0000
vt 0.8702 0.5928 0.0000
# 27 texture coords

g Long_SpaceGem_Same
usemtl wire_204204204
s off
f 1/1/1 2/2/1 3/3/1 4/4/1 
f 5/5/2 2/6/2 6/7/2 
f 7/8/3 1/1/3 4/4/3 8/9/3 
f 2/2/4 5/10/4 9/11/4 3/3/4 
f 10/12/5 7/8/5 8/9/5 11/13/5 
f 5/10/6 12/14/6 13/15/6 9/11/6 
f 12/16/7 10/12/7 11/13/7 13/17/7 
f 7/18/8 10/19/8 6/7/8 
f 8/20/9 4/21/9 13/22/9 11/23/9 
f 10/19/10 12/24/10 6/7/10 
f 2/6/11 1/25/11 6/7/11 
f 1/25/12 7/18/12 6/7/12 
f 12/24/13 5/5/13 6/7/13 
f 4/21/9 3/26/9 9/27/9 13/22/9 
f 14/1/14 15/2/14 16/3/14 17/4/14 
f 18/5/15 15/6/15 19/7/15 
f 20/8/16 14/1/16 17/4/16 21/9/16 
f 15/2/17 18/10/17 22/11/17 16/3/17 
f 23/12/18 20/8/18 21/9/18 24/13/18 
f 18/10/19 25/14/19 26/15/19 22/11/19 
f 25/16/20 23/12/20 24/13/20 26/17/20 
f 20/18/21 23/19/21 19/7/21 
f 23/19/22 25/24/22 19/7/22 
f 15/6/23 14/25/23 19/7/23 
f 14/25/24 20/18/24 19/7/24 
f 25/24/25 18/5/25 19/7/25 
f 27/1/26 28/2/26 29/3/26 30/4/26 
f 31/5/27 28/6/27 32/7/27 
f 33/8/28 27/1/28 30/4/28 34/9/28 
f 28/2/29 31/10/29 35/11/29 29/3/29 
f 36/12/30 33/8/30 34/9/30 37/13/30 
f 31/10/31 38/14/31 39/15/31 35/11/31 
f 38/16/32 36/12/32 37/13/32 39/17/32 
f 33/18/33 36/19/33 32/7/33 
f 36/19/34 38/24/34 32/7/34 
f 28/6/35 27/25/35 32/7/35 
f 27/25/36 33/18/36 32/7/36 
f 38/24/37 31/5/37 32/7/37 
f 30/21/17 29/26/17 35/27/17 39/22/17 
f 40/1/38 41/2/38 42/3/38 43/4/38 
f 44/5/39 41/6/39 45/7/39 
f 46/8/40 40/1/40 43/4/40 47/9/40 
f 41/2/41 44/10/41 48/11/41 42/3/41 
f 49/12/42 46/8/42 47/9/42 50/13/42 
f 44/10/43 51/14/43 52/15/43 48/11/43 
f 51/16/44 49/12/44 50/13/44 52/17/44 
f 46/18/45 49/19/45 45/7/45 
f 49/19/46 51/24/46 45/7/46 
f 41/6/47 40/25/47 45/7/47 
f 40/25/48 46/18/48 45/7/48 
f 51/24/49 44/5/49 45/7/49 
f 53/1/50 54/2/50 55/3/50 56/4/50 
f 57/5/51 54/6/51 58/7/51 
f 59/8/52 53/1/52 56/4/52 60/9/52 
f 54/2/53 57/10/53 61/11/53 55/3/53 
f 62/12/54 59/8/54 60/9/54 63/13/54 
f 57/10/55 64/14/55 65/15/55 61/11/55 
f 64/16/56 62/12/56 63/13/56 65/17/56 
f 59/18/57 62/19/57 58/7/57 
f 62/19/58 64/24/58 58/7/58 
f 54/6/59 53/25/59 58/7/59 
f 53/25/60 59/18/60 58/7/60 
f 64/24/61 57/5/61 58/7/61 
# 33 polygons - 30 triangles

