# 3ds Max Wavefront OBJ Exporter v0.97b - (c)2007 guruware
# File Created: 21.04.2016 02:57:56

mtllib L_LavaWorldPiece_Lava_d.mtl

#
# object L_LavaWorldPiece_Lava_d
#

v  -270.5415 -0.0000 1304.0947
v  -270.5415 -0.0000 -0.0000
v  -541.0831 -0.0000 -0.0000
v  -541.0831 -0.0000 1304.0947
v  0.0000 -0.0000 1304.0947
v  0.0000 -0.0000 -0.0000
v  270.5416 -0.0000 1304.0947
v  270.5416 -0.0000 -0.0000
v  541.0831 -0.0000 1304.0947
v  541.0831 -0.0000 -0.0000
v  -270.5415 -0.0000 -1304.0947
v  -541.0831 -0.0000 -1304.0947
v  0.0000 -0.0000 -1304.0947
v  270.5416 -0.0000 -1304.0947
v  541.0831 -0.0000 -1304.0947
# 15 vertices

vn 0.0000 1.0000 -0.0000
# 1 vertex normals

vt 0.2398 -0.7333 0.5000
vt 0.2398 -0.1167 0.5000
vt -0.0205 -0.1167 0.5000
vt -0.0205 -0.7333 0.5000
vt 0.5000 -0.7333 0.5000
vt 0.5000 -0.1167 0.5000
vt 0.7602 -0.7333 0.5000
vt 0.7602 -0.1167 0.5000
vt 1.0205 -0.7333 0.5000
vt 1.0205 -0.1167 0.5000
vt 0.2398 0.5000 0.5000
vt -0.0205 0.5000 0.5000
vt 0.5000 0.5000 0.5000
vt 0.7602 0.5000 0.5000
vt 1.0205 0.5000 0.5000
# 15 texture coords

g L_LavaWorldPiece_Lava_d
usemtl Material__25
s 1
f -15/-15/-1 -14/-14/-1 -13/-13/-1 -12/-12/-1 
f -11/-11/-1 -10/-10/-1 -14/-14/-1 -15/-15/-1 
f -9/-9/-1 -8/-8/-1 -10/-10/-1 -11/-11/-1 
f -7/-7/-1 -6/-6/-1 -8/-8/-1 -9/-9/-1 
f -14/-14/-1 -5/-5/-1 -4/-4/-1 -13/-13/-1 
f -10/-10/-1 -3/-3/-1 -5/-5/-1 -14/-14/-1 
f -8/-8/-1 -2/-2/-1 -3/-3/-1 -10/-10/-1 
f -6/-6/-1 -1/-1/-1 -2/-2/-1 -8/-8/-1 
# 8 polygons

