# 3ds Max Wavefront OBJ Exporter v0.97b - (c)2007 guruware
# File Created: 03.02.2016 11:44:57

#
# object O_JungleWorldIsland_c
#

v  -0.5594 -79.4046 -4.9619
v  17.2708 -72.5347 0.7607
v  2.8367 -70.2668 13.6729
v  44.1270 -43.4219 8.7861
v  44.7039 -43.4219 -17.8359
v  -18.3268 -70.8232 0.8330
v  -12.8398 -69.3737 -20.0146
v  11.7146 -68.6758 -20.0596
v  1.7615 -43.9134 -40.0068
v  37.4044 -43.4218 -32.9111
v  -26.5107 -43.9134 -31.7588
v  -39.4892 -43.9134 -12.6484
v  -37.8409 -43.4219 8.9600
v  -17.9634 -43.4219 28.5820
v  16.0750 -43.4218 39.8086
v  37.4819 -44.7268 28.4824
v  -17.1947 45.6637 -5.4961
v  2.3344 38.3229 26.1514
v  26.8484 42.1745 4.2217
v  54.5964 17.8358 11.5068
v  55.3101 17.8358 -21.4199
v  -33.6088 39.2678 4.3447
v  -24.2900 36.8061 -31.0625
v  17.4121 35.6209 -31.1377
v  62.0654 -7.3362 -5.6201
v  19.9002 17.8358 49.8770
v  37.0263 -7.3362 51.7168
v  46.3775 23.6498 35.8691
v  -46.7857 17.8358 11.7227
v  -44.5594 -7.3362 28.6982
v  -22.2002 17.8358 35.9922
v  -32.7718 20.0257 -38.6406
v  -46.6192 -7.3362 -34.5635
v  -48.8244 20.0257 -15.0049
v  46.2817 17.8358 -40.0654
v  36.8356 -7.3362 -49.2344
v  2.1965 20.0257 -40.0957
v  55.3952 -7.3362 29.7871
v  -12.7962 -7.3362 51.7920
v  -53.1922 -7.3362 -5.3730
v  -12.9867 -7.3362 -53.1738
v  55.2777 -7.3362 -37.0781
# 42 vertices

vn -0.0291 -0.9989 -0.0374
vn 0.4950 -0.8613 0.1151
vn -0.0262 -0.7979 0.6022
vn 0.8222 -0.5537 0.1320
vn 0.7935 -0.5800 -0.1843
vn -0.5747 -0.7874 0.2228
vn -0.3657 -0.7505 -0.5505
vn 0.2991 -0.7717 -0.5613
vn -0.0203 -0.4765 -0.8789
vn 0.5130 -0.5713 -0.6406
vn -0.5149 -0.4871 -0.7054
vn -0.8410 -0.5029 -0.1997
vn -0.7940 -0.4986 0.3479
vn -0.4422 -0.5372 0.7182
vn 0.0690 -0.5685 0.8198
vn 0.6135 -0.6014 0.5117
vn -0.1520 0.9876 -0.0385
vn -0.0771 0.8575 0.5087
vn 0.3428 0.9385 0.0417
vn 0.8690 0.4826 0.1090
vn 0.8174 0.5397 -0.2015
vn -0.5528 0.8019 0.2265
vn -0.3021 0.7545 -0.5826
vn 0.1809 0.8004 -0.5715
vn 0.9949 -0.1011 -0.0057
vn 0.0538 0.4833 0.8738
vn 0.4292 -0.1065 0.8969
vn 0.6270 0.5837 0.5158
vn -0.8446 0.3884 0.3685
vn -0.8010 -0.0619 0.5955
vn -0.4507 0.5089 0.7334
vn -0.4745 0.4132 -0.7773
vn -0.7942 -0.0888 -0.6012
vn -0.8816 0.4265 -0.2023
vn 0.4988 0.5333 -0.6833
vn 0.2855 -0.0426 -0.9574
vn 0.0138 0.4399 -0.8980
vn 0.9041 -0.1166 0.4112
vn -0.3366 -0.0498 0.9403
vn -0.9946 -0.1027 0.0144
vn -0.1762 -0.0006 -0.9843
vn 0.8253 -0.1142 -0.5531
# 42 vertex normals

vt 0.4239 0.1791 0.0000
vt 0.4434 0.1926 0.0000
vt 0.4195 0.2045 0.0000
vt 0.4970 0.2286 0.0000
vt 0.5120 0.1791 0.0000
vt 0.3997 0.1790 0.0000
vt 0.4146 0.1549 0.0000
vt 0.4459 0.1634 0.0000
vt 0.4478 0.1095 0.0000
vt 0.5048 0.1480 0.0000
vt 0.3911 0.1116 0.0000
vt 0.3571 0.1397 0.0000
vt 0.3450 0.1798 0.0000
vt 0.3653 0.2306 0.0000
vt 0.4244 0.2682 0.0000
vt 0.4693 0.2574 0.0000
vt 0.8394 0.1648 0.0000
vt 0.8302 0.2254 0.0000
vt 0.7783 0.2026 0.0000
vt 0.7199 0.2418 0.0000
vt 0.6987 0.1758 0.0000
vt 0.8716 0.1698 0.0000
vt 0.8402 0.1206 0.0000
vt 0.7715 0.1397 0.0000
vt 0.6391 0.2270 0.0000
vt 0.8168 0.2907 0.0000
vt 0.7771 0.3599 0.0000
vt 0.7619 0.2728 0.0000
vt 0.9199 0.1730 0.0000
vt 0.9829 0.2221 0.0000
vt 0.8942 0.2415 0.0000
vt 0.8557 0.0871 0.0000
vt 0.9193 0.0382 0.0000
vt 0.9003 0.1218 0.0000
vt 0.7070 0.1345 0.0000
vt 0.6758 0.0703 0.0000
vt 0.7852 0.0948 0.0000
vt 0.6969 0.3202 0.0000
vt 0.9156 0.3206 0.0000
vt 0.9754 0.1136 0.0000
vt 0.8062 0.0093 0.0000
vt 0.6393 0.1292 0.0000
vt 0.6017 0.2272 0.0000
vt 0.4715 0.3640 0.0000
vt 0.2531 0.2297 0.0000
vt 0.3131 0.0431 0.0000
vt 0.5665 0.0717 0.0000
vt 0.5463 0.3206 0.0000
vt 0.3230 0.3315 0.0000
vt 0.2615 0.1201 0.0000
vt 0.4281 0.0073 0.0000
vt 0.6017 0.1292 0.0000
# 52 texture coords

g O_JungleWorldIsland_c
f 1/1/1 2/2/2 3/3/3 
f 4/4/4 2/2/2 5/5/5 
f 1/1/1 3/3/3 6/6/6 
f 1/1/1 6/6/6 7/7/7 
f 1/1/1 7/7/7 8/8/8 
f 8/8/8 9/9/9 10/10/10 
f 8/8/8 7/7/7 9/9/9 
f 7/7/7 11/11/11 9/9/9 
f 7/7/7 12/12/12 11/11/11 
f 7/7/7 6/6/6 12/12/12 
f 6/6/6 13/13/13 12/12/12 
f 6/6/6 14/14/14 13/13/13 
f 6/6/6 3/3/3 14/14/14 
f 3/3/3 15/15/15 14/14/14 
f 5/5/5 8/8/8 10/10/10 
f 5/5/5 2/2/2 8/8/8 
f 2/2/2 1/1/1 8/8/8 
f 3/3/3 16/16/16 15/15/15 
f 3/3/3 2/2/2 16/16/16 
f 2/2/2 4/4/4 16/16/16 
f 17/17/17 18/18/18 19/19/19 
f 20/20/20 21/21/21 19/19/19 
f 17/17/17 22/22/22 18/18/18 
f 17/17/17 23/23/23 22/22/22 
f 17/17/17 24/24/24 23/23/23 
f 20/20/20 25/25/25 21/21/21 
f 26/26/26 27/27/27 28/28/28 
f 29/29/29 30/30/30 31/31/31 
f 32/32/32 33/33/33 34/34/34 
f 35/35/35 36/36/36 37/37/37 
f 20/20/20 38/38/38 25/25/25 
f 26/26/26 39/39/39 27/27/27 
f 29/29/29 40/40/40 30/30/30 
f 32/32/32 41/41/41 33/33/33 
f 35/35/35 42/42/42 36/36/36 
f 36/36/36 41/41/41 37/37/37 
f 37/37/37 41/41/41 32/32/32 
f 33/33/33 40/40/40 34/34/34 
f 34/34/34 40/40/40 29/29/29 
f 30/30/30 39/39/39 31/31/31 
f 31/31/31 39/39/39 26/26/26 
f 27/27/27 38/38/38 28/28/28 
f 28/28/28 38/38/38 20/20/20 
f 25/25/25 42/42/42 21/21/21 
f 21/21/21 42/42/42 35/35/35 
f 24/24/24 35/35/35 37/37/37 
f 24/24/24 37/37/37 23/23/23 
f 23/23/23 37/37/37 32/32/32 
f 23/23/23 32/32/32 34/34/34 
f 23/23/23 34/34/34 22/22/22 
f 22/22/22 34/34/34 29/29/29 
f 22/22/22 29/29/29 31/31/31 
f 22/22/22 31/31/31 18/18/18 
f 18/18/18 31/31/31 26/26/26 
f 21/21/21 35/35/35 24/24/24 
f 21/21/21 24/24/24 19/19/19 
f 19/19/19 24/24/24 17/17/17 
f 18/18/18 26/26/26 28/28/28 
f 18/18/18 28/28/28 19/19/19 
f 19/19/19 28/28/28 20/20/20 
f 4/4/4 5/5/5 25/43/25 
f 15/15/15 16/16/16 27/44/27 
f 13/13/13 14/14/14 30/45/30 
f 11/11/11 12/12/12 33/46/33 
f 10/10/10 9/9/9 36/47/36 
f 4/4/4 25/43/25 38/48/38 
f 15/15/15 27/44/27 39/49/39 
f 13/13/13 30/45/30 40/50/40 
f 11/11/11 33/46/33 41/51/41 
f 10/10/10 36/47/36 42/52/42 
f 36/47/36 9/9/9 41/51/41 
f 9/9/9 11/11/11 41/51/41 
f 33/46/33 12/12/12 40/50/40 
f 12/12/12 13/13/13 40/50/40 
f 30/45/30 14/14/14 39/49/39 
f 14/14/14 15/15/15 39/49/39 
f 27/44/27 16/16/16 38/48/38 
f 16/16/16 4/4/4 38/48/38 
f 25/43/25 5/5/5 42/52/42 
f 5/5/5 10/10/10 42/52/42 
# 0 polygons - 80 triangles

