# 3ds Max Wavefront OBJ Exporter v0.97b - (c)2007 guruware
# File Created: 04.04.2016 17:21:48

mtllib O_LevelGrid_b.mtl

#
# object O_LevelGrid_b
#

v  -556.3282 0.0000 2608.0664
v  -278.1641 0.0000 2608.0664
v  -278.1641 0.0000 1304.0332
v  -556.3282 0.0000 1304.0332
v  0.0000 0.0000 2608.0664
v  0.0000 0.0000 1304.0332
v  278.1641 0.0000 2608.0664
v  278.1641 0.0000 1304.0332
v  556.3282 0.0000 2608.0664
v  556.3282 0.0000 1304.0332
v  -278.1641 0.0000 -0.0000
v  -556.3282 0.0000 -0.0000
v  0.0000 0.0000 -0.0000
v  278.1641 0.0000 -0.0000
v  556.3282 0.0000 -0.0000
v  -278.1641 0.0000 -1304.0332
v  -556.3282 0.0000 -1304.0332
v  0.0000 0.0000 -1304.0332
v  278.1641 0.0000 -1304.0332
v  556.3282 0.0000 -1304.0332
v  -278.1641 0.0000 -2608.0664
v  -556.3282 0.0000 -2608.0664
v  0.0000 0.0000 -2608.0664
v  278.1641 0.0000 -2608.0664
v  556.3282 0.0000 -2608.0664
# 25 vertices

vn 0.0000 1.0000 -0.0000
# 1 vertex normals

vt 0.0000 0.0000 0.5000
vt 2.2850 0.0000 0.5000
vt 2.2850 8.7500 0.5000
vt 0.0000 8.7500 0.5000
vt 4.5700 0.0000 0.5000
vt 4.5700 8.7500 0.5000
vt 6.8550 0.0000 0.5000
vt 6.8550 8.7500 0.5000
vt 9.1400 0.0000 0.5000
vt 9.1400 8.7500 0.5000
vt 2.2850 17.5000 0.5000
vt 0.0000 17.5000 0.5000
vt 4.5700 17.5000 0.5000
vt 6.8550 17.5000 0.5000
vt 9.1400 17.5000 0.5000
vt 2.2850 26.2500 0.5000
vt 0.0000 26.2500 0.5000
vt 4.5700 26.2500 0.5000
vt 6.8550 26.2500 0.5000
vt 9.1400 26.2500 0.5000
vt 2.2850 35.0000 0.5000
vt 0.0000 35.0000 0.5000
vt 4.5700 35.0000 0.5000
vt 6.8550 35.0000 0.5000
vt 9.1400 35.0000 0.5000
# 25 texture coords

g O_LevelGrid_b
usemtl Material__23
s 1
f -25/-25/-1 -24/-24/-1 -23/-23/-1 -22/-22/-1 
f -24/-24/-1 -21/-21/-1 -20/-20/-1 -23/-23/-1 
f -21/-21/-1 -19/-19/-1 -18/-18/-1 -20/-20/-1 
f -19/-19/-1 -17/-17/-1 -16/-16/-1 -18/-18/-1 
f -22/-22/-1 -23/-23/-1 -15/-15/-1 -14/-14/-1 
f -23/-23/-1 -20/-20/-1 -13/-13/-1 -15/-15/-1 
f -20/-20/-1 -18/-18/-1 -12/-12/-1 -13/-13/-1 
f -18/-18/-1 -16/-16/-1 -11/-11/-1 -12/-12/-1 
f -14/-14/-1 -15/-15/-1 -10/-10/-1 -9/-9/-1 
f -15/-15/-1 -13/-13/-1 -8/-8/-1 -10/-10/-1 
f -13/-13/-1 -12/-12/-1 -7/-7/-1 -8/-8/-1 
f -12/-12/-1 -11/-11/-1 -6/-6/-1 -7/-7/-1 
f -9/-9/-1 -10/-10/-1 -5/-5/-1 -4/-4/-1 
f -10/-10/-1 -8/-8/-1 -3/-3/-1 -5/-5/-1 
f -8/-8/-1 -7/-7/-1 -2/-2/-1 -3/-3/-1 
f -7/-7/-1 -6/-6/-1 -1/-1/-1 -2/-2/-1 
# 16 polygons

