# 3ds Max Wavefront OBJ Exporter v0.97b - (c)2007 guruware
# File Created: 17.03.2016 23:23:41

mtllib O_Portal_a.mtl

#
# object O_Portal_a
#

v  -169.7046 -169.7044 -5.3825
v  -124.2326 -169.7044 -5.3825
v  -124.2327 -124.2320 -5.3825
v  -169.7046 -45.4717 -5.3825
v  169.7045 -169.7044 -5.3825
v  169.7045 -45.4726 -5.3824
v  124.2320 -124.2327 -5.3825
v  124.2320 -169.7044 -5.3825
v  155.5913 -41.6910 -5.3825
v  169.7047 45.4719 -5.3825
v  155.5915 41.6903 -5.3825
v  -113.9005 113.9011 -5.3825
v  -124.2320 124.2327 -5.3825
v  -169.7044 45.4726 -5.3825
v  -155.5913 41.6910 -5.3825
v  -41.6902 155.5916 -5.3825
v  -45.4718 169.7047 -5.3825
v  41.6909 155.5914 -5.3825
v  45.4726 169.7045 -5.3825
v  113.9010 113.9006 -5.3824
v  124.2326 124.2321 -5.3824
v  -113.9011 -113.9005 -5.3825
v  -45.4727 -169.7044 -5.3825
v  -41.6910 -155.5913 -5.3825
v  45.4717 -169.7047 -5.3825
v  41.6902 -155.5915 -5.3825
v  113.9005 -113.9011 -5.3825
v  -126.4345 33.8785 7.8717
v  -155.5915 -41.6902 -5.3825
v  -126.4347 -33.8777 7.8717
v  -124.2326 -169.7044 -33.3459
v  -169.7046 -169.7044 -33.3459
v  169.7045 -45.4726 -33.3458
v  169.7045 -169.7044 -33.3458
v  -124.2327 -124.2320 -33.3459
v  124.2320 -169.7044 -33.3459
v  124.2320 -124.2327 -33.3458
v  -169.7046 -45.4717 -33.3459
v  -26.3004 -98.1537 33.3459
v  -33.8784 -126.4345 7.8717
v  33.8778 -126.4347 7.8717
v  26.3000 -98.1538 33.3459
v  92.5564 -92.5568 7.8717
v  126.4346 -33.8783 7.8717
v  -92.5564 92.5568 7.8717
v  126.4348 33.8779 7.8717
v  92.5568 92.5565 7.8717
v  -92.5568 -92.5563 7.8717
v  33.8784 126.4346 7.8717
v  -33.8777 126.4348 7.8717
v  -71.8537 -71.8533 33.3459
v  -98.1537 26.3005 33.3459
v  71.8537 71.8535 33.3459
v  98.1537 -26.3004 33.3459
v  71.8534 -71.8537 33.3459
v  98.1539 26.3001 33.3459
v  -26.3000 98.1539 33.3459
v  26.3005 98.1538 33.3459
v  -71.8534 71.8538 33.3459
v  -98.1538 -26.2999 33.3459
# 60 vertices

vn 0.0000 0.0000 1.0000
vn -0.4994 0.1338 0.8560
vn -0.3883 0.1041 0.9156
vn -0.3883 -0.1041 0.9156
vn -0.4994 -0.1338 0.8560
vn 0.0000 -1.0000 -0.0000
vn 1.0000 0.0000 -0.0000
vn -1.0000 0.0000 -0.0000
vn -0.1034 -0.3858 0.9168
vn -0.1338 -0.4994 0.8560
vn 0.1338 -0.4994 0.8560
vn 0.1034 -0.3858 0.9168
vn 0.3656 -0.3656 0.8560
vn 0.2843 -0.2843 0.9156
vn 0.3883 -0.1041 0.9156
vn 0.4994 -0.1338 0.8560
vn 0.1041 -0.3883 0.9156
vn -0.3656 0.3656 0.8560
vn -0.2843 0.2843 0.9156
vn 0.4994 0.1338 0.8560
vn 0.3883 0.1041 0.9156
vn 0.2843 0.2843 0.9156
vn 0.3656 0.3656 0.8560
vn -0.1041 -0.3883 0.9156
vn -0.3656 -0.3656 0.8560
vn -0.2843 -0.2843 0.9156
vn 0.1338 0.4994 0.8560
vn 0.1041 0.3883 0.9156
vn -0.1041 0.3883 0.9156
vn -0.1338 0.4994 0.8560
vn -0.2825 -0.2825 0.9168
vn -0.3858 0.1034 0.9168
vn 0.2825 0.2825 0.9168
vn 0.3858 -0.1034 0.9168
vn 0.2825 -0.2825 0.9168
vn 0.3858 0.1034 0.9168
vn -0.1034 0.3858 0.9168
vn 0.1034 0.3858 0.9168
vn -0.2825 0.2825 0.9168
vn -0.3858 -0.1034 0.9168
# 40 vertex normals

vt 0.8724 0.0394 0.0000
vt 0.8724 0.2405 0.0000
vt 0.9172 0.2405 0.0000
vt 0.9949 0.0394 0.0000
vt 0.3543 0.1098 0.0000
vt 0.3442 0.0721 0.0000
vt 0.5875 0.0721 0.0000
vt 0.5774 0.1098 0.0000
vt 0.7706 0.8283 0.0000
vt 0.7983 0.8558 0.0000
vt 0.5875 0.9771 0.0000
vt 0.5774 0.9395 0.0000
vt 0.8822 0.6358 0.0000
vt 0.9200 0.6458 0.0000
vt 0.8822 0.4134 0.0000
vt 0.9200 0.4034 0.0000
vt 0.7706 0.2209 0.0000
vt 0.7983 0.1934 0.0000
vt 0.1610 0.8283 0.0000
vt 0.1334 0.8558 0.0000
vt 0.0117 0.6458 0.0000
vt 0.0495 0.6358 0.0000
vt 0.0117 0.4034 0.0000
vt 0.0495 0.4135 0.0000
vt 0.1334 0.1934 0.0000
vt 0.1610 0.2209 0.0000
vt 0.7635 0.6073 0.0000
vt 0.8406 0.6280 0.0000
vt 0.7390 0.8041 0.0000
vt 0.6822 0.7478 0.0000
vt 0.3441 0.9771 0.0000
vt 0.3543 0.9395 0.0000
vt 0.6712 0.0118 0.0000
vt 0.6712 0.0394 0.0000
vt 0.8724 0.0118 0.0000
vt 0.9949 0.0118 0.0000
vt 0.9172 0.2681 0.0000
vt 0.8724 0.2681 0.0000
vt 0.3983 0.7569 0.0000
vt 0.3793 0.8286 0.0000
vt 0.2387 0.7471 0.0000
vt 0.2910 0.6946 0.0000
vt 0.1576 0.6063 0.0000
vt 0.0802 0.6274 0.0000
vt 0.0802 0.4234 0.0000
vt 0.1577 0.4438 0.0000
vt 0.1822 0.8040 0.0000
vt 0.7631 0.4450 0.0000
vt 0.8408 0.4242 0.0000
vt 0.2388 0.3031 0.0000
vt 0.1819 0.2467 0.0000
vt 0.3584 0.1447 0.0000
vt 0.3794 0.2221 0.0000
vt 0.3588 0.9061 0.0000
vt 0.5416 0.8288 0.0000
vt 0.5627 0.9061 0.0000
vt 0.5418 0.2223 0.0000
vt 0.5623 0.1448 0.0000
vt 0.7390 0.2471 0.0000
vt 0.6823 0.3040 0.0000
vt 0.5223 0.7573 0.0000
vt 0.6917 0.5885 0.0000
vt 0.3988 0.2935 0.0000
vt 0.2294 0.4627 0.0000
vt 0.2292 0.5869 0.0000
vt 0.2914 0.3553 0.0000
vt 0.6299 0.3565 0.0000
vt 0.5227 0.2940 0.0000
vt 0.6916 0.4644 0.0000
vt 0.6297 0.6957 0.0000
# 70 texture coords

g O_Portal_a
usemtl 20___Default
s 1
f 1/1/1 2/2/1 3/3/1 4/4/1 
f 5/1/1 6/4/1 7/3/1 8/2/1 
f 9/5/1 6/6/1 10/7/1 11/8/1 
f 12/9/1 13/10/1 14/11/1 15/12/1 
f 16/13/1 17/14/1 13/10/1 12/9/1 
f 18/15/1 19/16/1 17/14/1 16/13/1 
f 20/17/1 21/18/1 19/16/1 18/15/1 
f 22/19/1 3/20/1 23/21/1 24/22/1 
f 11/8/1 10/7/1 21/18/1 20/17/1 
f 24/22/1 23/21/1 25/23/1 26/24/1 
f 26/24/1 25/23/1 7/25/1 27/26/1 
f 27/26/1 7/25/1 6/6/1 9/5/1 
f 28/27/2 15/28/3 29/29/4 30/30/5 
f 15/12/1 14/11/1 4/31/1 29/32/1 
f 29/32/1 4/31/1 3/20/1 22/19/1 
f 31/33/6 2/34/6 1/1/6 32/35/6 
f 33/36/7 6/4/7 5/1/7 34/35/7 
f 35/37/7 3/3/7 2/2/7 31/38/7 
f 34/35/6 5/1/6 8/34/6 36/33/6 
f 36/38/8 8/2/8 7/3/8 37/37/8 
f 32/35/8 1/1/8 4/4/8 38/36/8 
f 39/39/9 40/40/10 41/41/11 42/42/12 
f 43/43/13 27/44/14 9/45/15 44/46/16 
f 41/41/11 26/47/17 27/44/14 43/43/13 
f 45/48/18 12/49/19 15/28/3 28/27/2 
f 46/50/20 11/51/21 20/52/22 47/53/23 
f 40/40/10 24/54/24 26/47/17 41/41/11 
f 44/46/16 9/45/15 11/51/21 46/50/20 
f 48/55/25 22/56/26 24/54/24 40/40/10 
f 30/30/5 29/29/4 22/56/26 48/55/25 
f 49/57/27 18/58/28 16/59/29 50/60/30 
f 50/60/30 16/59/29 12/49/19 45/48/18 
f 47/53/23 20/52/22 18/58/28 49/57/27 
f 51/61/31 39/39/9 42/42/12 52/62/32 
f 53/63/33 52/62/32 42/42/12 54/64/34 
f 42/42/12 55/65/35 54/64/34 
f 54/64/34 56/66/36 53/63/33 
f 57/67/37 52/62/32 53/63/33 58/68/38 
f 57/67/37 59/69/39 52/62/32 
f 51/61/31 52/62/32 60/70/40 
f 52/62/32 28/27/2 30/30/5 60/70/40 
f 42/42/12 41/41/11 43/43/13 55/65/35 
f 60/70/40 30/30/5 48/55/25 51/61/31 
f 57/67/37 50/60/30 45/48/18 59/69/39 
f 54/64/34 44/46/16 46/50/20 56/66/36 
f 55/65/35 43/43/13 44/46/16 54/64/34 
f 56/66/36 46/50/20 47/53/23 53/63/33 
f 53/63/33 47/53/23 49/57/27 58/68/38 
f 58/68/38 49/57/27 50/60/30 57/67/37 
f 59/69/39 45/48/18 28/27/2 52/62/32 
f 51/61/31 48/55/25 40/40/10 39/39/9 
# 47 polygons - 4 triangles

