# Blender v2.75 (sub 0) OBJ File: 'Asteroid.blend'
# www.blender.org
o Asteroid_hexagon2_Icosphere.004
v 0.871833 0.830860 -0.000005
v -0.003746 0.958872 -0.000005
v -0.003735 -0.010695 0.000030
v 1.278931 -0.565743 -0.000005
v 0.433063 -1.055678 -0.000005
v -0.836279 0.468936 -0.000005
v -1.057413 -0.544657 -0.000005
vt 0.656287 0.687287
vt 0.446430 0.718312
vt 0.446060 0.485874
vt 0.753345 0.352317
vt 0.550373 0.235188
vt 0.246655 0.358184
vt 0.246655 0.601178
vn 0.000000 0.000000 1.000000
s off
f 1/1/1 2/2/1 3/3/1
f 1/1/1 3/3/1 4/4/1
f 5/5/1 3/3/1 7/6/1
f 3/3/1 6/7/1 7/6/1
f 4/4/1 3/3/1 5/5/1
f 2/2/1 6/7/1 3/3/1
