# Blender v2.75 (sub 0) OBJ File: ''
# www.blender.org
o Asteroid_Asteroid_highpoly_Icosphere.002
v -3.028779 -6.162166 -0.157028
v 2.621132 -5.828974 0.859818
v -0.523560 -5.461168 3.154410
v 6.968995 -3.073468 1.622143
v 7.060539 -3.073468 -1.823151
v -6.176092 -5.120083 0.872702
v -4.980651 -4.885005 -2.832075
v 1.410629 -5.203141 -2.840006
v 8.266889 0.238037 -0.169911
v 1.729810 -3.073469 5.636979
v 5.126350 -3.628668 4.171257
v 3.926755 0.238036 5.829465
v -7.866436 -3.073468 1.644683
v -3.670880 -3.073469 4.184142
v -7.580843 0.238037 3.420937
v -6.068724 -3.282584 -3.625062
v -8.127963 -3.282585 -1.151883
v -7.845080 0.028921 -3.198460
v 5.114058 -3.073467 -4.851410
v -0.541235 -3.282584 -4.185400
v 3.902305 0.238038 -6.151443
v 7.071446 0.238037 3.534873
v -2.464524 0.238036 5.837389
v -8.923327 0.238037 -0.144143
v -2.488974 0.028921 -4.813861
v 7.056393 0.238038 -3.869735
v 5.464058 3.039689 4.679215
v 6.678485 3.632860 1.488296
v 3.919980 5.401101 2.518020
v -6.063273 2.710245 4.151192
v -0.519428 3.549541 5.200997
v -1.452772 4.338493 2.197566
v -7.529165 2.580190 -1.238369
v -7.211244 2.710246 1.509096
v -2.745259 3.880008 -1.068104
v 1.954565 4.175738 -5.135558
v -3.688570 2.466587 -3.501890
v 1.961341 5.601051 -3.468465
v 7.200415 3.006665 -2.216488
v 4.979078 3.937329 -4.726996
v 5.115429 5.354977 -1.186757
v 1.968109 6.230927 -0.157026
vt 0.535918 0.209431
vt 0.800298 0.224993
vt 0.659574 0.295106
vt 0.063818 0.140518
vt 0.305097 0.071273
vt 0.154460 0.254089
vt 0.523291 0.320801
vt 0.465328 0.305849
vt 0.340531 0.227175
vt 0.004102 0.341918
vt 0.683818 0.401680
vt 0.787396 0.418119
vt 0.687309 0.492089
vt 0.519155 0.356254
vt 0.582952 0.361023
vt 0.526067 0.391331
vt 0.459986 0.337278
vt 0.492848 0.348503
vt 0.469457 0.374468
vt 0.244529 0.308583
vt 0.371929 0.303627
vt 0.272569 0.387111
vt 0.929223 0.469627
vt 0.896379 0.712393
vt 0.774441 0.567071
vt 0.585488 0.421218
vt 0.495253 0.380968
vt 0.398162 0.376045
vt 0.167103 0.384352
vt 0.668391 0.574769
vt 0.687425 0.688603
vt 0.576004 0.625598
vt 0.528470 0.419794
vt 0.570522 0.485277
vt 0.508403 0.494396
vt 0.479908 0.399542
vt 0.502696 0.409677
vt 0.453849 0.460174
vt 0.325754 0.471358
vt 0.428950 0.415081
vt 0.343161 0.524867
vt 0.106534 0.511248
vt 0.249513 0.487252
vt 0.231595 0.647970
vt 0.424479 0.645799
vt 0.550299 0.806203
vt 0.742728 0.874532
vn -0.134100 -0.990200 -0.038600
vn 0.280500 -0.957600 0.065100
vn -0.064700 -0.849400 0.523700
vn 0.790000 -0.571100 0.223000
vn 0.763500 -0.602700 -0.232100
vn -0.487000 -0.835600 0.254100
vn -0.292500 -0.772700 -0.563400
vn 0.112700 -0.855900 -0.504700
vn 0.999700 0.018300 0.019000
vn 0.056400 -0.456300 0.888000
vn 0.511400 -0.603500 0.611800
vn 0.296600 0.016100 0.954900
vn -0.766200 -0.453700 0.455000
vn -0.342300 -0.495000 0.798600
vn -0.752300 0.005100 0.658800
vn -0.431500 -0.392500 -0.812300
vn -0.835900 -0.496900 -0.233200
vn -0.685600 0.154500 -0.711400
vn 0.400200 -0.574400 -0.714100
vn -0.094100 -0.450600 -0.887700
vn 0.179400 -0.037800 -0.983000
vn 0.835000 -0.002000 0.550300
vn -0.226700 -0.028800 0.973500
vn -0.989200 0.146100 0.009300
vn -0.239900 0.034800 -0.970200
vn 0.814000 -0.007000 -0.580800
vn 0.518700 0.456800 0.722600
vn 0.791200 0.568600 0.225100
vn 0.241200 0.885400 0.397500
vn -0.508100 0.587500 0.629900
vn -0.104000 0.646500 0.755800
vn -0.280300 0.939900 0.195000
vn -0.603500 0.741700 -0.292600
vn -0.636800 0.752000 0.170300
vn -0.361000 0.916800 -0.170900
vn -0.119200 0.529900 -0.839600
vn -0.349900 0.622900 -0.699700
vn -0.091700 0.903600 -0.418500
vn 0.851700 0.455400 -0.259300
vn 0.469000 0.555600 -0.686500
vn 0.500300 0.859500 -0.104800
vn -0.101900 0.993100 0.058200
s 1
f 1/1/1 2/2/2 3/3/3
f 4/4/4 2/5/2 5/6/5
f 1/1/1 3/3/3 6/7/6
f 1/1/1 6/7/6 7/8/7
f 1/1/1 7/8/7 8/9/8
f 4/4/4 5/6/5 9/10/9
f 10/11/10 11/12/11 12/13/12
f 13/14/13 14/15/14 15/16/15
f 16/17/16 17/18/17 18/19/18
f 19/20/19 20/21/20 21/22/21
f 4/23/4 9/24/9 22/25/22
f 10/11/10 12/13/12 23/26/23
f 13/14/13 15/16/15 24/27/24
f 16/17/16 18/19/18 25/28/25
f 19/20/19 21/22/21 26/29/26
f 27/30/27 28/31/28 29/32/29
f 30/33/30 31/34/31 32/35/32
f 33/36/33 34/37/34 35/38/35
f 36/39/36 37/40/37 38/41/38
f 39/42/39 40/43/40 41/44/41
f 41/44/41 38/41/38 42/45/42
f 41/44/41 40/43/40 38/41/38
f 40/43/40 36/39/36 38/41/38
f 38/41/38 35/38/35 42/45/42
f 38/41/38 37/40/37 35/38/35
f 37/40/37 33/36/33 35/38/35
f 35/38/35 32/35/32 42/45/42
f 35/38/35 34/37/34 32/35/32
f 34/37/34 30/33/30 32/35/32
f 32/35/32 29/32/29 42/45/42
f 32/35/32 31/34/31 29/32/29
f 31/34/31 27/30/27 29/32/29
f 29/32/29 41/46/41 42/45/42
f 29/32/29 28/31/28 41/46/41
f 28/31/28 39/47/39 41/46/41
f 26/29/26 40/43/40 39/42/39
f 26/29/26 21/22/21 40/43/40
f 21/22/21 36/39/36 40/43/40
f 25/28/25 37/40/37 36/39/36
f 25/28/25 18/19/18 37/40/37
f 18/19/18 33/36/33 37/40/37
f 24/27/24 34/37/34 33/36/33
f 24/27/24 15/16/15 34/37/34
f 15/16/15 30/33/30 34/37/34
f 23/26/23 31/34/31 30/33/30
f 23/26/23 12/13/12 31/34/31
f 12/13/12 27/30/27 31/34/31
f 22/25/22 28/31/28 27/30/27
f 22/25/22 9/24/9 28/31/28
f 9/24/9 39/47/39 28/31/28
f 21/22/21 25/28/25 36/39/36
f 21/22/21 20/21/20 25/28/25
f 20/21/20 16/17/16 25/28/25
f 18/19/18 24/27/24 33/36/33
f 18/19/18 17/18/17 24/27/24
f 17/18/17 13/14/13 24/27/24
f 15/16/15 23/26/23 30/33/30
f 15/16/15 14/15/14 23/26/23
f 14/15/14 10/11/10 23/26/23
f 12/13/12 22/25/22 27/30/27
f 12/13/12 11/12/11 22/25/22
f 11/12/11 4/23/4 22/25/22
f 9/10/9 26/29/26 39/42/39
f 9/10/9 5/6/5 26/29/26
f 5/6/5 19/20/19 26/29/26
f 8/9/8 20/21/20 19/20/19
f 8/9/8 7/8/7 20/21/20
f 7/8/7 16/17/16 20/21/20
f 7/8/7 17/18/17 16/17/16
f 7/8/7 6/7/6 17/18/17
f 6/7/6 13/14/13 17/18/17
f 6/7/6 14/15/14 13/14/13
f 6/7/6 3/3/3 14/15/14
f 3/3/3 10/11/10 14/15/14
f 5/6/5 8/9/8 19/20/19
f 5/6/5 2/5/2 8/9/8
f 2/5/2 1/1/1 8/9/8
f 3/3/3 11/12/11 10/11/10
f 3/3/3 2/2/2 11/12/11
f 2/2/2 4/23/4 11/12/11
