# Blender v2.75 (sub 0) OBJ File: 'Asteroid.blend'
# www.blender.org
o Asteroid.001_Icosphere.000
v 0.000000 -1.000000 -0.000000
v 1.526027 -0.447215 0.274648
v 0.676654 -0.447215 0.894413
v -0.850083 -0.447215 0.278128
v -0.527195 -0.447215 -0.722525
v 1.199075 -0.447215 -0.724665
v 1.202020 0.447215 0.722525
v -0.524251 0.447215 0.724665
v -0.851203 0.447215 -0.274648
v 0.672995 0.447215 -0.894413
v 1.524907 0.447215 -0.278128
v 0.674824 1.000000 -0.000000
vt 0.512570 0.879740
vt 0.062779 0.680879
vt 0.329323 0.658029
vt 0.951372 0.705948
vt 0.712878 0.616089
vt 0.479394 0.645913
vt 0.546285 0.640983
vt 0.821152 0.382532
vt 0.287155 0.508417
vt 0.451156 0.591072
vt 0.505033 0.594148
vt 0.614043 0.522840
vt 0.098522 0.306111
vt 0.466479 0.306111
vn 0.260600 -0.896900 0.357200
vn 0.356800 -0.926900 -0.116700
vn -0.259200 -0.721600 0.642000
vn -0.577700 -0.794700 -0.186400
vn -0.000800 -0.794500 -0.607300
vn 0.933600 -0.187600 -0.305400
vn 0.579000 -0.187600 0.793500
vn -0.355800 -0.310500 0.881500
vn -0.934800 -0.187600 -0.301600
vn -0.001200 -0.187100 -0.982300
vn 0.934800 0.187600 0.301600
vn 0.001200 0.188000 0.982200
vn -0.933600 0.187600 0.305400
vn -0.358000 0.311200 -0.880400
vn 0.575700 0.187600 -0.795800
vn 0.577700 0.794700 0.186400
vn 0.000800 0.794500 0.607300
vn -0.356800 0.926900 0.116700
vn -0.208900 0.832100 -0.513800
vn 0.355800 0.794700 -0.491900
s off
f 1/1/1 2/2/1 3/3/1
f 2/4/2 1/1/2 6/5/2
f 1/1/3 3/3/3 4/6/3
f 1/1/4 4/6/4 5/7/4
f 1/1/5 5/7/5 6/5/5
f 2/4/6 6/5/6 11/8/6
f 3/3/7 2/2/7 7/9/7
f 4/6/8 3/3/8 8/10/8
f 5/7/9 4/6/9 9/11/9
f 6/5/10 5/7/10 10/12/10
f 2/2/11 11/13/11 7/9/11
f 3/3/12 7/9/12 8/10/12
f 4/6/13 8/10/13 9/11/13
f 5/7/14 9/11/14 10/12/14
f 6/5/15 10/12/15 11/8/15
f 7/9/16 11/13/16 12/14/16
f 8/10/17 7/9/17 12/14/17
f 9/11/18 8/10/18 12/14/18
f 10/12/19 9/11/19 12/14/19
f 11/8/20 10/12/20 12/14/20
