# 3ds Max Wavefront OBJ Exporter v0.97b - (c)2007 guruware
# File Created: 25.02.2016 15:11:01

mtllib L_GridMesh_a.mtl

#
# object Plane001
#

v  -586.8195 0.0000 5189.6846
v  -293.4097 0.0000 5189.6846
v  -293.4097 0.0000 2594.8423
v  -586.8195 0.0000 2594.8423
v  0.0000 0.0000 5189.6846
v  0.0000 0.0000 2594.8423
v  293.4097 0.0000 5189.6846
v  293.4097 0.0000 2594.8423
v  586.8195 0.0000 5189.6846
v  586.8195 0.0000 2594.8423
v  -293.4097 0.0000 -0.0000
v  -586.8195 0.0000 -0.0000
v  0.0000 0.0000 -0.0000
v  293.4097 0.0000 -0.0000
v  586.8195 0.0000 -0.0000
v  -293.4097 0.0000 -2594.8423
v  -586.8195 0.0000 -2594.8423
v  0.0000 0.0000 -2594.8423
v  293.4097 0.0000 -2594.8423
v  586.8195 0.0000 -2594.8423
v  -293.4097 0.0000 -5189.6846
v  -586.8195 0.0000 -5189.6846
v  0.0000 0.0000 -5189.6846
v  293.4097 0.0000 -5189.6846
v  586.8195 0.0000 -5189.6846
# 25 vertices

vn 0.0000 1.0000 -0.0000
# 1 vertex normals

vt 0.0000 0.0000 0.5000
vt 0.2500 0.0000 0.5000
vt 0.2500 1.1100 0.5000
vt 0.0000 1.1100 0.5000
vt 0.5000 0.0000 0.5000
vt 0.5000 1.1100 0.5000
vt 0.7500 0.0000 0.5000
vt 0.7500 1.1100 0.5000
vt 1.0000 0.0000 0.5000
vt 1.0000 1.1100 0.5000
vt 0.2500 2.2200 0.5000
vt 0.0000 2.2200 0.5000
vt 0.5000 2.2200 0.5000
vt 0.7500 2.2200 0.5000
vt 1.0000 2.2200 0.5000
vt 0.2500 3.3300 0.5000
vt 0.0000 3.3300 0.5000
vt 0.5000 3.3300 0.5000
vt 0.7500 3.3300 0.5000
vt 1.0000 3.3300 0.5000
vt 0.2500 4.4400 0.5000
vt 0.0000 4.4400 0.5000
vt 0.5000 4.4400 0.5000
vt 0.7500 4.4400 0.5000
vt 1.0000 4.4400 0.5000
# 25 texture coords

g Plane001
usemtl Material__21
s 1
f -25/-25/-1 -24/-24/-1 -23/-23/-1 -22/-22/-1 
f -24/-24/-1 -21/-21/-1 -20/-20/-1 -23/-23/-1 
f -21/-21/-1 -19/-19/-1 -18/-18/-1 -20/-20/-1 
f -19/-19/-1 -17/-17/-1 -16/-16/-1 -18/-18/-1 
f -22/-22/-1 -23/-23/-1 -15/-15/-1 -14/-14/-1 
f -23/-23/-1 -20/-20/-1 -13/-13/-1 -15/-15/-1 
f -20/-20/-1 -18/-18/-1 -12/-12/-1 -13/-13/-1 
f -18/-18/-1 -16/-16/-1 -11/-11/-1 -12/-12/-1 
f -14/-14/-1 -15/-15/-1 -10/-10/-1 -9/-9/-1 
f -15/-15/-1 -13/-13/-1 -8/-8/-1 -10/-10/-1 
f -13/-13/-1 -12/-12/-1 -7/-7/-1 -8/-8/-1 
f -12/-12/-1 -11/-11/-1 -6/-6/-1 -7/-7/-1 
f -9/-9/-1 -10/-10/-1 -5/-5/-1 -4/-4/-1 
f -10/-10/-1 -8/-8/-1 -3/-3/-1 -5/-5/-1 
f -8/-8/-1 -7/-7/-1 -2/-2/-1 -3/-3/-1 
f -7/-7/-1 -6/-6/-1 -1/-1/-1 -2/-2/-1 
# 16 polygons

