# 3ds Max Wavefront OBJ Exporter v0.97b - (c)2007 guruware
# File Created: 25.01.2016 19:21:40

mtllib L_LavaWorldPiece_Lava_c.mtl

#
# object L_LavaWorldPiece_Lava_c
#

v  -556.5098 -233.0554 -10599.3320
v  -285.9682 -233.0554 -10599.3320
v  -285.9682 -233.0554 -11903.4268
v  -556.5098 -233.0554 -11903.4268
v  -15.4267 -233.0554 -10599.3320
v  -15.4267 -233.0554 -11903.4268
v  255.1149 -233.0554 -10599.3320
v  255.1149 -233.0554 -11903.4268
v  525.6565 -233.0554 -10599.3320
v  525.6565 -233.0554 -11903.4268
v  -285.9682 -233.0554 -13207.5215
v  -556.5098 -233.0554 -13207.5215
v  -15.4267 -233.0554 -13207.5215
v  255.1149 -233.0554 -13207.5215
v  525.6565 -233.0554 -13207.5215
v  -285.9682 -233.0554 -14511.6162
v  -556.5098 -233.0554 -14511.6162
v  -15.4267 -233.0554 -14511.6162
v  255.1149 -233.0554 -14511.6162
v  525.6565 -233.0554 -14511.6162
v  -285.9682 -233.0554 -15815.7109
v  -556.5098 -233.0554 -15815.7109
v  -15.4267 -233.0554 -15815.7109
v  255.1149 -233.0554 -15815.7109
v  525.6565 -233.0554 -15815.7109
# 25 vertices

vn 0.0000 1.0000 -0.0000
# 1 vertex normals

vt 0.2075 1.0000 0.0000
vt 0.1556 1.0000 0.0000
vt 0.1556 0.7500 0.0000
vt 0.2075 0.7500 0.0000
vt 0.1037 1.0000 0.0000
vt 0.1037 0.7500 0.0000
vt 0.0519 1.0000 0.0000
vt 0.0519 0.7500 0.0000
vt 0.0000 1.0000 0.0000
vt 0.0000 0.7500 0.0000
vt 0.1556 0.5000 0.0000
vt 0.2075 0.5000 0.0000
vt 0.1037 0.5000 0.0000
vt 0.0519 0.5000 0.0000
vt 0.0000 0.5000 0.0000
vt 0.1556 0.2500 0.0000
vt 0.2075 0.2500 0.0000
vt 0.1037 0.2500 0.0000
vt 0.0519 0.2500 0.0000
vt 0.0000 0.2500 0.0000
vt 0.1556 0.0000 0.0000
vt 0.2075 0.0000 0.0000
vt 0.1037 0.0000 0.0000
vt 0.0519 0.0000 0.0000
vt 0.0000 0.0000 0.0000
# 25 texture coords

g L_LavaWorldPiece_Lava_c
usemtl Material__5
s 1
f 1/1/1 2/2/1 3/3/1 4/4/1 
f 2/2/1 5/5/1 6/6/1 3/3/1 
f 5/5/1 7/7/1 8/8/1 6/6/1 
f 7/7/1 9/9/1 10/10/1 8/8/1 
f 4/4/1 3/3/1 11/11/1 12/12/1 
f 3/3/1 6/6/1 13/13/1 11/11/1 
f 6/6/1 8/8/1 14/14/1 13/13/1 
f 8/8/1 10/10/1 15/15/1 14/14/1 
f 12/12/1 11/11/1 16/16/1 17/17/1 
f 11/11/1 13/13/1 18/18/1 16/16/1 
f 13/13/1 14/14/1 19/19/1 18/18/1 
f 14/14/1 15/15/1 20/20/1 19/19/1 
f 17/17/1 16/16/1 21/21/1 22/22/1 
f 16/16/1 18/18/1 23/23/1 21/21/1 
f 18/18/1 19/19/1 24/24/1 23/23/1 
f 19/19/1 20/20/1 25/25/1 24/24/1 
# 16 polygons

