# 3ds Max Wavefront OBJ Exporter v0.97b - (c)2007 guruware
# File Created: 27.01.2016 10:18:47

#
# object L_LavaWorldPiece_Lava_c
#

v  -285.9682 -180.2266 -186.8535
v  -285.9682 -180.2266 -1490.9482
v  -556.5098 -180.2266 -1490.9482
v  -556.5098 -180.2266 -186.8535
v  -15.4267 -180.2266 -186.8535
v  -15.4267 -180.2266 -1490.9482
v  255.1149 -180.2266 -186.8535
v  255.1149 -180.2266 -1490.9482
v  525.6565 -180.2266 -186.8535
v  525.6565 -180.2266 -1490.9482
v  -285.9682 -180.2266 -2795.0430
v  -556.5098 -180.2266 -2795.0430
v  -15.4267 -180.2266 -2795.0430
v  255.1149 -180.2266 -2795.0430
v  525.6565 -180.2266 -2795.0430
v  -285.9682 -180.2266 -4099.1377
v  -556.5098 -180.2266 -4099.1377
v  -15.4267 -180.2266 -4099.1377
v  255.1149 -180.2266 -4099.1377
v  525.6565 -180.2266 -4099.1377
v  -285.9682 -180.2266 -5403.2324
v  -556.5098 -180.2266 -5403.2324
v  -15.4267 -180.2266 -5403.2324
v  255.1149 -180.2266 -5403.2324
v  525.6565 -180.2266 -5403.2324
# 25 vertices

vn 0.0000 1.0000 -0.0000
# 1 vertex normals

vt 0.1556 1.0000 0.0000
vt 0.1556 0.7500 0.0000
vt 0.2075 0.7500 0.0000
vt 0.2075 1.0000 0.0000
vt 0.1037 1.0000 0.0000
vt 0.1037 0.7500 0.0000
vt 0.0519 1.0000 0.0000
vt 0.0519 0.7500 0.0000
vt 0.0000 1.0000 0.0000
vt 0.0000 0.7500 0.0000
vt 0.1556 0.5000 0.0000
vt 0.2075 0.5000 0.0000
vt 0.1037 0.5000 0.0000
vt 0.0519 0.5000 0.0000
vt 0.0000 0.5000 0.0000
vt 0.1556 0.2500 0.0000
vt 0.2075 0.2500 0.0000
vt 0.1037 0.2500 0.0000
vt 0.0519 0.2500 0.0000
vt 0.0000 0.2500 0.0000
vt 0.1556 0.0000 0.0000
vt 0.2075 0.0000 0.0000
vt 0.1037 0.0000 0.0000
vt 0.0519 0.0000 0.0000
vt 0.0000 0.0000 0.0000
# 25 texture coords

g L_LavaWorldPiece_Lava_c
f 1/1/1 2/2/1 3/3/1 4/4/1 
f 5/5/1 6/6/1 2/2/1 1/1/1 
f 7/7/1 8/8/1 6/6/1 5/5/1 
f 9/9/1 10/10/1 8/8/1 7/7/1 
f 2/2/1 11/11/1 12/12/1 3/3/1 
f 6/6/1 13/13/1 11/11/1 2/2/1 
f 8/8/1 14/14/1 13/13/1 6/6/1 
f 10/10/1 15/15/1 14/14/1 8/8/1 
f 11/11/1 16/16/1 17/17/1 12/12/1 
f 13/13/1 18/18/1 16/16/1 11/11/1 
f 14/14/1 19/19/1 18/18/1 13/13/1 
f 15/15/1 20/20/1 19/19/1 14/14/1 
f 16/16/1 21/21/1 22/22/1 17/17/1 
f 18/18/1 23/23/1 21/21/1 16/16/1 
f 19/19/1 24/24/1 23/23/1 18/18/1 
f 20/20/1 25/25/1 24/24/1 19/19/1 
# 16 polygons

