# Blender v2.75 (sub 0) OBJ File: 'Asteroid.blend'
# www.blender.org
o Asteroid_hexagon3_Icosphere.005
v -0.424739 0.548943 -0.000005
v -0.780765 -0.016912 -0.000005
v 0.049054 -0.017784 0.000030
v 0.091090 0.605779 -0.000005
v 0.873906 -0.080341 -0.000005
v -0.258358 -0.601726 -0.000005
v 0.454362 -0.688199 -0.000005
vt 0.407438 0.816649
vt 0.407438 0.454744
vt 0.700970 0.646337
vt 0.701027 0.984766
vt 0.993832 0.836351
vt 0.993834 0.479580
vt 0.700866 0.310528
vn -0.000000 0.000000 1.000000
vn -0.000000 0.000100 1.000000
vn -0.000000 -0.000100 1.000000
s off
f 1/1/1 2/2/1 3/3/1
f 1/1/2 3/3/2 4/4/2
f 5/5/1 3/3/1 7/6/1
f 3/3/3 6/7/3 7/6/3
f 4/4/2 3/3/2 5/5/2
f 2/2/1 6/7/1 3/3/1
