# Blender v2.75 (sub 0) OBJ File: 'Spaceship2.blend'
# www.blender.org
o Spaceship_Cube
v -3.387641 -1.189046 2.326098
v -3.387641 -1.189046 -2.326098
v -3.387641 1.189046 2.326097
v -3.387641 1.189046 -2.326099
v -2.960578 0.590957 0.845646
v -2.960578 0.590957 -0.845647
v -2.960578 -0.590957 -0.845647
v -2.960578 -0.590957 0.845646
v -3.387641 -0.396349 3.311204
v -3.387641 0.396349 3.311203
v -3.387641 0.396349 -3.311205
v -3.387641 -0.396349 -3.311204
v -1.645140 -0.621471 1.691293
v -1.645139 -0.621471 -1.691293
v -1.645140 0.621471 1.691292
v -1.645137 0.621471 -1.691293
v -1.645139 -0.621471 0.845646
v -1.645139 -0.621471 -0.845647
v -1.645139 0.621471 0.845646
v -1.645138 0.621471 -0.845647
v -1.645138 -0.207157 -2.683207
v -1.645138 0.207157 -2.683207
v -1.645140 0.207157 2.683207
v -1.645140 -0.207157 2.683206
v 2.449209 -0.621471 1.691293
v 2.449210 -0.621471 -1.691293
v 2.449208 0.621471 1.691292
v 2.449211 0.621471 -1.691293
v 2.008034 -0.621471 0.845647
v 2.008035 -0.621471 -0.845646
v 2.008035 0.621471 0.845646
v 2.008036 0.621471 -0.845647
v 1.544103 -0.207157 -2.683207
v 1.544103 0.207157 -2.683207
v 1.544101 0.207157 2.683207
v 1.544101 -0.207157 2.683207
v 1.093425 1.601244 0.845646
v 0.180570 1.601244 0.845646
v -0.732285 0.621471 0.845646
v 1.093426 1.601244 -0.845647
v 0.180571 1.601244 -0.845647
v -0.732284 0.621471 -0.845647
v -0.732285 -0.621471 1.691293
v 0.180570 -0.621471 1.691293
v 1.093425 -0.621471 1.691293
v -0.732284 -0.621471 -1.691293
v 0.180571 -0.621471 -1.691293
v 1.093426 -0.621471 -1.691293
v -0.732285 0.621471 1.691292
v 0.180569 0.621471 1.691292
v 1.093424 0.621471 1.691292
v -0.732283 0.621471 -1.691293
v 0.180572 0.621471 -1.691293
v 1.093427 0.621471 -1.691293
v -0.732285 -0.621471 0.845646
v 0.180570 -0.621471 0.845647
v 1.093425 -0.621471 0.845647
v -0.732284 -0.621471 -0.845646
v 0.180570 -0.621471 -0.845646
v 1.093425 -0.621471 -0.845646
v -0.732283 -0.207157 -2.683207
v 0.180571 -0.207157 -2.683207
v 1.093426 -0.207157 -2.683207
v -0.732283 0.207157 -2.683207
v 0.180572 0.207157 -2.683207
v 1.093426 0.207157 -2.683207
v -0.732285 0.207157 2.683207
v 0.180569 0.207157 2.683207
v 1.093424 0.207157 2.683207
v -0.732285 -0.207157 2.683207
v 0.180570 -0.207157 2.683207
v 1.093424 -0.207157 2.683207
v -3.387641 0.890001 -1.242583
v -3.387641 -0.890001 -1.242583
v -3.387641 -0.890001 1.242583
v -3.387641 0.890001 1.242582
vn 0.000000 -0.554300 0.832300
vn 0.308600 -0.468100 0.828000
vn 0.308600 0.468100 0.828000
vn 0.000000 0.554300 0.832300
vn 0.000000 0.554300 -0.832300
vn 0.308600 0.468100 -0.828000
vn 0.308600 -0.468100 -0.828000
vn 0.000000 -0.554300 -0.832300
vn 0.000000 -1.000000 0.000000
vn 0.625700 -0.764800 -0.153400
vn 0.767100 -0.622900 0.153400
vn 0.000000 -0.980500 0.196500
vn 0.625700 -0.764800 0.153400
vn 0.103800 0.857900 0.503200
vn 0.767100 0.622900 0.153400
vn 0.848500 0.528900 -0.014000
vn 0.000000 -0.980500 -0.196500
vn 0.767100 -0.622900 -0.153400
vn -0.398900 0.917000 0.000000
vn 0.045600 0.998000 0.042700
vn 0.045600 0.998000 -0.042700
vn -0.467500 0.402100 0.787200
vn -0.491000 0.839400 0.232900
vn -0.508500 -0.843200 0.174700
vn -0.479400 -0.413500 0.774100
vn -0.479400 -0.413500 -0.774100
vn -0.508500 -0.843200 -0.174700
vn -0.491000 0.839400 -0.232900
vn -0.467500 0.402100 -0.787300
vn -0.549500 -0.707700 -0.444000
vn -0.549500 -0.707700 0.444000
vn 0.045600 -0.998000 0.042700
vn 0.045600 -0.998000 -0.042700
vn -0.120000 0.941400 -0.315100
vn 0.166000 0.965700 -0.199700
vn 0.103800 0.857900 -0.503200
vn 0.767100 0.622900 -0.153400
vn 0.215800 -0.519900 0.826500
vn 0.180800 0.563600 0.806000
vn 0.166000 0.965700 0.199700
vn 0.180800 0.563600 -0.806000
vn 0.215800 -0.519900 -0.826500
vn 0.174100 -0.962600 -0.207500
vn -0.664900 -0.597200 -0.448600
vn 0.174100 -0.962600 0.207500
vn -0.549500 0.707700 -0.444000
vn -0.549500 0.707700 0.444000
vn -0.664900 0.597200 0.448600
vn -0.664900 -0.597200 0.448600
vn -0.664900 0.597200 -0.448600
vn 0.000000 0.809700 -0.586900
vn 0.848500 0.528900 0.014000
vn 0.351200 0.860500 -0.369000
vn -0.312200 0.890500 -0.330800
vn 0.351200 0.860500 0.369000
vn -0.312200 0.890500 0.330800
vn -0.120000 0.941400 0.315100
vn 0.000000 0.809700 0.586900
s 1
f 72//1 36//2 35//3 69//4
f 66//5 34//6 33//7 63//8
f 57//9 29//10 25//11 45//12
f 60//9 30//13 29//10 57//9
f 45//12 25//11 36//2 72//1
f 51//14 27//15 31//16
f 48//17 26//18 30//13 60//9
f 69//4 35//3 27//15 51//14
f 42//19 20//20 19//21 39//19
f 10//22 3//23 1//24 9//25
f 12//26 2//27 4//28 11//29
f 8//30 7//31 18//32 17//33
f 42//19 52//34 16//35 20//20
f 63//8 33//7 26//18 48//17
f 54//36 28//37 34//6 66//5
f 10//22 9//25 24//38 23//39
f 10//22 23//39 15//40
f 12//26 11//29 22//41 21//42
f 2//27 12//26 21//42 14//43
f 3//23 15//40 19//21
f 1//24 75//44 8//30 17//33
f 2//27 14//43 18//32
f 20//20 16//35 4//28
f 11//29 4//28 16//35
f 9//25 1//24 13//45 24//38
f 5//46 19//21 20//20 6//47
f 73//48 4//28 2//27 74//49
f 5//46 6//47 7//31 8//30
f 75//44 1//24 3//23 76//50
f 22//41 11//29 16//35
f 3//23 10//22 15//40
f 6//47 20//20 4//28 73//48
f 5//46 76//50 3//23 19//21
f 7//31 74//49 2//27 18//32
f 13//45 1//24 17//33
f 16//35 52//34 64//5 22//41
f 52//34 53//51 65//5 64//5
f 53//51 54//36 66//5 65//5
f 21//42 61//8 46//17 14//43
f 61//8 62//8 47//17 46//17
f 62//8 63//8 48//17 47//17
f 32//52 28//37 54//36
f 40//53 54//36 53//51 41//54
f 41//54 53//51 52//34
f 32//52 40//53 37//55 31//16
f 40//53 41//54 38//56 37//55
f 41//54 42//19 39//19 38//56
f 23//39 67//4 49//57 15//40
f 67//4 68//4 50//58 49//57
f 68//4 69//4 51//14 50//58
f 14//43 46//17 58//9 18//32
f 46//17 47//17 59//9 58//9
f 47//17 48//17 60//9 59//9
f 15//40 49//57 39//19 19//21
f 49//57 50//58 38//56
f 50//58 51//14 37//55 38//56
f 13//45 43//12 70//1 24//38
f 43//12 44//12 71//1 70//1
f 44//12 45//12 72//1 71//1
f 18//32 58//9 55//9 17//33
f 58//9 59//9 56//9 55//9
f 59//9 60//9 57//9 56//9
f 17//33 55//9 43//12 13//45
f 55//9 56//9 44//12 43//12
f 56//9 57//9 45//12 44//12
f 22//41 64//5 61//8 21//42
f 64//5 65//5 62//8 61//8
f 65//5 66//5 63//8 62//8
f 24//38 70//1 67//4 23//39
f 70//1 71//1 68//4 67//4
f 71//1 72//1 69//4 68//4
f 36//2 25//11 27//15 35//3
f 34//6 28//37 26//18 33//7
f 27//15 25//11 29//10 31//16
f 31//16 29//10 30//13 32//52
f 26//18 28//37 32//52 30//13
f 42//19 41//54 52//34
f 39//19 49//57 38//56
f 37//55 51//14 31//16
f 40//53 32//52 54//36
f 6//47 73//48 74//49 7//31
f 8//30 75//44 76//50 5//46
