# Blender v2.75 (sub 0) OBJ File: 'Laser Bullets.blend'
# www.blender.org
o Laser_bullet4_Box001.004
v -0.059800 -0.222800 0.284200
v 0.059800 -0.074300 0.140995
v -0.059800 0.222800 0.284200
v 0.059800 0.222800 0.140995
v 0.059800 0.074300 0.284200
v -0.059800 0.074300 0.284200
v 0.059800 -0.074300 0.284200
v 0.059800 0.074300 0.140995
v 0.059800 -0.222800 0.284200
v -0.059800 -0.222800 0.140995
v 0.059800 0.222800 0.284200
v 0.059800 0.074300 -0.145416
v -0.059800 0.074300 -0.145416
v -0.059800 -0.074300 -0.145416
v 0.059800 -0.074300 -0.145416
v -0.059800 0.074300 0.140995
v -0.059800 -0.074300 0.284200
v -0.059800 0.222800 0.140995
v -0.059800 -0.074300 0.140995
v 0.059800 -0.222800 0.140995
vt 0.563899 0.797187
vt 0.564015 0.638813
vt 0.691567 0.638907
vt 0.691451 0.797280
vt 0.372141 0.178183
vt 0.372141 0.019703
vt 0.499692 0.019703
vt 0.499692 0.178183
vt 0.658172 0.178182
vt 0.658172 0.483635
vt 0.499692 0.483635
vt 0.305628 0.700019
vt 0.305628 0.852746
vt 0.178076 0.852746
vt 0.178076 0.700019
vt 0.658172 0.611187
vt 0.499692 0.611187
vt 0.372141 0.483635
vt 0.213661 0.483635
vt 0.213661 0.178183
vt 0.086109 0.178183
vt 0.086109 0.483635
vt 0.464001 0.852745
vt 0.464001 0.700019
vt 0.971938 0.511560
vt 0.844386 0.511467
vt 0.844502 0.353093
vt 0.972054 0.353187
vt 0.019703 0.852746
vt 0.019703 0.980297
vt 0.178076 0.980297
vt 0.464001 0.572467
vt 0.305628 0.572467
vt 0.614192 0.826326
vt 0.614192 0.979052
vt 0.486640 0.979052
vt 0.486640 0.826326
vt 0.691660 0.511355
vt 0.844293 0.639018
vt 0.742087 0.979052
vt 0.614535 0.979052
vt 0.614535 0.826326
vt 0.742086 0.826326
vt 0.844177 0.797392
vt 0.691776 0.352982
vt 0.019703 0.700019
vn -0.577400 -0.577400 -0.577400
vn -0.577400 0.577400 -0.577400
vn 0.577400 0.577400 -0.577400
vn 0.577400 -0.577400 -0.577400
vn -0.577400 -0.577400 0.577400
vn -0.577400 0.577400 0.577400
vn 0.000000 -1.000000 0.000000
vn 0.577400 -0.577400 0.577400
vn 0.577400 0.577400 0.577400
vn 0.707100 -0.000000 0.707100
vn 0.707100 0.000000 -0.707100
vn -0.707100 -0.000000 0.707100
vn -0.707100 0.000000 -0.707100
s 1
f 16/1/1 18/2/2 4/3/3 8/4/4
f 12/5/3 15/6/4 14/7/1 13/8/2
f 13/8/2 14/9/1 19/10/5 16/11/6
f 2/12/7 7/13/7 17/14/7 19/15/7
f 2/16/8 8/17/9 16/11/6 19/10/5
f 12/5/3 8/18/9 2/19/8 15/20/4
f 8/18/9 12/5/3 13/8/2 16/11/6
f 14/21/1 15/20/4 2/19/8 19/22/5
f 7/13/10 9/23/8 20/24/4 2/12/11
f 11/25/9 3/26/6 6/27/5 5/28/8
f 1/29/5 9/30/8 7/31/10 17/14/12
f 10/32/1 19/33/13 2/12/11 20/24/4
f 20/34/4 9/35/8 1/36/5 10/37/1
f 18/38/2 3/26/6 11/39/9 4/3/3
f 5/40/8 6/41/5 16/42/1 8/43/4
f 4/3/3 11/39/9 5/44/8 8/4/4
f 18/38/2 16/45/1 6/27/5 3/26/6
f 17/14/12 19/15/13 10/46/1 1/29/5
