# Blender v2.75 (sub 0) OBJ File: 'Laser Bullets.blend'
# www.blender.org
o Laser_bullet3_Box001.002
v -0.038845 0.194702 -0.145416
v -0.068446 0.352051 0.102168
v 0.068446 0.352051 0.102168
v 0.038845 0.194702 -0.145416
v 0.000000 0.150774 0.209619
v 0.116470 0.064930 -0.145416
v 0.205224 0.150774 0.209619
v 0.000000 0.000000 -0.431300
v 0.000000 0.000000 -0.431300
v -0.205224 0.150774 0.209619
v -0.116470 0.064930 -0.145416
v -0.116470 0.194702 -0.145416
v -0.159586 0.284895 0.138019
v 0.159586 0.284895 0.138019
v 0.116470 0.194702 -0.145416
v 0.205175 0.168583 0.116955
v -0.068446 0.293149 0.009504
v 0.159586 0.235426 0.045355
v 0.068446 0.293149 0.009504
v -0.205175 0.168583 0.116955
v -0.159586 0.235426 0.045355
v -0.038845 -0.194702 -0.145416
v -0.068446 -0.352051 0.102168
v 0.068446 -0.352051 0.102168
v 0.038845 -0.194702 -0.145416
v 0.000000 -0.150775 0.209619
v 0.116470 -0.064930 -0.145416
v 0.205224 -0.150775 0.209619
v 0.000000 0.000000 -0.431300
v 0.000000 0.000000 -0.431300
v -0.205224 -0.150775 0.209619
v -0.116470 -0.064930 -0.145416
v -0.116470 -0.194702 -0.145416
v -0.159586 -0.284895 0.138019
v 0.159586 -0.284895 0.138019
v 0.116470 -0.194702 -0.145416
v 0.205175 -0.168583 0.116955
v -0.068446 -0.293149 0.009504
v 0.159586 -0.235426 0.045355
v 0.068446 -0.293149 0.009504
v -0.205175 -0.168583 0.116955
v -0.159586 -0.235426 0.045355
vt 0.484267 0.526713
vt 0.543508 0.521180
vt 0.546281 0.643664
vt 0.487094 0.641112
vt 0.192356 0.972117
vt 0.126240 0.936214
vt 0.093151 0.864545
vt 0.242056 0.864597
vt 0.470176 0.437595
vt 0.530020 0.427845
vt 0.476759 0.731642
vt 0.395206 0.664498
vt 0.404642 0.610309
vt 0.291682 0.972151
vt 0.537898 0.738522
vt 0.528775 0.836939
vt 0.486204 0.801044
vt 0.401882 0.558136
vt 0.302833 0.596601
vt 0.303467 0.571463
vt 0.476019 0.369444
vt 0.392488 0.506187
vt 0.329972 0.463552
vt 0.357823 0.936294
vt 0.390961 0.864648
vt 0.609039 0.781054
vt 0.609075 0.736580
vt 0.757944 0.781054
vt 0.906813 0.736580
vt 0.906849 0.781054
vt 0.330194 0.712320
vt 0.515748 0.331993
vt 0.673436 0.605178
vt 0.842452 0.605178
vt 0.796264 0.958774
vt 0.726226 0.958774
vt 0.726226 0.902405
vt 0.796264 0.902405
vt 0.090493 0.528859
vt 0.091152 0.643287
vt 0.032521 0.647871
vt 0.030651 0.525270
vt 0.490461 0.864545
vt 0.540124 0.972082
vt 0.391218 0.972082
vt 0.424332 0.900425
vt 0.101989 0.437962
vt 0.040813 0.430147
vt 0.172180 0.611213
vt 0.182177 0.664030
vt 0.104174 0.732031
vt 0.589787 0.864545
vt 0.097388 0.800171
vt 0.057075 0.836944
vt 0.044382 0.740929
vt 0.174209 0.559117
vt 0.272940 0.574072
vt 0.273699 0.599266
vt 0.093589 0.368551
vt 0.247155 0.459404
vt 0.183086 0.505768
vt 0.655915 0.900425
vt 0.689029 0.972082
vt 0.609038 0.359264
vt 0.757944 0.359264
vt 0.609075 0.403737
vt 0.906813 0.403737
vt 0.906849 0.359263
vt 0.245683 0.707969
vt 0.051659 0.331920
vt 0.842452 0.535140
vt 0.673436 0.535140
vn -0.267700 0.831400 -0.486900
vn -0.323000 0.806700 -0.494800
vn 0.323000 0.806700 -0.494800
vn 0.267700 0.831400 -0.486900
vn 0.000000 0.470900 0.882200
vn -0.659400 -0.458100 0.596100
vn 0.000000 -0.593300 0.805000
vn -0.812800 0.482100 -0.327000
vn -0.802700 0.546400 -0.239100
vn 0.812800 0.482100 -0.327000
vn 0.479900 0.660100 -0.577900
vn 0.084700 0.844200 -0.529300
vn 0.802700 0.546400 -0.239100
vn 0.659400 -0.458100 0.596100
vn 0.883900 -0.459800 -0.084900
vn -0.084700 0.844200 -0.529300
vn 0.613900 0.507400 -0.595700
vn -0.617300 0.510200 -0.598900
vn -0.883900 -0.459800 -0.084900
vn -0.673600 0.556100 -0.486800
vn -0.917300 -0.365300 0.158300
vn 0.917300 -0.365300 0.158300
vn 0.000000 0.000000 1.000000
vn 0.000000 0.000000 0.991200
vn -0.267700 -0.831400 -0.486900
vn 0.267700 -0.831400 -0.486900
vn 0.323000 -0.806700 -0.494800
vn -0.323000 -0.806700 -0.494800
vn -0.000000 -0.470900 0.882200
vn -0.000000 0.593300 0.805000
vn -0.659400 0.458100 0.596100
vn -0.812800 -0.482100 -0.327000
vn -0.802700 -0.546400 -0.239100
vn 0.084700 -0.844200 -0.529300
vn 0.740200 -0.617300 -0.266700
vn 0.812800 -0.482100 -0.327000
vn 0.883900 0.459800 -0.084900
vn 0.659400 0.458100 0.596100
vn 0.802700 -0.546400 -0.239100
vn -0.084700 -0.844200 -0.529300
vn -0.617300 -0.510200 -0.598900
vn 0.611400 -0.505300 -0.593200
vn -0.883900 0.459800 -0.084900
vn -0.917300 0.365300 0.158300
vn -0.673600 -0.556100 -0.486800
vn 0.917300 0.365300 0.158300
s 1
f 17/1/1 2/2/2 3/3/3 19/4/4
f 2/5/5 13/6/5 10/7/6 5/8/7
f 21/9/8 13/10/9 2/2/2 17/1/1
f 19/4/4 18/11/10 15/12/11 4/13/12
f 3/14/5 2/5/5 5/8/7
f 18/11/10 14/15/13 7/16/14 16/17/15
f 1/18/16 4/13/12 9/19/17 8/20/18
f 20/21/19 21/9/8 12/22/20 11/23/21
f 14/24/5 3/14/5 5/8/7 7/25/14
f 10/26/6 20/27/19 5/28/7
f 16/29/15 7/30/14 5/28/7
f 12/22/20 1/18/16 8/20/18
f 15/12/11 6/31/22 9/19/17
f 8/20/18 11/23/21 12/22/20
f 15/12/11 9/19/17 4/13/12
f 10/32/6 13/10/9 21/9/8 20/21/19
f 15/12/11 18/11/10 16/17/15 6/31/22
f 3/3/3 14/15/13 18/11/10 19/4/4
f 12/22/20 21/9/8 17/1/1 1/18/16
f 20/27/19 11/33/21 6/34/22 16/29/15
f 1/18/16 17/1/1 19/4/4 4/13/12
f 16/29/15 5/28/7 20/27/19
f 9/35/23 30/36/23 29/37/23 8/38/24
f 38/39/25 40/40/26 24/41/27 23/42/28
f 23/43/29 26/44/30 31/45/31 34/46/29
f 42/47/32 38/39/25 23/42/28 34/48/33
f 40/40/26 25/49/34 36/50/35 39/51/36
f 24/52/29 26/44/30 23/43/29
f 39/51/36 37/53/37 28/54/38 35/55/39
f 22/56/40 29/57/41 30/58/42 25/49/34
f 41/59/43 32/60/44 33/61/45 42/47/32
f 35/62/29 28/63/38 26/44/30 24/52/29
f 31/64/31 26/65/30 41/66/43
f 37/67/37 26/65/30 28/68/38
f 33/61/45 29/57/41 22/56/40
f 36/50/35 30/58/42 27/69/46
f 29/57/41 33/61/45 32/60/44
f 36/50/35 25/49/34 30/58/42
f 31/70/31 41/59/43 42/47/32 34/48/33
f 36/50/35 27/69/46 37/53/37 39/51/36
f 24/41/27 40/40/26 39/51/36 35/55/39
f 33/61/45 22/56/40 38/39/25 42/47/32
f 41/66/43 37/67/37 27/71/46 32/72/44
f 22/56/40 25/49/34 40/40/26 38/39/25
f 37/67/37 41/66/43 26/65/30
f 9/19/17 6/31/22 27/69/46 30/58/42
f 6/34/22 11/33/21 32/72/44 27/71/46
f 11/23/21 8/20/18 29/57/41 32/60/44
