# Blender v2.75 (sub 0) OBJ File: 'Laser Bullets.blend'
# www.blender.org
o Laser_bullet2_Box001.001
v 0.059800 -0.222800 -0.145416
v 0.131693 -0.342320 0.160239
v -0.131693 -0.342320 0.160239
v -0.059800 -0.222800 -0.145416
v -0.059800 0.222800 -0.145416
v -0.131693 0.342320 0.160239
v 0.131693 0.342320 0.160239
v 0.059800 0.222800 -0.145416
v 0.131693 0.114158 0.160239
v -0.131693 0.114158 0.160239
v -0.131693 -0.114158 0.160239
v 0.131693 -0.114158 0.160239
v 0.179300 0.074300 -0.145416
v 0.394860 0.114158 0.160239
v 0.394860 -0.114158 0.160239
v 0.179300 -0.074300 -0.145416
v -0.059800 0.074300 -0.431300
v 0.059800 0.074300 -0.431300
v 0.059800 -0.074300 -0.431300
v -0.059800 -0.074300 -0.431300
v -0.394860 0.114158 0.160239
v -0.179300 0.074300 -0.145416
v -0.179300 -0.074300 -0.145416
v -0.394860 -0.114158 0.160239
v 0.179300 -0.222800 -0.145416
v 0.307050 -0.266194 0.160239
v -0.307050 -0.266194 0.160239
v -0.179300 -0.222800 -0.145416
v -0.179300 0.222800 -0.145416
v -0.307050 0.266194 0.160239
v 0.307050 0.266194 0.160239
v 0.179300 0.222800 -0.145416
v -0.394860 -0.114158 0.055197
v -0.131693 -0.342320 0.055197
v 0.394860 0.114158 0.055197
v -0.131693 0.342320 0.055197
v 0.307050 0.266194 0.055197
v 0.394860 -0.114158 0.055197
v 0.307050 -0.266194 0.055197
v 0.131693 0.342320 0.055197
v -0.307050 -0.266194 0.055197
v -0.394860 0.114158 0.055197
v 0.131693 -0.342320 0.055197
v -0.307050 0.266194 0.055197
vt 0.326214 0.526222
vt 0.294070 0.509975
vt 0.327844 0.431850
vt 0.360640 0.444967
vt 0.624095 0.280065
vt 0.627947 0.238309
vt 0.732779 0.258566
vt 0.721292 0.297785
vt 0.130049 0.453701
vt 0.172166 0.352230
vt 0.256561 0.391655
vt 0.216694 0.486457
vt 0.838857 0.359410
vt 0.866795 0.329362
vt 0.924900 0.399080
vt 0.891631 0.421087
vt 0.611622 0.548198
vt 0.597090 0.595252
vt 0.538627 0.577196
vt 0.553159 0.530142
vt 0.492640 0.294350
vt 0.540380 0.393181
vt 0.491670 0.422924
vt 0.426157 0.337411
vt 0.296458 0.591721
vt 0.257480 0.572187
vt 0.387326 0.385463
vt 0.443560 0.451344
vt 0.431016 0.494442
vt 0.553433 0.280918
vt 0.547769 0.238309
vt 0.786457 0.324491
vt 0.724631 0.388534
vt 0.678789 0.380678
vt 0.092476 0.557738
vt 0.184174 0.589647
vt 0.311028 0.295264
vt 0.221511 0.249453
vt 0.606605 0.498698
vt 0.040226 0.418604
vt 0.082642 0.313158
vt 0.806917 0.286643
vt 0.920100 0.483345
vt 0.831928 0.531744
vt 0.794621 0.483712
vt 0.633301 0.371843
vt 0.655420 0.508070
vt 0.415024 0.536950
vt 0.588310 0.362393
vt 0.350298 0.362620
vt 0.399405 0.306075
vt 0.044225 0.500461
vt 0.144304 0.256230
vt 0.396996 0.581919
vt 0.758789 0.435570
vt 0.691548 0.558189
vt 0.477417 0.258212
vt 0.959774 0.463044
vn 0.171400 -0.954700 -0.243400
vn 0.203400 -0.979100 -0.000000
vn -0.203400 -0.979100 -0.000000
vn -0.171400 -0.954700 -0.243400
vn -0.171400 0.954700 -0.243400
vn -0.203400 0.979100 0.000000
vn 0.203400 0.979100 0.000000
vn 0.171400 0.954700 -0.243400
vn 0.000000 0.000000 1.000000
vn 0.911200 0.199400 -0.360600
vn 0.965900 0.258900 0.000000
vn 0.965900 -0.258900 -0.000000
vn 0.911200 -0.199400 -0.360600
vn 0.000000 0.000000 -1.000000
vn -0.911200 0.199400 -0.360600
vn -0.703800 0.096900 -0.703800
vn -0.703800 -0.096900 -0.703800
vn -0.911200 -0.199400 -0.360600
vn 0.334100 -0.921100 -0.199800
vn 0.398200 -0.917300 -0.000000
vn -0.334100 -0.921100 -0.199800
vn -0.222000 -0.859900 -0.459600
vn -0.090500 -0.864900 -0.493800
vn -0.334100 0.921100 -0.199800
vn -0.398200 0.917300 0.000000
vn 0.334100 0.921100 -0.199800
vn 0.222000 0.859900 -0.459600
vn 0.090500 0.864900 -0.493800
vn -0.922600 0.000000 -0.385700
vn -0.615000 0.564700 -0.550400
vn -0.615000 -0.564700 -0.550400
vn 0.850500 0.376900 -0.367000
vn 0.865900 0.500100 0.000000
vn 0.850500 -0.376900 -0.367000
vn 0.720800 -0.210600 -0.660400
vn 0.703800 -0.096900 -0.703800
vn 0.000000 0.887400 -0.461000
vn 0.487400 0.585100 -0.648100
vn 0.000000 -0.887400 -0.461000
vn 0.637100 -0.409400 -0.653000
vn -0.850500 0.376900 -0.367000
vn -0.720800 0.210600 -0.660400
vn -0.850500 -0.376900 -0.367000
vn -0.865900 -0.500100 -0.000000
vn -0.965900 -0.258900 -0.000000
vn -0.577300 0.600500 -0.553300
vn -0.577300 -0.600500 -0.553300
vn 0.577300 -0.600500 -0.553300
vn 0.685600 0.719900 -0.108300
vn 0.922600 0.000000 -0.385700
vn 0.930600 -0.096400 -0.353100
vn -0.720800 -0.210600 -0.660400
vn -0.965900 0.258900 0.000000
vn -0.865900 0.500100 0.000000
vn 0.865900 -0.500100 -0.000000
vn 0.720800 0.210600 -0.660400
vn 0.703800 0.096900 -0.703800
vn 0.398200 0.917300 0.000000
vn -0.222000 0.859900 -0.459600
vn -0.090500 0.864900 -0.493800
vn -0.398200 -0.917300 -0.000000
vn 0.222000 -0.859900 -0.459600
vn 0.090500 -0.864900 -0.493800
s 1
f 43/1/1 2/2/2 3/3/3 34/4/4
f 36/5/5 6/6/6 7/7/7 40/8/8
f 9/9/9 10/10/9 11/11/9 12/12/9
f 35/13/10 14/14/11 15/15/12 38/16/13
f 17/17/14 18/18/14 19/19/14 20/20/14
f 42/21/15 22/22/16 23/23/17 33/24/18
f 39/25/19 26/26/20 2/2/2 43/1/1
f 34/4/4 41/27/21 28/28/22 4/29/23
f 44/30/24 30/31/25 6/6/6 36/5/5
f 40/8/8 37/32/26 32/33/27 8/34/28
f 14/35/9 9/9/9 12/12/9 15/36/9
f 24/37/9 11/11/9 10/10/9 21/38/9
f 22/22/29 17/39/30 20/20/31 23/23/29
f 7/40/9 6/41/9 10/10/9 9/9/9
f 3/3/9 2/2/9 12/12/9 11/11/9
f 37/32/32 31/42/33 14/14/11 35/13/10
f 38/16/13 39/43/34 25/44/35 16/45/36
f 5/46/37 8/34/37 18/47/38 17/39/30
f 1/48/39 4/29/39 20/20/31 19/19/40
f 42/21/15 44/30/41 29/49/42 22/22/16
f 41/27/43 27/50/44 24/51/45 33/24/18
f 31/52/9 7/40/9 9/9/9 14/35/9
f 2/2/9 26/26/9 15/36/9 12/12/9
f 27/50/9 3/3/9 11/11/9 24/37/9
f 6/41/9 30/53/9 21/38/9 10/10/9
f 29/49/46 5/46/37 17/39/30
f 20/20/31 28/28/47 23/23/29
f 25/54/48 1/48/39 19/19/40
f 32/33/49 13/55/50 18/47/38
f 17/39/30 22/22/29 29/49/46
f 20/20/31 4/29/39 28/28/47
f 19/56/40 16/45/51 25/44/48
f 19/56/40 18/47/38 13/55/50 16/45/51
f 32/33/49 18/47/38 8/34/37
f 28/28/52 41/27/43 33/24/18 23/23/17
f 21/57/53 30/31/54 44/30/41 42/21/15
f 15/15/12 26/58/55 39/43/34 38/16/13
f 32/33/56 37/32/32 35/13/10 13/55/57
f 7/7/7 31/42/58 37/32/26 40/8/8
f 29/49/59 44/30/24 36/5/5 5/46/60
f 3/3/3 27/50/61 41/27/21 34/4/4
f 25/54/62 39/25/19 43/1/1 1/48/63
f 21/57/53 42/21/15 33/24/18 24/51/45
f 13/55/57 35/13/10 38/16/13 16/45/36
f 5/46/60 36/5/5 40/8/8 8/34/28
f 1/48/63 43/1/1 34/4/4 4/29/23
